SplineFontDB: 3.2
FontName: Sapota1
FullName: Sapota1
FamilyName: Sapota1
Weight: Regular
Copyright: Copyright (c) 2023, 
UComments: "2023-1-11: Created with FontForge (http://fontforge.org)"
Version: 001.000
ItalicAngle: 0
UnderlinePosition: -100
UnderlineWidth: 50
Ascent: 800
Descent: 200
InvalidEm: 0
LayerCount: 2
Layer: 0 0 "+gMyXYgAA" 1
Layer: 1 0 "+Uk2XYgAA" 0
XUID: [1021 386 1071978211 5870703]
StyleMap: 0x0000
FSType: 0
OS2Version: 0
OS2_WeightWidthSlopeOnly: 0
OS2_UseTypoMetrics: 1
CreationTime: 1673398754
ModificationTime: 1673398929
OS2TypoAscent: 0
OS2TypoAOffset: 1
OS2TypoDescent: 0
OS2TypoDOffset: 1
OS2TypoLinegap: 90
OS2WinAscent: 0
OS2WinAOffset: 1
OS2WinDescent: 0
OS2WinDOffset: 1
HheadAscent: 0
HheadAOffset: 1
HheadDescent: 0
HheadDOffset: 1
MarkAttachClasses: 1
DEI: 91125
Encoding: ISO8859-1
UnicodeInterp: none
NameList: AGL For New Fonts
DisplaySize: -48
AntiAlias: 1
FitToEm: 0
WinInfo: 180 30 14
BeginPrivate: 0
EndPrivate
BeginChars: 706 449

StartChar: unie000
Encoding: 257 57344 0
Width: 664
GlyphClass: 1
Flags: W
LayerCount: 2
Fore
SplineSet
463.918945312 702.73828125 m 2
 546.638671875 702.73828125 613.875976562 635.436523438 613.940429688 552.716796875 c 2
 613.940429688 -41.6123046875 l 1
 530.772460938 -41.6123046875 l 1
 530.772460938 552.716796875 l 2
 530.772460938 589.502929688 500.768554688 619.506835938 463.918945312 619.506835938 c 2
 200.021484375 619.506835938 l 2
 163.171875 619.506835938 133.16796875 589.56640625 133.16796875 552.716796875 c 2
 133.16796875 511.1328125 l 1
 50 511.1328125 l 1
 50 552.716796875 l 2
 50 635.436523438 117.301757812 702.73828125 200.021484375 702.73828125 c 2
 463.918945312 702.73828125 l 2
EndSplineSet
EndChar

StartChar: unie001
Encoding: 258 57345 1
Width: 664
GlyphClass: 1
Flags: W
LayerCount: 2
Fore
SplineSet
530.708984375 149.993164062 m 1
 613.876953125 149.993164062 l 1
 613.876953125 108.409179688 l 2
 613.876953125 25.689453125 546.575195312 -41.6123046875 463.85546875 -41.6123046875 c 2
 199.958007812 -41.6123046875 l 2
 117.301757812 -41.6123046875 50 25.689453125 50 108.409179688 c 2
 50 702.73828125 l 1
 133.16796875 702.73828125 l 1
 133.16796875 108.409179688 l 2
 133.16796875 71.5595703125 163.108398438 41.5556640625 199.958007812 41.5556640625 c 2
 463.85546875 41.5556640625 l 2
 500.705078125 41.5556640625 530.708984375 71.5595703125 530.708984375 108.409179688 c 2
 530.708984375 149.993164062 l 1
EndSplineSet
EndChar

StartChar: unie002
Encoding: 259 57346 2
Width: 664
GlyphClass: 1
Flags: W
LayerCount: 2
Fore
SplineSet
530.64453125 702.73828125 m 1
 613.8125 702.73828125 l 1
 613.8125 108.409179688 l 2
 613.8125 25.7529296875 546.510742188 -41.548828125 463.854492188 -41.548828125 c 2
 199.95703125 -41.548828125 l 2
 117.30078125 -41.548828125 49.9990234375 25.7529296875 49.9990234375 108.409179688 c 2
 49.9990234375 149.993164062 l 1
 133.166992188 149.993164062 l 1
 133.166992188 108.409179688 l 2
 133.166992188 71.623046875 163.107421875 41.619140625 199.95703125 41.619140625 c 2
 463.854492188 41.619140625 l 2
 500.640625 41.619140625 530.64453125 71.5595703125 530.64453125 108.409179688 c 2
 530.64453125 702.73828125 l 1
EndSplineSet
EndChar

StartChar: unie003
Encoding: 260 57347 3
Width: 664
GlyphClass: 1
Flags: W
LayerCount: 2
Fore
SplineSet
463.918945312 702.73828125 m 2
 546.638671875 702.73828125 613.940429688 635.436523438 613.940429688 552.716796875 c 2
 613.940429688 511.1328125 l 1
 530.772460938 511.1328125 l 1
 530.772460938 552.716796875 l 2
 530.772460938 589.56640625 500.768554688 619.5703125 463.918945312 619.5703125 c 2
 200.021484375 619.5703125 l 2
 163.171875 619.5703125 133.16796875 589.56640625 133.16796875 552.716796875 c 2
 133.16796875 -41.5478515625 l 1
 50 -41.5478515625 l 1
 50 552.716796875 l 2
 50 635.436523438 117.301757812 702.73828125 200.021484375 702.73828125 c 2
 463.918945312 702.73828125 l 2
EndSplineSet
EndChar

StartChar: unie004
Encoding: 261 57348 4
Width: 643
GlyphClass: 1
Flags: W
LayerCount: 2
Fore
SplineSet
593.106445312 633.3359375 m 1
 117.267578125 -21.1201171875 l 1
 50.0009765625 27.7880859375 l 1
 525.83984375 682.244140625 l 1
 593.106445312 633.3359375 l 1
EndSplineSet
EndChar

StartChar: unie005
Encoding: 262 57349 5
Width: 664
GlyphClass: 1
Flags: W
LayerCount: 2
Fore
SplineSet
463.918945312 702.73828125 m 2
 546.638671875 702.73828125 613.940429688 635.435546875 613.940429688 552.715820312 c 2
 613.940429688 -41.548828125 l 1
 530.772460938 -41.548828125 l 1
 530.772460938 131.952148438 l 2
 530.772460938 168.801757812 500.768554688 198.805664062 463.918945312 198.805664062 c 2
 200.021484375 198.805664062 l 2
 163.171875 198.805664062 133.16796875 168.801757812 133.16796875 131.952148438 c 2
 133.16796875 108.409179688 l 2
 133.16796875 71.623046875 163.171875 41.619140625 200.021484375 41.619140625 c 2
 241.60546875 41.619140625 l 1
 241.60546875 -41.548828125 l 1
 200.021484375 -41.548828125 l 2
 117.301757812 -41.548828125 50 25.7529296875 50 108.409179688 c 2
 50 131.952148438 l 2
 50 214.671875 117.301757812 281.973632812 200.021484375 281.973632812 c 2
 463.918945312 281.973632812 l 2
 488.037109375 281.973632812 510.556640625 275.704101562 530.772460938 265.532226562 c 1
 530.772460938 552.780273438 l 2
 530.772460938 589.56640625 500.768554688 619.5703125 463.918945312 619.5703125 c 2
 220.557617188 619.5703125 l 2
 183.771484375 619.5703125 153.767578125 589.629882812 153.767578125 552.780273438 c 2
 153.767578125 511.196289062 l 1
 70.599609375 511.196289062 l 1
 70.599609375 552.780273438 l 2
 70.599609375 635.436523438 137.901367188 702.73828125 220.557617188 702.73828125 c 2
 463.918945312 702.73828125 l 2
EndSplineSet
EndChar

StartChar: unie006
Encoding: 263 57350 6
Width: 664
GlyphClass: 1
Flags: W
LayerCount: 2
Fore
SplineSet
463.918945312 702.73828125 m 2
 546.638671875 702.73828125 613.94140625 635.435546875 613.876953125 552.715820312 c 2
 613.876953125 108.408203125 l 2
 613.876953125 31.765625 556.171875 -31.5693359375 481.9609375 -40.525390625 c 1
 481.9609375 -41.61328125 l 1
 200.022460938 -41.61328125 l 2
 117.302734375 -41.61328125 50.0009765625 25.6884765625 50.0009765625 108.408203125 c 2
 50.0009765625 532.819335938 l 2
 50.0009765625 615.475585938 117.302734375 682.77734375 200.022460938 682.77734375 c 2
 241.606445312 682.77734375 l 1
 241.606445312 599.609375 l 1
 200.022460938 599.609375 l 2
 163.172851562 599.609375 133.168945312 569.668945312 133.168945312 532.819335938 c 2
 133.168945312 108.47265625 l 2
 133.168945312 71.623046875 163.172851562 41.619140625 200.022460938 41.619140625 c 2
 306.092773438 41.619140625 l 1
 295.984375 61.771484375 290.354492188 84.482421875 290.354492188 108.47265625 c 2
 290.354492188 552.780273438 l 2
 290.354492188 635.436523438 357.65625 702.73828125 440.375976562 702.73828125 c 2
 463.918945312 702.73828125 l 2
530.709960938 108.408203125 m 2
 530.709960938 552.715820312 l 2
 530.709960938 589.501953125 500.76953125 619.505859375 463.919921875 619.505859375 c 2
 440.376953125 619.505859375 l 2
 403.52734375 619.505859375 373.5234375 589.565429688 373.5234375 552.715820312 c 2
 373.5234375 108.408203125 l 2
 373.5234375 71.55859375 403.52734375 41.5546875 440.376953125 41.5546875 c 2
 463.919921875 41.5546875 l 2
 500.706054688 41.5546875 530.709960938 71.55859375 530.709960938 108.408203125 c 2
EndSplineSet
EndChar

StartChar: unie007
Encoding: 264 57351 7
Width: 664
GlyphClass: 1
Flags: W
LayerCount: 2
Fore
SplineSet
530.708984375 702.73828125 m 1
 613.876953125 702.737304688 l 1
 613.876953125 108.47265625 l 2
 613.876953125 25.7529296875 546.575195312 -41.548828125 463.85546875 -41.548828125 c 2
 199.958007812 -41.548828125 l 2
 117.301757812 -41.548828125 50 25.7529296875 50 108.47265625 c 2
 50 150.056640625 l 1
 133.16796875 150.056640625 l 1
 133.16796875 108.47265625 l 2
 133.16796875 71.623046875 163.108398438 41.619140625 199.958007812 41.619140625 c 2
 463.85546875 41.619140625 l 2
 500.705078125 41.619140625 530.708984375 71.623046875 530.708984375 108.47265625 c 2
 530.708984375 215.247070312 l 1
 510.493164062 205.075195312 487.973632812 198.805664062 463.85546875 198.805664062 c 2
 199.958007812 198.805664062 l 2
 117.301757812 198.805664062 50 266.107421875 50 348.827148438 c 2
 50 552.780273438 l 2
 50 635.436523438 117.301757812 702.73828125 199.958007812 702.73828125 c 2
 241.541992188 702.73828125 l 1
 241.541992188 619.506835938 l 1
 199.958007812 619.506835938 l 2
 163.171875 619.506835938 133.16796875 589.56640625 133.16796875 552.716796875 c 2
 133.16796875 348.763671875 l 2
 133.16796875 311.9140625 163.108398438 281.91015625 199.958007812 281.91015625 c 2
 463.85546875 281.91015625 l 2
 500.705078125 281.91015625 530.708984375 311.9140625 530.708984375 348.763671875 c 2
 530.708984375 702.73828125 l 1
EndSplineSet
EndChar

StartChar: unie008
Encoding: 265 57352 8
Width: 664
GlyphClass: 1
Flags: W
LayerCount: 2
Fore
SplineSet
463.85546875 702.73828125 m 2
 546.51171875 702.73828125 613.813476562 635.436523438 613.813476562 552.716796875 c 2
 613.813476562 128.305664062 l 2
 613.813476562 45.6494140625 546.51171875 -21.65234375 463.85546875 -21.65234375 c 2
 422.271484375 -21.65234375 l 1
 422.271484375 61.515625 l 1
 463.85546875 61.515625 l 2
 500.641601562 61.515625 530.645507812 91.4560546875 530.645507812 128.305664062 c 2
 530.645507812 552.716796875 l 2
 530.645507812 589.502929688 500.705078125 619.506835938 463.85546875 619.506835938 c 2
 357.78515625 619.506835938 l 1
 367.893554688 599.354492188 373.5234375 576.70703125 373.5234375 552.716796875 c 2
 373.5234375 108.409179688 l 2
 373.5234375 25.689453125 306.221679688 -41.6123046875 223.501953125 -41.6123046875 c 2
 199.958984375 -41.6123046875 l 2
 117.302734375 -41.6123046875 50.0009765625 25.689453125 50.0009765625 108.409179688 c 2
 50.0009765625 552.716796875 l 2
 50.0009765625 629.359375 107.706054688 692.694335938 181.916992188 701.650390625 c 1
 181.916992188 702.73828125 l 1
 463.85546875 702.73828125 l 2
290.35546875 108.409179688 m 2
 290.35546875 552.716796875 l 2
 290.35546875 589.502929688 260.3515625 619.506835938 223.501953125 619.506835938 c 2
 199.958984375 619.506835938 l 2
 163.172851562 619.506835938 133.168945312 589.56640625 133.168945312 552.716796875 c 2
 133.168945312 108.409179688 l 2
 133.168945312 71.5595703125 163.109375 41.5556640625 199.958984375 41.5556640625 c 2
 223.501953125 41.5556640625 l 2
 260.3515625 41.5556640625 290.35546875 71.5595703125 290.35546875 108.409179688 c 2
EndSplineSet
EndChar

StartChar: unie009
Encoding: 266 57353 9
Width: 664
GlyphClass: 1
Flags: W
LayerCount: 2
Fore
SplineSet
613.940429688 505.119140625 m 1
 530.8359375 505.119140625 l 1
 530.8359375 546.703125 l 2
 530.8359375 583.489257812 500.83203125 613.493164062 463.982421875 613.493164062 c 2
 373.5859375 613.493164062 l 1
 373.5859375 523.16015625 l 2
 373.5859375 486.310546875 403.526367188 456.306640625 440.375976562 456.306640625 c 2
 463.918945312 456.306640625 l 2
 546.638671875 456.306640625 613.940429688 389.004882812 613.940429688 306.348632812 c 2
 613.940429688 108.345703125 l 2
 613.940429688 25.689453125 546.638671875 -41.6123046875 463.918945312 -41.6123046875 c 2
 200.021484375 -41.6123046875 l 2
 117.301757812 -41.6123046875 50 25.689453125 50 108.345703125 c 2
 50 306.348632812 l 2
 50 389.004882812 117.301757812 456.306640625 200.021484375 456.306640625 c 2
 223.564453125 456.306640625 l 2
 260.4140625 456.306640625 290.41796875 486.310546875 290.41796875 523.16015625 c 2
 290.41796875 613.493164062 l 1
 200.021484375 613.493164062 l 2
 163.171875 613.493164062 133.16796875 583.552734375 133.16796875 546.703125 c 2
 133.16796875 505.119140625 l 1
 50 505.119140625 l 1
 50 546.703125 l 2
 50 629.359375 117.301757812 696.661132812 200.021484375 696.661132812 c 2
 463.918945312 696.661132812 l 2
 546.638671875 696.661132812 613.940429688 629.359375 613.940429688 546.703125 c 2
 613.940429688 505.119140625 l 1
440.375 373.202148438 m 2
 397.831054688 373.202148438 359.318359375 391.05078125 332.000976562 419.647460938 c 1
 304.68359375 391.05078125 266.170898438 373.202148438 223.563476562 373.202148438 c 2
 200.020507812 373.202148438 l 2
 163.170898438 373.202148438 133.166992188 343.26171875 133.166992188 306.412109375 c 2
 133.166992188 108.409179688 l 2
 133.166992188 71.623046875 163.170898438 41.619140625 200.020507812 41.619140625 c 2
 463.91796875 41.619140625 l 2
 500.767578125 41.619140625 530.771484375 71.5595703125 530.771484375 108.409179688 c 2
 530.771484375 306.412109375 l 2
 530.771484375 343.198242188 500.767578125 373.202148438 463.91796875 373.202148438 c 2
 440.375 373.202148438 l 2
EndSplineSet
EndChar

StartChar: unie00a
Encoding: 267 57354 10
Width: 664
GlyphClass: 1
Flags: W
LayerCount: 2
Fore
SplineSet
463.85546875 702.73828125 m 2
 546.51171875 702.73828125 613.8125 635.43359375 613.876953125 552.77734375 c 2
 612.7890625 90.4296875 l 1
 603.833007812 16.21875 540.43359375 -41.486328125 463.85546875 -41.486328125 c 2
 199.958007812 -41.486328125 l 2
 117.301757812 -41.486328125 50 25.8154296875 50 108.471679688 c 2
 50 132.014648438 l 2
 50 214.670898438 117.301757812 281.97265625 199.958007812 281.97265625 c 2
 463.85546875 281.97265625 l 2
 487.845703125 281.97265625 510.493164062 276.279296875 530.645507812 266.235351562 c 1
 530.645507812 552.780273438 l 2
 530.645507812 589.56640625 500.705078125 619.5703125 463.85546875 619.5703125 c 2
 219.854492188 619.5703125 l 2
 183.068359375 619.5703125 153.064453125 589.629882812 153.064453125 552.780273438 c 2
 153.064453125 511.196289062 l 1
 69.896484375 511.196289062 l 1
 69.896484375 552.780273438 l 2
 69.896484375 635.436523438 137.198242188 702.73828125 219.854492188 702.73828125 c 2
 463.85546875 702.73828125 l 2
530.64453125 108.40625 m 2
 530.64453125 131.94921875 l 2
 530.64453125 168.735351562 500.704101562 198.739257812 463.854492188 198.739257812 c 2
 199.95703125 198.739257812 l 2
 163.170898438 198.739257812 133.166992188 168.798828125 133.166992188 131.94921875 c 2
 133.166992188 108.40625 l 2
 133.166992188 71.6201171875 163.107421875 41.6162109375 199.95703125 41.6162109375 c 2
 463.854492188 41.6162109375 l 2
 500.640625 41.6162109375 530.64453125 71.556640625 530.64453125 108.40625 c 2
EndSplineSet
EndChar

StartChar: unie00b
Encoding: 268 57355 11
Width: 664
GlyphClass: 1
Flags: W
LayerCount: 2
Fore
SplineSet
200.021484375 702.73828125 m 2
 613.876953125 702.737304688 l 1
 613.876953125 619.505859375 l 1
 597.435546875 619.505859375 l 1
 607.607421875 599.353515625 613.876953125 576.833984375 613.876953125 552.715820312 c 2
 613.876953125 108.47265625 l 2
 613.876953125 25.81640625 546.575195312 -41.4853515625 463.918945312 -41.4853515625 c 2
 200.021484375 -41.4853515625 l 2
 117.301757812 -41.4853515625 50 25.81640625 50 108.47265625 c 2
 50 552.780273438 l 2
 50 635.436523438 117.301757812 702.73828125 200.021484375 702.73828125 c 2
530.7734375 108.47265625 m 2
 530.7734375 552.715820312 l 2
 530.7734375 589.501953125 500.833007812 619.505859375 463.983398438 619.505859375 c 2
 200.0859375 619.505859375 l 2
 163.236328125 619.505859375 133.232421875 589.565429688 133.232421875 552.715820312 c 2
 133.232421875 108.47265625 l 2
 133.232421875 71.6865234375 163.236328125 41.6826171875 200.0859375 41.6826171875 c 2
 463.983398438 41.6826171875 l 2
 500.76953125 41.6826171875 530.7734375 71.623046875 530.7734375 108.47265625 c 2
EndSplineSet
EndChar

StartChar: unie00c
Encoding: 269 57356 12
Width: 664
GlyphClass: 1
Flags: W
LayerCount: 2
Fore
SplineSet
200.021484375 702.73828125 m 2
 613.940429688 702.73828125 l 1
 613.940429688 108.409179688 l 2
 613.940429688 25.689453125 546.638671875 -41.6123046875 463.918945312 -41.6123046875 c 2
 200.021484375 -41.6123046875 l 2
 117.301757812 -41.6123046875 50 25.689453125 50 108.409179688 c 2
 50 149.993164062 l 1
 133.16796875 149.993164062 l 1
 133.16796875 108.409179688 l 2
 133.16796875 71.5595703125 163.171875 41.5556640625 200.021484375 41.5556640625 c 2
 463.918945312 41.5556640625 l 2
 500.768554688 41.5556640625 530.772460938 71.5595703125 530.772460938 108.409179688 c 2
 530.772460938 619.5703125 l 1
 200.021484375 619.5703125 l 2
 163.171875 619.5703125 133.16796875 589.629882812 133.16796875 552.780273438 c 2
 133.16796875 511.196289062 l 1
 50 511.196289062 l 1
 50 552.780273438 l 2
 50 635.436523438 117.301757812 702.73828125 200.021484375 702.73828125 c 2
EndSplineSet
EndChar

StartChar: unie00d
Encoding: 270 57357 13
Width: 664
GlyphClass: 1
Flags: W
LayerCount: 2
Fore
SplineSet
572.29296875 619.571289062 m 1
 572.23046875 619.506835938 l 1
 535.444335938 619.506835938 505.440429688 589.56640625 505.440429688 552.716796875 c 2
 505.440429688 108.473632812 l 2
 505.440429688 71.6240234375 535.380859375 41.6201171875 572.23046875 41.6201171875 c 2
 613.814453125 41.6201171875 l 1
 613.814453125 -41.5478515625 l 1
 572.23046875 -41.5478515625 l 2
 489.57421875 -41.5478515625 422.272460938 25.75390625 422.272460938 108.473632812 c 2
 422.272460938 552.78125 l 2
 422.272460938 576.899414062 428.541992188 599.354492188 438.713867188 619.5703125 c 1
 373.458984375 619.5703125 l 1
 373.458984375 108.473632812 l 2
 373.458984375 25.75390625 306.157226562 -41.5478515625 223.500976562 -41.5478515625 c 2
 199.958007812 -41.5478515625 l 2
 117.301757812 -41.5478515625 50 25.75390625 50 108.473632812 c 2
 50 552.78125 l 2
 50 635.4375 117.301757812 702.739257812 199.958007812 702.739257812 c 2
 613.876953125 702.739257812 l 1
 613.876953125 619.571289062 l 1
 572.29296875 619.571289062 l 1
290.356445312 108.41015625 m 1
 290.419921875 108.346679688 l 1
 290.419921875 619.5078125 l 1
 200.0234375 619.5078125 l 2
 163.237304688 619.5078125 133.233398438 589.567382812 133.233398438 552.717773438 c 2
 133.233398438 108.41015625 l 2
 133.233398438 71.560546875 163.173828125 41.556640625 200.0234375 41.556640625 c 2
 223.56640625 41.556640625 l 2
 260.352539062 41.556640625 290.356445312 71.560546875 290.356445312 108.41015625 c 1
EndSplineSet
EndChar

StartChar: unie00e
Encoding: 271 57358 14
Width: 664
GlyphClass: 1
Flags: W
LayerCount: 2
Fore
SplineSet
464.014648438 702.73828125 m 2
 546.734375 702.73828125 614.03515625 635.434570312 613.907226562 552.71484375 c 2
 613.907226562 108.471679688 l 2
 613.907226562 31.8935546875 556.202148438 -31.505859375 481.991210938 -40.4619140625 c 1
 481.991210938 -41.5498046875 l 1
 422.366210938 -40.4619140625 l 1
 348.155273438 -31.505859375 290.450195312 31.8935546875 290.450195312 108.471679688 c 2
 290.450195312 222.219726562 l 2
 290.450195312 259.069335938 260.509765625 289.073242188 223.66015625 289.073242188 c 2
 133.263671875 289.073242188 l 1
 133.263671875 108.471679688 l 2
 133.263671875 71.6220703125 163.267578125 41.6181640625 200.1171875 41.6181640625 c 2
 241.701171875 41.6181640625 l 1
 241.701171875 -41.5498046875 l 1
 200.1171875 -41.5498046875 l 2
 117.397460938 -41.5498046875 50.095703125 25.751953125 50.095703125 108.471679688 c 2
 50.095703125 552.779296875 l 2
 50.095703125 635.435546875 117.397460938 702.737304688 200.1171875 702.737304688 c 2
 241.701171875 702.737304688 l 1
 241.701171875 619.505859375 l 1
 200.1171875 619.505859375 l 2
 163.267578125 619.505859375 133.263671875 589.565429688 133.263671875 552.715820312 c 2
 133.263671875 372.2421875 l 1
 223.66015625 372.2421875 l 2
 260.446289062 372.2421875 290.450195312 402.182617188 290.450195312 439.032226562 c 2
 290.450195312 552.780273438 l 2
 290.450195312 635.436523438 357.751953125 702.73828125 440.471679688 702.73828125 c 2
 464.014648438 702.73828125 l 2
530.8671875 108.407226562 m 2
 530.8671875 552.71484375 l 2
 530.8671875 589.500976562 500.86328125 619.504882812 464.013671875 619.504882812 c 2
 440.470703125 619.504882812 l 2
 403.62109375 619.504882812 373.6171875 589.564453125 373.6171875 552.71484375 c 2
 373.6171875 438.966796875 l 2
 373.6171875 396.422851562 355.768554688 357.91015625 327.171875 330.592773438 c 1
 355.768554688 303.275390625 373.6171875 264.762695312 373.6171875 222.155273438 c 2
 373.6171875 108.407226562 l 2
 373.6171875 71.5576171875 403.62109375 41.5537109375 440.470703125 41.5537109375 c 2
 464.013671875 41.5537109375 l 2
 500.86328125 41.5537109375 530.8671875 71.5576171875 530.8671875 108.407226562 c 2
EndSplineSet
EndChar

StartChar: unie00f
Encoding: 272 57359 15
Width: 664
GlyphClass: 1
Flags: W
LayerCount: 2
Fore
SplineSet
463.85546875 702.73828125 m 2
 546.575195312 702.73828125 613.813476562 635.435546875 613.877929688 552.715820312 c 2
 613.877929688 -41.61328125 l 1
 199.958984375 -41.61328125 l 2
 117.302734375 -41.61328125 50.0009765625 25.6884765625 50.0009765625 108.408203125 c 2
 50.0009765625 131.951171875 l 2
 50.0009765625 214.607421875 117.302734375 281.909179688 199.958984375 281.909179688 c 2
 463.856445312 281.909179688 l 2
 487.974609375 281.909179688 510.4296875 275.639648438 530.645507812 265.467773438 c 1
 530.645507812 552.780273438 l 2
 530.645507812 589.56640625 500.705078125 619.5703125 463.85546875 619.5703125 c 2
 220.4296875 619.5703125 l 2
 183.643554688 619.5703125 153.639648438 589.629882812 153.639648438 552.780273438 c 2
 153.639648438 511.196289062 l 1
 70.4716796875 511.196289062 l 1
 70.4716796875 552.780273438 l 2
 70.4716796875 635.436523438 137.7734375 702.73828125 220.4296875 702.73828125 c 2
 463.85546875 702.73828125 l 2
199.89453125 41.5546875 m 2
 530.58203125 41.5546875 l 1
 530.58203125 131.951171875 l 2
 530.58203125 168.737304688 500.641601562 198.741210938 463.791992188 198.741210938 c 2
 199.89453125 198.741210938 l 2
 163.108398438 198.741210938 133.104492188 168.80078125 133.104492188 131.951171875 c 2
 133.104492188 108.408203125 l 2
 133.104492188 71.55859375 163.044921875 41.5546875 199.89453125 41.5546875 c 2
EndSplineSet
EndChar

StartChar: unie010
Encoding: 273 57360 16
Width: 664
GlyphClass: 1
Flags: W
LayerCount: 2
Fore
SplineSet
463.983398438 702.73828125 m 2
 546.639648438 702.73828125 613.94140625 635.435546875 614.005859375 552.715820312 c 2
 614.005859375 108.408203125 l 2
 614.005859375 25.6884765625 546.704101562 -41.61328125 463.984375 -41.61328125 c 2
 440.44140625 -41.61328125 l 2
 397.706054688 -41.61328125 359.321289062 -23.4443359375 332.00390625 5.2802734375 c 1
 304.622070312 -23.4443359375 266.30078125 -41.61328125 223.565429688 -41.61328125 c 2
 200.022460938 -41.61328125 l 2
 117.302734375 -41.61328125 50.0009765625 25.6884765625 50.0009765625 108.408203125 c 2
 50.0009765625 552.779296875 l 2
 50.0009765625 635.435546875 117.302734375 702.737304688 200.022460938 702.737304688 c 2
 241.606445312 702.737304688 l 1
 241.606445312 619.505859375 l 1
 200.022460938 619.505859375 l 2
 163.172851562 619.505859375 133.168945312 589.565429688 133.168945312 552.715820312 c 2
 133.168945312 108.344726562 l 2
 133.168945312 71.4951171875 163.172851562 41.4912109375 200.022460938 41.4912109375 c 2
 223.565429688 41.4912109375 l 2
 260.415039062 41.4912109375 290.418945312 71.4951171875 290.418945312 108.344726562 c 2
 290.418945312 594.299804688 l 1
 373.586914062 594.299804688 l 1
 373.586914062 108.409179688 l 2
 373.586914062 71.5595703125 403.590820312 41.5556640625 440.440429688 41.5556640625 c 2
 463.983398438 41.5556640625 l 2
 500.833007812 41.5556640625 530.836914062 71.5595703125 530.836914062 108.409179688 c 2
 530.836914062 552.780273438 l 2
 530.836914062 589.56640625 500.833007812 619.5703125 463.983398438 619.5703125 c 2
 422.399414062 619.5703125 l 1
 422.399414062 702.73828125 l 1
 463.983398438 702.73828125 l 2
EndSplineSet
EndChar

StartChar: unie011
Encoding: 274 57361 17
Width: 664
GlyphClass: 1
Flags: W
LayerCount: 2
Fore
SplineSet
463.85546875 702.73828125 m 2
 546.575195312 702.73828125 613.87890625 635.372070312 613.814453125 552.715820312 c 2
 613.814453125 108.47265625 l 2
 613.814453125 25.7529296875 546.512695312 -41.548828125 463.856445312 -41.548828125 c 2
 199.958984375 -41.548828125 l 2
 117.302734375 -41.548828125 50.0009765625 25.7529296875 50.0009765625 108.47265625 c 2
 50.0009765625 150.056640625 l 1
 133.168945312 150.056640625 l 1
 133.168945312 108.47265625 l 2
 133.168945312 71.623046875 163.109375 41.619140625 199.958984375 41.619140625 c 2
 463.856445312 41.619140625 l 2
 500.642578125 41.619140625 530.646484375 71.623046875 530.646484375 108.47265625 c 2
 530.646484375 215.247070312 l 1
 510.494140625 205.075195312 487.974609375 198.805664062 463.856445312 198.805664062 c 2
 440.313476562 198.805664062 l 2
 397.641601562 198.805664062 359.256835938 216.974609375 331.939453125 245.69921875 c 1
 304.557617188 216.974609375 266.236328125 198.805664062 223.500976562 198.805664062 c 2
 199.958007812 198.805664062 l 2
 117.301757812 198.805664062 50 266.107421875 50 348.827148438 c 2
 50 552.780273438 l 2
 50 635.436523438 117.301757812 702.73828125 199.958007812 702.73828125 c 2
 241.541992188 702.73828125 l 1
 241.541992188 619.506835938 l 1
 199.958007812 619.506835938 l 2
 163.171875 619.506835938 133.16796875 589.56640625 133.16796875 552.716796875 c 2
 133.16796875 348.763671875 l 2
 133.16796875 311.9140625 163.108398438 281.91015625 199.958007812 281.91015625 c 2
 223.500976562 281.91015625 l 2
 260.350585938 281.91015625 290.354492188 311.9140625 290.354492188 348.763671875 c 2
 290.354492188 594.299804688 l 1
 373.522460938 594.299804688 l 1
 373.522460938 348.763671875 l 2
 373.522460938 311.9140625 403.462890625 281.91015625 440.3125 281.91015625 c 2
 463.85546875 281.91015625 l 2
 500.641601562 281.91015625 530.645507812 311.9140625 530.645507812 348.763671875 c 2
 530.645507812 552.716796875 l 2
 530.645507812 589.502929688 500.705078125 619.506835938 463.85546875 619.506835938 c 2
 422.271484375 619.506835938 l 1
 422.271484375 702.73828125 l 1
 463.85546875 702.73828125 l 2
EndSplineSet
EndChar

StartChar: unie012
Encoding: 275 57362 18
Width: 904
GlyphClass: 1
Flags: W
LayerCount: 2
Fore
SplineSet
704.337890625 702.73828125 m 2
 787.057617188 702.73828125 854.359375 635.373046875 854.359375 552.716796875 c 2
 854.359375 108.409179688 l 2
 854.359375 25.689453125 787.057617188 -41.6123046875 704.337890625 -41.6123046875 c 2
 639.2109375 -41.6123046875 l 1
 639.2109375 41.5556640625 l 1
 704.337890625 41.5556640625 l 2
 741.1875 41.5556640625 771.19140625 71.5595703125 771.19140625 108.409179688 c 2
 771.19140625 552.716796875 l 2
 771.19140625 589.502929688 741.1875 619.506835938 704.337890625 619.506835938 c 2
 680.794921875 619.506835938 l 2
 643.9453125 619.506835938 613.94140625 589.56640625 613.94140625 552.716796875 c 2
 613.94140625 108.409179688 l 2
 613.94140625 25.689453125 546.639648438 -41.6123046875 463.919921875 -41.6123046875 c 2
 398.79296875 -41.6123046875 l 1
 398.79296875 41.5556640625 l 1
 463.919921875 41.5556640625 l 2
 500.76953125 41.5556640625 530.7734375 71.5595703125 530.7734375 108.409179688 c 2
 530.7734375 552.716796875 l 2
 530.7734375 589.502929688 500.76953125 619.506835938 463.919921875 619.506835938 c 2
 440.376953125 619.506835938 l 2
 403.52734375 619.506835938 373.5234375 589.56640625 373.5234375 552.716796875 c 2
 373.5234375 108.345703125 l 2
 373.5234375 25.6259765625 306.221679688 -41.67578125 223.565429688 -41.67578125 c 2
 200.022460938 -41.67578125 l 2
 117.302734375 -41.67578125 50.0009765625 25.6259765625 50.0009765625 108.345703125 c 2
 50.0009765625 552.653320312 l 2
 50.0009765625 629.295898438 107.706054688 692.630859375 181.981445312 701.586914062 c 1
 181.981445312 702.802734375 l 1
 241.606445312 701.71484375 l 2
 277.048828125 697.428710938 308.524414062 680.475585938 331.939453125 655.844726562 c 1
 359.256835938 684.569335938 397.641601562 702.73828125 440.376953125 702.73828125 c 2
 463.919921875 702.73828125 l 2
 506.655273438 702.73828125 545.040039062 684.569335938 572.357421875 655.844726562 c 1
 599.73828125 684.569335938 638.059570312 702.73828125 680.794921875 702.73828125 c 2
 704.337890625 702.73828125 l 2
290.418945312 108.41015625 m 2
 290.418945312 552.717773438 l 2
 290.418945312 589.50390625 260.478515625 619.5078125 223.62890625 619.5078125 c 2
 200.0859375 619.5078125 l 2
 163.236328125 619.5078125 133.232421875 589.567382812 133.232421875 552.717773438 c 2
 133.232421875 108.41015625 l 2
 133.232421875 71.560546875 163.236328125 41.556640625 200.0859375 41.556640625 c 2
 223.62890625 41.556640625 l 2
 260.415039062 41.556640625 290.418945312 71.560546875 290.418945312 108.41015625 c 2
EndSplineSet
EndChar

StartChar: unie013
Encoding: 276 57363 19
Width: 664
GlyphClass: 1
Flags: W
LayerCount: 2
Fore
SplineSet
463.85546875 702.73828125 m 2
 546.575195312 702.73828125 613.877929688 635.434570312 613.813476562 552.71484375 c 2
 613.813476562 108.407226562 l 2
 613.813476562 25.6875 546.51171875 -41.6142578125 463.85546875 -41.6142578125 c 2
 422.271484375 -41.6142578125 l 1
 422.271484375 41.5537109375 l 1
 463.85546875 41.5537109375 l 2
 500.641601562 41.5537109375 530.645507812 71.5576171875 530.645507812 108.407226562 c 2
 530.645507812 552.71484375 l 2
 530.645507812 589.500976562 500.705078125 619.504882812 463.85546875 619.504882812 c 2
 440.3125 619.504882812 l 2
 403.526367188 619.504882812 373.522460938 589.564453125 373.522460938 552.71484375 c 2
 373.522460938 108.471679688 l 2
 373.522460938 25.751953125 306.220703125 -41.5498046875 223.500976562 -41.5498046875 c 2
 199.958007812 -41.5498046875 l 2
 117.301757812 -41.5498046875 50 25.751953125 50 108.471679688 c 2
 50 552.779296875 l 2
 50 635.435546875 117.301757812 702.737304688 199.958007812 702.737304688 c 2
 241.541992188 702.737304688 l 1
 241.541992188 619.505859375 l 1
 199.958007812 619.505859375 l 2
 163.171875 619.505859375 133.16796875 589.565429688 133.16796875 552.715820312 c 2
 133.16796875 108.47265625 l 2
 133.16796875 71.623046875 163.108398438 41.619140625 199.958007812 41.619140625 c 2
 223.500976562 41.619140625 l 2
 260.350585938 41.619140625 290.354492188 71.623046875 290.354492188 108.47265625 c 2
 290.354492188 552.780273438 l 2
 290.354492188 635.436523438 357.65625 702.73828125 440.3125 702.73828125 c 2
 463.85546875 702.73828125 l 2
EndSplineSet
EndChar

StartChar: unie014
Encoding: 277 57364 20
Width: 664
GlyphClass: 1
Flags: W
LayerCount: 2
Fore
SplineSet
613.940429688 552.716796875 m 2
 613.301757812 413.891601562 l 1
 613.94140625 413.891601562 l 1
 613.94140625 108.41015625 l 2
 613.94140625 25.6904296875 546.639648438 -41.611328125 463.919921875 -41.611328125 c 2
 200.022460938 -41.611328125 l 2
 117.302734375 -41.611328125 50.0009765625 25.6904296875 50.0009765625 108.41015625 c 2
 50.0009765625 149.994140625 l 1
 133.168945312 149.994140625 l 1
 133.168945312 108.41015625 l 2
 133.168945312 71.560546875 163.172851562 41.556640625 200.022460938 41.556640625 c 2
 463.919921875 41.556640625 l 2
 500.76953125 41.556640625 530.7734375 71.560546875 530.7734375 108.41015625 c 2
 530.7734375 215.184570312 l 1
 510.557617188 205.076171875 488.038085938 198.806640625 463.919921875 198.806640625 c 2
 200.022460938 198.806640625 l 2
 117.302734375 198.806640625 50.0009765625 266.108398438 50.0009765625 348.828125 c 2
 50.0009765625 372.37109375 l 2
 50.0009765625 434.938476562 88.513671875 488.677734375 143.1484375 511.1328125 c 1
 69.896484375 511.1328125 l 1
 69.896484375 552.716796875 l 2
 69.896484375 635.436523438 137.198242188 702.73828125 219.91796875 702.73828125 c 2
 463.918945312 702.73828125 l 2
 546.638671875 702.73828125 613.940429688 635.436523438 613.940429688 552.716796875 c 2
153.064453125 552.717773438 m 2
 153.063476562 514.780273438 l 1
 167.841796875 519.706054688 183.643554688 522.329101562 200.021484375 522.329101562 c 2
 463.918945312 522.329101562 l 2
 487.909179688 522.329101562 510.620117188 516.635742188 530.772460938 506.591796875 c 1
 530.772460938 552.717773438 l 2
 530.772460938 589.567382812 500.768554688 619.571289062 463.918945312 619.571289062 c 2
 219.91796875 619.571289062 l 2
 183.068359375 619.571289062 153.064453125 589.567382812 153.064453125 552.717773438 c 2
463.918945312 281.974609375 m 2
 500.768554688 281.974609375 530.772460938 311.978515625 530.772460938 348.828125 c 2
 530.772460938 372.37109375 l 2
 530.772460938 409.157226562 500.768554688 439.161132812 463.918945312 439.161132812 c 2
 200.021484375 439.161132812 l 2
 163.171875 439.161132812 133.16796875 409.220703125 133.16796875 372.37109375 c 2
 133.16796875 348.828125 l 2
 133.16796875 311.978515625 163.171875 281.974609375 200.021484375 281.974609375 c 2
 463.918945312 281.974609375 l 2
EndSplineSet
EndChar

StartChar: unie015
Encoding: 278 57365 21
Width: 664
GlyphClass: 1
Flags: W
LayerCount: 2
Fore
SplineSet
613.940429688 511.1328125 m 1
 530.708984375 511.134765625 l 1
 530.708984375 552.71875 l 2
 530.708984375 589.504882812 500.705078125 619.508789062 463.85546875 619.508789062 c 2
 440.3125 619.508789062 l 2
 403.526367188 619.508789062 373.522460938 589.568359375 373.522460938 552.71875 c 2
 373.522460938 108.283203125 l 2
 373.522460938 71.4970703125 403.462890625 41.4931640625 440.3125 41.4931640625 c 2
 463.85546875 41.4931640625 l 2
 500.705078125 41.4931640625 530.708984375 71.43359375 530.708984375 108.283203125 c 2
 530.708984375 149.8671875 l 1
 613.876953125 149.8671875 l 1
 613.876953125 108.283203125 l 2
 613.876953125 25.626953125 546.575195312 -41.6748046875 463.85546875 -41.6748046875 c 2
 440.3125 -41.6748046875 l 2
 397.640625 -41.6748046875 359.255859375 -23.505859375 331.938476562 5.21875 c 1
 304.62109375 -23.505859375 266.236328125 -41.6748046875 223.500976562 -41.6748046875 c 2
 199.958007812 -41.6748046875 l 2
 117.301757812 -41.6748046875 50 25.626953125 50 108.283203125 c 2
 50 552.654296875 l 2
 50 629.296875 107.705078125 692.631835938 181.916015625 701.587890625 c 1
 181.916015625 702.739257812 l 1
 241.541015625 701.651367188 l 2
 277.046875 697.365234375 308.522460938 680.412109375 331.9375 655.78125 c 1
 359.319335938 684.505859375 397.640625 702.674804688 440.375976562 702.674804688 c 2
 463.918945312 702.674804688 l 2
 546.638671875 702.674804688 613.940429688 635.373046875 613.940429688 552.716796875 c 2
 613.940429688 511.1328125 l 1
290.41796875 108.34765625 m 2
 290.41796875 552.719726562 l 2
 290.41796875 589.505859375 260.4140625 619.509765625 223.564453125 619.509765625 c 2
 200.021484375 619.509765625 l 2
 163.235351562 619.509765625 133.231445312 589.569335938 133.231445312 552.719726562 c 2
 133.231445312 108.284179688 l 2
 133.231445312 71.498046875 163.171875 41.494140625 200.021484375 41.494140625 c 2
 223.564453125 41.494140625 l 2
 260.4140625 41.494140625 290.41796875 71.498046875 290.41796875 108.34765625 c 2
EndSplineSet
EndChar

StartChar: unie016
Encoding: 279 57366 22
Width: 664
GlyphClass: 1
Flags: W
LayerCount: 2
Fore
SplineSet
200.053710938 702.73828125 m 2
 613.909179688 702.737304688 l 1
 613.909179688 108.47265625 l 2
 613.909179688 25.7529296875 546.607421875 -41.548828125 463.951171875 -41.548828125 c 2
 200.053710938 -41.548828125 l 2
 117.333984375 -41.548828125 50.0322265625 25.7529296875 50.0322265625 108.47265625 c 2
 50.0322265625 150.056640625 l 1
 133.200195312 150.056640625 l 1
 133.200195312 108.47265625 l 2
 133.200195312 71.623046875 163.204101562 41.619140625 200.053710938 41.619140625 c 2
 463.951171875 41.619140625 l 2
 500.737304688 41.619140625 530.741210938 71.623046875 530.741210938 108.47265625 c 2
 530.741210938 215.247070312 l 1
 510.588867188 205.075195312 488.069335938 198.805664062 463.951171875 198.805664062 c 2
 200.053710938 198.805664062 l 2
 117.333984375 198.805664062 50.0322265625 266.107421875 50.0322265625 348.827148438 c 2
 50.0322265625 552.780273438 l 2
 50.0322265625 635.436523438 117.333984375 702.73828125 200.053710938 702.73828125 c 2
530.805664062 413.954101562 m 1
 530.869140625 413.889648438 l 1
 530.869140625 619.505859375 l 1
 200.118164062 619.505859375 l 2
 163.268554688 619.505859375 133.264648438 589.565429688 133.264648438 552.715820312 c 2
 133.264648438 348.827148438 l 2
 133.264648438 311.977539062 163.268554688 281.973632812 200.118164062 281.973632812 c 2
 464.015625 281.973632812 l 2
 500.801757812 281.973632812 530.805664062 311.977539062 530.805664062 348.827148438 c 2
 530.805664062 413.954101562 l 1
EndSplineSet
EndChar

StartChar: unie017
Encoding: 280 57367 23
Width: 664
GlyphClass: 1
Flags: W
LayerCount: 2
Fore
SplineSet
463.85546875 702.73828125 m 1
 463.85546875 702.674804688 l 1
 546.51171875 702.674804688 613.813476562 635.373046875 613.813476562 552.716796875 c 2
 613.813476562 108.409179688 l 2
 613.813476562 25.689453125 546.51171875 -41.6123046875 463.85546875 -41.6123046875 c 2
 199.958007812 -41.6123046875 l 2
 117.301757812 -41.6123046875 50 25.689453125 50 108.409179688 c 2
 50 149.993164062 l 1
 133.16796875 149.993164062 l 1
 133.16796875 108.409179688 l 2
 133.16796875 71.5595703125 163.108398438 41.5556640625 199.958007812 41.5556640625 c 2
 463.85546875 41.5556640625 l 2
 500.641601562 41.5556640625 530.645507812 71.5595703125 530.645507812 108.409179688 c 2
 530.645507812 552.716796875 l 2
 530.645507812 589.502929688 500.705078125 619.506835938 463.85546875 619.506835938 c 2
 357.78515625 619.506835938 l 1
 367.893554688 599.354492188 373.5234375 576.70703125 373.5234375 552.716796875 c 2
 373.5234375 348.700195312 l 2
 373.5234375 265.98046875 306.221679688 198.678710938 223.501953125 198.678710938 c 2
 199.958984375 198.678710938 l 2
 117.302734375 198.678710938 50.0009765625 265.98046875 50.0009765625 348.700195312 c 2
 50.0009765625 552.653320312 l 2
 50.0009765625 629.295898438 107.706054688 692.630859375 181.916992188 701.586914062 c 1
 181.916992188 702.73828125 l 1
 463.85546875 702.73828125 l 1
290.35546875 348.828125 m 2
 290.35546875 552.716796875 l 2
 290.35546875 589.502929688 260.3515625 619.506835938 223.501953125 619.506835938 c 2
 199.958984375 619.506835938 l 2
 163.172851562 619.506835938 133.168945312 589.56640625 133.168945312 552.716796875 c 2
 133.168945312 348.828125 l 2
 133.168945312 311.978515625 163.109375 281.974609375 199.958984375 281.974609375 c 2
 223.501953125 281.974609375 l 2
 260.3515625 281.974609375 290.35546875 311.978515625 290.35546875 348.828125 c 2
EndSplineSet
EndChar

StartChar: unie018
Encoding: 281 57368 24
Width: 664
GlyphClass: 1
Flags: W
LayerCount: 2
Fore
SplineSet
199.958007812 289.01171875 m 1
 200.022460938 289.075195312 l 1
 163.172851562 289.075195312 133.168945312 259.071289062 133.168945312 222.221679688 c 2
 133.168945312 108.473632812 l 2
 133.168945312 71.6875 163.172851562 41.68359375 200.022460938 41.68359375 c 2
 463.919921875 41.68359375 l 2
 500.706054688 41.68359375 530.709960938 71.6240234375 530.709960938 108.473632812 c 2
 530.709960938 150.057617188 l 1
 613.877929688 150.057617188 l 1
 613.877929688 108.473632812 l 2
 613.877929688 25.8173828125 546.576171875 -41.484375 463.919921875 -41.484375 c 2
 200.022460938 -41.484375 l 2
 117.302734375 -41.484375 50.0009765625 25.8173828125 50.0009765625 108.473632812 c 2
 50.0009765625 222.221679688 l 2
 50.0009765625 304.94140625 117.302734375 372.243164062 200.022460938 372.243164062 c 2
 463.919921875 372.243164062 l 2
 500.706054688 372.243164062 530.709960938 402.18359375 530.709960938 439.033203125 c 2
 530.709960938 552.78125 l 2
 530.709960938 589.567382812 500.76953125 619.571289062 463.919921875 619.571289062 c 2
 200.022460938 619.571289062 l 2
 163.172851562 619.571289062 133.168945312 589.630859375 133.168945312 552.78125 c 2
 133.168945312 511.197265625 l 1
 50.0009765625 511.197265625 l 1
 50.0009765625 552.78125 l 2
 50.0009765625 635.4375 117.302734375 702.739257812 200.022460938 702.739257812 c 2
 463.919921875 702.739257812 l 2
 546.576171875 702.739257812 613.877929688 635.4375 613.813476562 552.717773438 c 2
 613.813476562 438.969726562 l 2
 613.813476562 356.313476562 546.51171875 289.01171875 463.85546875 289.01171875 c 2
 199.958007812 289.01171875 l 1
EndSplineSet
EndChar

StartChar: unie019
Encoding: 282 57369 25
Width: 664
GlyphClass: 1
Flags: W
LayerCount: 2
Fore
SplineSet
463.88671875 702.73828125 m 2
 546.606445312 702.73828125 613.909179688 635.436523438 613.844726562 552.716796875 c 2
 613.844726562 -41.5478515625 l 1
 530.676757812 -41.5478515625 l 1
 530.676757812 552.716796875 l 2
 530.676757812 589.56640625 500.736328125 619.5703125 463.88671875 619.5703125 c 2
 440.34375 619.5703125 l 2
 403.494140625 619.5703125 373.490234375 589.56640625 373.490234375 552.716796875 c 2
 373.490234375 -41.5478515625 l 1
 290.322265625 -41.5478515625 l 1
 290.322265625 552.716796875 l 2
 290.322265625 589.56640625 260.381835938 619.5703125 223.532226562 619.5703125 c 2
 199.989257812 619.5703125 l 2
 163.203125 619.5703125 133.19921875 589.56640625 133.19921875 552.716796875 c 2
 133.19921875 511.1328125 l 1
 50.03125 511.1328125 l 1
 50.03125 552.716796875 l 2
 50.03125 635.436523438 117.333007812 702.73828125 199.989257812 702.73828125 c 2
 223.532226562 702.73828125 l 2
 266.204101562 702.73828125 304.588867188 684.569335938 331.90625 655.844726562 c 1
 359.287109375 684.569335938 397.608398438 702.73828125 440.34375 702.73828125 c 2
 463.88671875 702.73828125 l 2
EndSplineSet
EndChar

StartChar: unie01a
Encoding: 283 57370 26
Width: 664
GlyphClass: 1
Flags: W
LayerCount: 2
Fore
SplineSet
463.918945312 702.73828125 m 2
 546.638671875 702.73828125 613.939453125 635.436523438 613.939453125 552.716796875 c 2
 613.939453125 108.473632812 l 2
 613.939453125 25.75390625 546.637695312 -41.5478515625 463.91796875 -41.5478515625 c 2
 440.375 -41.5478515625 l 2
 357.71875 -41.5478515625 290.416992188 25.75390625 290.416992188 108.473632812 c 2
 290.416992188 552.716796875 l 2
 290.416992188 589.56640625 260.413085938 619.5703125 223.563476562 619.5703125 c 2
 200.020507812 619.5703125 l 2
 163.170898438 619.5703125 133.166992188 589.56640625 133.166992188 552.716796875 c 2
 133.166992188 108.473632812 l 2
 133.166992188 71.6240234375 163.170898438 41.6201171875 200.020507812 41.6201171875 c 2
 241.604492188 41.6201171875 l 1
 241.604492188 -41.5478515625 l 1
 200.020507812 -41.5478515625 l 2
 117.30078125 -41.5478515625 49.9990234375 25.75390625 49.9990234375 108.473632812 c 2
 49.9990234375 552.716796875 l 2
 49.9990234375 635.436523438 117.30078125 702.73828125 200.020507812 702.73828125 c 2
 223.563476562 702.73828125 l 2
 306.283203125 702.73828125 373.521484375 635.436523438 373.5859375 552.716796875 c 2
 373.5859375 108.473632812 l 2
 373.5859375 71.6240234375 403.526367188 41.6201171875 440.375976562 41.6201171875 c 2
 463.918945312 41.6201171875 l 2
 500.768554688 41.6201171875 530.772460938 71.6240234375 530.772460938 108.473632812 c 2
 530.772460938 552.716796875 l 2
 530.772460938 589.56640625 500.768554688 619.5703125 463.918945312 619.5703125 c 2
 422.334960938 619.5703125 l 1
 422.334960938 702.73828125 l 1
 463.918945312 702.73828125 l 2
EndSplineSet
EndChar

StartChar: unie01b
Encoding: 284 57371 27
Width: 664
GlyphClass: 1
Flags: W
LayerCount: 2
Fore
SplineSet
463.85546875 702.73828125 m 2
 546.51171875 702.73828125 613.813476562 635.436523438 613.813476562 552.716796875 c 2
 613.813476562 108.409179688 l 2
 613.813476562 25.689453125 546.51171875 -41.6123046875 463.85546875 -41.6123046875 c 2
 199.958007812 -41.6123046875 l 2
 117.301757812 -41.6123046875 50 25.689453125 50 108.409179688 c 2
 50 149.993164062 l 1
 133.16796875 149.993164062 l 1
 133.16796875 108.409179688 l 2
 133.16796875 71.5595703125 163.108398438 41.5556640625 199.958007812 41.5556640625 c 2
 463.85546875 41.5556640625 l 2
 500.641601562 41.5556640625 530.645507812 71.5595703125 530.645507812 108.409179688 c 2
 530.645507812 552.716796875 l 2
 530.645507812 589.56640625 500.705078125 619.5703125 463.85546875 619.5703125 c 2
 199.958007812 619.5703125 l 2
 163.171875 619.5703125 133.16796875 589.56640625 133.16796875 552.716796875 c 2
 133.16796875 511.1328125 l 1
 50 511.1328125 l 1
 50 552.716796875 l 2
 50 635.436523438 117.301757812 702.73828125 199.958007812 702.73828125 c 2
 463.85546875 702.73828125 l 2
EndSplineSet
EndChar

StartChar: unie01c
Encoding: 285 57372 28
Width: 664
GlyphClass: 1
Flags: W
LayerCount: 2
Fore
SplineSet
290.290039062 348.764648438 m 1
 290.354492188 348.764648438 l 1
 290.354492188 552.717773438 l 2
 290.354492188 576.708007812 296.047851562 599.418945312 306.091796875 619.571289062 c 1
 200.021484375 619.571289062 l 2
 163.171875 619.571289062 133.16796875 589.567382812 133.16796875 552.717773438 c 2
 133.16796875 108.41015625 l 2
 133.16796875 71.560546875 163.171875 41.556640625 200.021484375 41.556640625 c 2
 463.918945312 41.556640625 l 2
 500.768554688 41.556640625 530.772460938 71.560546875 530.772460938 108.41015625 c 2
 530.772460938 149.994140625 l 1
 613.940429688 149.994140625 l 1
 613.940429688 108.41015625 l 2
 613.940429688 25.6904296875 546.638671875 -41.611328125 463.918945312 -41.611328125 c 2
 200.021484375 -41.611328125 l 2
 117.301757812 -41.611328125 50 25.6904296875 50 108.41015625 c 2
 50 552.717773438 l 2
 50 635.4375 117.301757812 702.739257812 200.021484375 702.739257812 c 2
 481.959960938 701.651367188 l 1
 556.170898438 692.6953125 613.875976562 629.295898438 613.875976562 552.717773438 c 2
 613.875976562 348.764648438 l 2
 613.875976562 266.044921875 546.57421875 198.743164062 463.854492188 198.743164062 c 2
 440.311523438 198.743164062 l 2
 357.591796875 198.743164062 290.290039062 266.044921875 290.290039062 348.764648438 c 1
373.458007812 552.716796875 m 2
 373.458007812 348.763671875 l 2
 373.458007812 311.9140625 403.461914062 281.91015625 440.311523438 281.91015625 c 2
 463.854492188 281.91015625 l 2
 500.704101562 281.91015625 530.708007812 311.9140625 530.708007812 348.763671875 c 2
 530.708007812 552.716796875 l 2
 530.708007812 589.56640625 500.704101562 619.5703125 463.854492188 619.5703125 c 2
 440.311523438 619.5703125 l 2
 403.461914062 619.5703125 373.458007812 589.56640625 373.458007812 552.716796875 c 2
EndSplineSet
EndChar

StartChar: unie01d
Encoding: 286 57373 29
Width: 664
GlyphClass: 1
Flags: W
LayerCount: 2
Fore
SplineSet
463.85546875 702.73828125 m 2
 546.575195312 702.73828125 613.877929688 635.436523438 613.877929688 552.716796875 c 2
 613.877929688 -41.6123046875 l 1
 530.709960938 -41.6123046875 l 1
 530.709960938 544.080078125 l 1
 125.427734375 -24.146484375 l 1
 57.677734375 24.154296875 l 1
 480.041015625 616.307617188 l 1
 474.731445312 617.651367188 469.61328125 619.5703125 463.85546875 619.5703125 c 2
 199.958007812 619.5703125 l 2
 163.171875 619.5703125 133.16796875 589.56640625 133.16796875 552.716796875 c 2
 133.16796875 511.1328125 l 1
 50 511.1328125 l 1
 50 552.716796875 l 2
 50 635.436523438 117.301757812 702.73828125 199.958007812 702.73828125 c 2
 463.85546875 702.73828125 l 2
EndSplineSet
EndChar

StartChar: unie01e
Encoding: 287 57374 30
Width: 664
GlyphClass: 1
Flags: W
LayerCount: 2
Fore
SplineSet
530.7734375 149.993164062 m 1
 613.94140625 149.993164062 l 1
 613.94140625 108.409179688 l 2
 613.94140625 25.689453125 546.639648438 -41.6123046875 463.919921875 -41.6123046875 c 2
 440.376953125 -41.6123046875 l 2
 397.641601562 -41.6123046875 359.256835938 -23.443359375 331.939453125 5.28125 c 1
 304.622070312 -23.443359375 266.237304688 -41.6123046875 223.565429688 -41.6123046875 c 2
 200.022460938 -41.6123046875 l 2
 117.302734375 -41.6123046875 50.0009765625 25.689453125 50.0009765625 108.409179688 c 2
 50.0009765625 702.73828125 l 1
 133.168945312 702.73828125 l 1
 133.168945312 108.409179688 l 2
 133.168945312 71.5595703125 163.172851562 41.5556640625 200.022460938 41.5556640625 c 2
 223.565429688 41.5556640625 l 2
 260.3515625 41.5556640625 290.35546875 71.5595703125 290.35546875 108.409179688 c 2
 290.35546875 702.73828125 l 1
 373.5234375 702.73828125 l 1
 373.5234375 108.409179688 l 2
 373.5234375 71.5595703125 403.52734375 41.5556640625 440.376953125 41.5556640625 c 2
 463.919921875 41.5556640625 l 2
 500.76953125 41.5556640625 530.7734375 71.5595703125 530.7734375 108.409179688 c 2
 530.7734375 149.993164062 l 1
EndSplineSet
EndChar

StartChar: unie01f
Encoding: 288 57375 31
Width: 664
GlyphClass: 1
Flags: W
LayerCount: 2
Fore
SplineSet
463.88671875 702.674804688 m 1
 463.88671875 702.611328125 l 1
 546.606445312 702.611328125 613.908203125 635.309570312 613.908203125 552.653320312 c 2
 613.908203125 108.41015625 l 2
 613.908203125 25.6904296875 546.606445312 -41.611328125 463.88671875 -41.611328125 c 2
 199.989257812 -41.611328125 l 2
 117.333007812 -41.611328125 50.03125 25.6904296875 50.03125 108.41015625 c 2
 50.03125 149.994140625 l 1
 133.19921875 149.994140625 l 1
 133.19921875 108.41015625 l 2
 133.19921875 71.560546875 163.139648438 41.556640625 199.989257812 41.556640625 c 2
 463.88671875 41.556640625 l 2
 500.736328125 41.556640625 530.740234375 71.560546875 530.740234375 108.41015625 c 2
 530.740234375 552.653320312 l 2
 530.740234375 589.439453125 500.736328125 619.443359375 463.88671875 619.443359375 c 2
 199.989257812 619.443359375 l 2
 163.203125 619.443359375 133.19921875 589.502929688 133.19921875 552.653320312 c 2
 133.19921875 198.806640625 l 1
 50.03125 198.806640625 l 1
 50.03125 702.674804688 l 1
 133.19921875 702.674804688 l 1
 133.19921875 686.233398438 l 1
 153.3515625 696.405273438 175.87109375 702.674804688 199.989257812 702.674804688 c 2
 463.88671875 702.674804688 l 1
EndSplineSet
EndChar

StartChar: unie020
Encoding: 289 57376 32
Width: 664
GlyphClass: 1
Flags: W
LayerCount: 2
Fore
SplineSet
613.876953125 619.506835938 m 1
 133.16796875 619.506835938 l 1
 133.16796875 108.41015625 l 2
 133.16796875 71.560546875 163.171875 41.556640625 200.021484375 41.556640625 c 2
 463.918945312 41.556640625 l 2
 500.705078125 41.556640625 530.708984375 71.560546875 530.708984375 108.41015625 c 2
 530.708984375 149.994140625 l 1
 613.876953125 149.994140625 l 1
 613.876953125 108.41015625 l 2
 613.876953125 25.6904296875 546.575195312 -41.611328125 463.918945312 -41.611328125 c 2
 200.021484375 -41.611328125 l 2
 117.301757812 -41.611328125 50 25.6904296875 50 108.41015625 c 2
 50 702.674804688 l 1
 613.876953125 702.674804688 l 1
 613.876953125 619.506835938 l 1
EndSplineSet
EndChar

StartChar: unie021
Encoding: 290 57377 33
Width: 664
GlyphClass: 1
Flags: W
LayerCount: 2
Fore
SplineSet
530.7734375 149.993164062 m 1
 613.876953125 149.993164062 l 1
 613.876953125 108.409179688 l 2
 613.876953125 25.689453125 546.575195312 -41.6123046875 463.85546875 -41.6123046875 c 2
 199.958007812 -41.6123046875 l 2
 117.301757812 -41.6123046875 50 25.689453125 50 108.409179688 c 2
 50 702.673828125 l 1
 133.16796875 702.673828125 l 1
 133.16796875 117.045898438 l 1
 538.450195312 685.208984375 l 1
 606.200195312 636.908203125 l 1
 183.836914062 44.818359375 l 1
 189.146484375 43.474609375 194.264648438 41.5556640625 200.022460938 41.5556640625 c 2
 463.919921875 41.5556640625 l 2
 500.76953125 41.5556640625 530.7734375 71.5595703125 530.7734375 108.409179688 c 2
 530.7734375 149.993164062 l 1
EndSplineSet
EndChar

StartChar: unie022
Encoding: 291 57378 34
Width: 664
GlyphClass: 1
Flags: W
LayerCount: 2
Fore
SplineSet
463.951171875 702.73828125 m 1
 463.951171875 702.673828125 l 1
 546.607421875 702.673828125 613.909179688 635.372070312 613.909179688 552.65234375 c 2
 613.909179688 108.409179688 l 2
 613.909179688 25.689453125 546.607421875 -41.6123046875 463.951171875 -41.6123046875 c 2
 422.3671875 -41.6123046875 l 1
 422.3671875 41.5556640625 l 1
 463.951171875 41.5556640625 l 2
 500.737304688 41.5556640625 530.741210938 71.5595703125 530.741210938 108.409179688 c 2
 530.741210938 552.65234375 l 2
 530.741210938 589.501953125 500.80078125 619.505859375 463.951171875 619.505859375 c 2
 440.408203125 619.505859375 l 2
 403.55859375 619.505859375 373.5546875 589.501953125 373.5546875 552.65234375 c 2
 373.5546875 66.8251953125 l 1
 290.38671875 66.8251953125 l 1
 290.38671875 552.65234375 l 2
 290.38671875 589.501953125 260.446289062 619.505859375 223.596679688 619.505859375 c 2
 200.053710938 619.505859375 l 2
 163.204101562 619.505859375 133.200195312 589.501953125 133.200195312 552.65234375 c 2
 133.200195312 108.473632812 l 2
 133.200195312 71.6240234375 163.204101562 41.6201171875 200.053710938 41.6201171875 c 2
 241.637695312 41.6201171875 l 1
 241.637695312 -41.5478515625 l 1
 200.053710938 -41.5478515625 l 2
 117.333984375 -41.5478515625 50.0322265625 25.75390625 50.0322265625 108.473632812 c 2
 50.0322265625 552.716796875 l 2
 50.0322265625 635.436523438 117.333984375 702.73828125 200.053710938 702.73828125 c 2
 223.596679688 702.73828125 l 2
 266.268554688 702.73828125 304.653320312 684.569335938 331.970703125 655.844726562 c 1
 359.3515625 684.569335938 397.672851562 702.73828125 440.408203125 702.73828125 c 2
 463.951171875 702.73828125 l 1
EndSplineSet
EndChar

StartChar: unie023
Encoding: 292 57379 35
Width: 664
GlyphClass: 1
Flags: W
LayerCount: 2
Fore
SplineSet
613.876953125 511.1328125 m 1
 530.708984375 511.1328125 l 1
 530.708984375 552.716796875 l 2
 530.708984375 589.502929688 500.705078125 619.506835938 463.85546875 619.506835938 c 2
 199.958007812 619.506835938 l 2
 163.171875 619.506835938 133.16796875 589.56640625 133.16796875 552.716796875 c 2
 133.16796875 438.96875 l 2
 133.16796875 402.182617188 163.108398438 372.178710938 199.958007812 372.178710938 c 2
 463.85546875 372.178710938 l 2
 546.575195312 372.178710938 613.876953125 304.876953125 613.876953125 222.157226562 c 2
 613.876953125 108.473632812 l 2
 613.876953125 25.75390625 546.575195312 -41.5478515625 463.85546875 -41.5478515625 c 2
 199.958007812 -41.5478515625 l 2
 117.301757812 -41.5478515625 50 25.75390625 50 108.473632812 c 2
 50 150.057617188 l 1
 133.16796875 150.057617188 l 1
 133.16796875 108.473632812 l 2
 133.16796875 71.6240234375 163.108398438 41.6201171875 199.958007812 41.6201171875 c 2
 463.85546875 41.6201171875 l 2
 500.705078125 41.6201171875 530.708984375 71.6240234375 530.708984375 108.473632812 c 2
 530.708984375 222.157226562 l 2
 530.708984375 259.006835938 500.705078125 289.010742188 463.85546875 289.010742188 c 2
 199.958007812 289.010742188 l 2
 117.301757812 289.010742188 50 356.3125 50 438.96875 c 2
 50 552.716796875 l 2
 50 635.373046875 117.301757812 702.674804688 199.958007812 702.674804688 c 2
 463.85546875 702.674804688 l 2
 546.575195312 702.674804688 613.876953125 635.373046875 613.876953125 552.716796875 c 2
 613.876953125 511.1328125 l 1
EndSplineSet
EndChar

StartChar: unie024
Encoding: 293 57380 36
Width: 664
GlyphClass: 1
Flags: W
LayerCount: 2
Fore
SplineSet
463.85546875 702.73828125 m 1
 463.85546875 702.673828125 l 1
 546.51171875 702.673828125 613.813476562 635.372070312 613.813476562 552.65234375 c 2
 613.813476562 108.473632812 l 2
 613.813476562 25.75390625 546.51171875 -41.5478515625 463.85546875 -41.5478515625 c 2
 199.958007812 -41.5478515625 l 2
 117.301757812 -41.5478515625 50 25.75390625 50 108.473632812 c 2
 50 552.716796875 l 2
 50 635.436523438 117.301757812 702.73828125 199.958007812 702.73828125 c 2
 463.85546875 702.73828125 l 1
199.958007812 619.5703125 m 1
 199.893554688 619.505859375 l 1
 163.107421875 619.505859375 133.103515625 589.501953125 133.103515625 552.65234375 c 2
 133.103515625 118.453125 l 1
 480.48828125 616.1796875 l 1
 475.05078125 617.651367188 469.741210938 619.5703125 463.85546875 619.5703125 c 2
 199.958007812 619.5703125 l 1
199.95703125 41.619140625 m 2
 463.918945312 41.6201171875 l 2
 500.705078125 41.6201171875 530.708984375 71.6240234375 530.708984375 108.473632812 c 2
 530.708984375 542.736328125 l 1
 183.32421875 45.009765625 l 1
 188.76171875 43.5380859375 194.071289062 41.619140625 199.95703125 41.619140625 c 2
EndSplineSet
EndChar

StartChar: unie025
Encoding: 294 57381 37
Width: 664
GlyphClass: 1
Flags: W
LayerCount: 2
Fore
SplineSet
463.85546875 702.73828125 m 2
 546.575195312 702.73828125 613.876953125 635.436523438 613.876953125 552.716796875 c 2
 613.876953125 511.1328125 l 1
 530.708984375 511.1328125 l 1
 530.708984375 552.716796875 l 2
 530.708984375 589.56640625 500.705078125 619.5703125 463.85546875 619.5703125 c 2
 440.3125 619.5703125 l 2
 403.526367188 619.5703125 373.522460938 589.56640625 373.522460938 552.716796875 c 2
 373.522460938 -41.6123046875 l 1
 290.354492188 -41.6123046875 l 1
 290.354492188 552.716796875 l 2
 290.354492188 589.56640625 260.350585938 619.5703125 223.500976562 619.5703125 c 2
 199.958007812 619.5703125 l 2
 163.171875 619.5703125 133.16796875 589.56640625 133.16796875 552.716796875 c 2
 133.16796875 -41.6123046875 l 1
 50 -41.6123046875 l 1
 50 552.716796875 l 2
 50 635.436523438 117.301757812 702.73828125 199.958007812 702.73828125 c 2
 223.500976562 702.73828125 l 2
 266.236328125 702.73828125 304.62109375 684.569335938 331.938476562 655.844726562 c 1
 359.255859375 684.569335938 397.640625 702.73828125 440.3125 702.73828125 c 2
 463.85546875 702.73828125 l 2
EndSplineSet
EndChar

StartChar: unie026
Encoding: 295 57382 38
Width: 664
GlyphClass: 1
Flags: W
LayerCount: 2
Fore
SplineSet
463.951171875 702.73828125 m 1
 463.952148438 702.672851562 l 1
 546.608398438 702.672851562 613.91015625 635.37109375 613.91015625 552.71484375 c 2
 613.91015625 108.536132812 l 2
 613.91015625 25.81640625 546.608398438 -41.4853515625 463.952148438 -41.4853515625 c 2
 200.0546875 -41.4853515625 l 2
 117.334960938 -41.4853515625 50.033203125 25.81640625 50.033203125 108.536132812 c 2
 50.033203125 372.43359375 l 2
 50.033203125 455.08984375 117.334960938 522.391601562 200.0546875 522.391601562 c 2
 463.952148438 522.391601562 l 2
 488.0703125 522.391601562 510.525390625 516.122070312 530.741210938 505.950195312 c 1
 530.741210938 552.780273438 l 2
 530.741210938 589.56640625 500.80078125 619.5703125 463.951171875 619.5703125 c 2
 200.053710938 619.5703125 l 2
 163.204101562 619.5703125 133.200195312 589.629882812 133.200195312 552.780273438 c 2
 133.200195312 511.196289062 l 1
 50.0322265625 511.196289062 l 1
 50.0322265625 552.780273438 l 2
 50.0322265625 635.436523438 117.333984375 702.73828125 200.053710938 702.73828125 c 2
 463.951171875 702.73828125 l 1
133.201171875 372.369140625 m 2
 133.200195312 108.407226562 l 2
 133.200195312 106.040039062 134.288085938 104.056640625 134.543945312 101.75390625 c 1
 470.60546875 437.815429688 l 1
 468.302734375 438.071289062 466.319335938 439.159179688 463.952148438 439.159179688 c 2
 200.0546875 439.159179688 l 2
 163.205078125 439.159179688 133.201171875 409.21875 133.201171875 372.369140625 c 2
530.805664062 108.470703125 m 2
 530.805664062 372.369140625 l 2
 530.805664062 374.736328125 529.717773438 376.783203125 529.461914062 379.0859375 c 1
 193.336914062 42.9609375 l 1
 195.704101562 42.7685546875 197.750976562 41.6171875 200.118164062 41.6171875 c 2
 464.015625 41.6171875 l 2
 500.801757812 41.6171875 530.805664062 71.62109375 530.805664062 108.470703125 c 2
EndSplineSet
EndChar

StartChar: unie027
Encoding: 296 57383 39
Width: 664
GlyphClass: 1
Flags: W
LayerCount: 2
Fore
SplineSet
613.844726562 511.1328125 m 1
 530.677734375 511.1328125 l 1
 530.677734375 552.716796875 l 2
 530.677734375 589.502929688 500.737304688 619.506835938 463.887695312 619.506835938 c 2
 440.344726562 619.506835938 l 2
 403.55859375 619.506835938 373.5546875 589.56640625 373.5546875 552.716796875 c 2
 373.5546875 108.473632812 l 2
 373.5546875 71.6240234375 403.495117188 41.6201171875 440.344726562 41.6201171875 c 2
 463.887695312 41.6201171875 l 2
 500.673828125 41.6201171875 530.677734375 71.6240234375 530.677734375 108.473632812 c 2
 530.677734375 150.057617188 l 1
 613.845703125 150.057617188 l 1
 613.845703125 108.473632812 l 2
 613.845703125 25.75390625 546.543945312 -41.5478515625 463.887695312 -41.5478515625 c 2
 440.344726562 -41.5478515625 l 2
 397.672851562 -41.5478515625 359.288085938 -23.37890625 331.970703125 5.345703125 c 1
 304.588867188 -23.37890625 266.267578125 -41.5478515625 223.532226562 -41.5478515625 c 2
 199.989257812 -41.5478515625 l 2
 117.333007812 -41.5478515625 50.03125 25.75390625 50.03125 108.473632812 c 2
 50.03125 150.057617188 l 1
 133.19921875 150.057617188 l 1
 133.19921875 108.473632812 l 2
 133.19921875 71.6240234375 163.139648438 41.6201171875 199.989257812 41.6201171875 c 2
 223.532226562 41.6201171875 l 2
 260.381835938 41.6201171875 290.385742188 71.6240234375 290.385742188 108.473632812 c 2
 290.385742188 552.716796875 l 2
 290.385742188 589.502929688 260.381835938 619.506835938 223.532226562 619.506835938 c 2
 199.989257812 619.506835938 l 2
 163.203125 619.506835938 133.19921875 589.56640625 133.19921875 552.716796875 c 2
 133.19921875 511.1328125 l 1
 50.03125 511.1328125 l 1
 50.03125 552.716796875 l 2
 50.03125 635.373046875 117.333007812 702.674804688 199.989257812 702.674804688 c 2
 223.532226562 702.674804688 l 2
 266.267578125 702.674804688 304.65234375 684.505859375 331.969726562 655.78125 c 1
 359.287109375 684.505859375 397.671875 702.674804688 440.34375 702.674804688 c 2
 463.88671875 702.674804688 l 2
 546.54296875 702.674804688 613.844726562 635.373046875 613.844726562 552.716796875 c 2
 613.844726562 511.1328125 l 1
EndSplineSet
EndChar

StartChar: unie028
Encoding: 297 57384 40
Width: 664
GlyphClass: 1
Flags: W
LayerCount: 2
Fore
SplineSet
463.918945312 702.744140625 m 2
 546.638671875 702.744140625 613.940429688 635.442382812 613.940429688 552.72265625 c 2
 613.940429688 108.415039062 l 2
 613.940429688 25.7587890625 546.638671875 -41.54296875 463.918945312 -41.54296875 c 2
 200.021484375 -41.54296875 l 2
 117.301757812 -41.54296875 50 25.7587890625 50 108.415039062 c 2
 50 149.999023438 l 1
 133.16796875 149.999023438 l 1
 133.16796875 108.415039062 l 2
 133.16796875 71.62890625 163.171875 41.625 200.021484375 41.625 c 2
 463.918945312 41.625 l 2
 500.768554688 41.625 530.772460938 71.5654296875 530.772460938 108.415039062 c 2
 530.772460938 214.549804688 l 1
 510.620117188 204.44140625 487.909179688 198.811523438 463.918945312 198.811523438 c 2
 200.021484375 198.811523438 l 2
 117.301757812 198.811523438 50 266.11328125 50 348.76953125 c 2
 50 552.72265625 l 2
 50 635.442382812 117.301757812 702.744140625 200.021484375 702.744140625 c 2
 463.918945312 702.744140625 l 2
530.772460938 348.76953125 m 2
 530.772460938 552.72265625 l 2
 530.772460938 589.572265625 500.768554688 619.576171875 463.918945312 619.576171875 c 2
 200.021484375 619.576171875 l 2
 163.171875 619.576171875 133.16796875 589.572265625 133.16796875 552.72265625 c 2
 133.16796875 348.76953125 l 2
 133.16796875 311.983398438 163.171875 281.979492188 200.021484375 281.979492188 c 2
 463.918945312 281.979492188 l 2
 500.768554688 281.979492188 530.772460938 311.919921875 530.772460938 348.76953125 c 2
EndSplineSet
EndChar

StartChar: unie029
Encoding: 298 57385 41
Width: 664
GlyphClass: 1
Flags: W
LayerCount: 2
Fore
SplineSet
199.958007812 198.8125 m 2
 175.967773438 198.8125 153.3203125 204.506835938 133.16796875 214.55078125 c 1
 133.16796875 108.416015625 l 2
 133.16796875 71.6298828125 163.108398438 41.6259765625 199.958007812 41.6259765625 c 2
 463.85546875 41.6259765625 l 2
 500.641601562 41.6259765625 530.645507812 71.56640625 530.645507812 108.416015625 c 2
 530.645507812 150 l 1
 613.813476562 150 l 1
 613.813476562 108.416015625 l 2
 613.813476562 25.759765625 546.51171875 -41.5419921875 463.85546875 -41.5419921875 c 2
 199.958007812 -41.5419921875 l 2
 117.301757812 -41.5419921875 50 25.759765625 50 108.416015625 c 2
 50 552.723632812 l 2
 50 635.443359375 117.301757812 702.745117188 199.958007812 702.745117188 c 2
 463.85546875 702.745117188 l 2
 546.51171875 702.745117188 613.813476562 635.443359375 613.813476562 552.723632812 c 2
 613.813476562 348.770507812 l 2
 613.813476562 266.114257812 546.51171875 198.8125 463.85546875 198.8125 c 2
 199.958007812 198.8125 l 2
133.16796875 552.723632812 m 2
 133.16796875 348.770507812 l 2
 133.16796875 311.984375 163.108398438 281.98046875 199.958007812 281.98046875 c 2
 463.85546875 281.98046875 l 2
 500.641601562 281.98046875 530.645507812 311.920898438 530.645507812 348.770507812 c 2
 530.645507812 552.723632812 l 2
 530.645507812 589.573242188 500.705078125 619.577148438 463.85546875 619.577148438 c 2
 199.958007812 619.577148438 l 2
 163.171875 619.577148438 133.16796875 589.573242188 133.16796875 552.723632812 c 2
EndSplineSet
EndChar

StartChar: unie02a
Encoding: 299 57386 42
Width: 664
GlyphClass: 1
Flags: W
LayerCount: 2
Fore
SplineSet
463.918945312 702.744140625 m 2
 546.638671875 702.744140625 613.940429688 635.442382812 613.940429688 552.72265625 c 2
 613.940429688 108.415039062 l 2
 613.940429688 25.7587890625 546.638671875 -41.54296875 463.918945312 -41.54296875 c 2
 200.021484375 -41.54296875 l 2
 117.301757812 -41.54296875 50 25.7587890625 50 108.415039062 c 2
 50 149.999023438 l 1
 133.16796875 149.999023438 l 1
 133.16796875 108.415039062 l 2
 133.16796875 71.62890625 163.171875 41.625 200.021484375 41.625 c 2
 463.918945312 41.625 l 2
 500.768554688 41.625 530.772460938 71.5654296875 530.772460938 108.415039062 c 2
 530.772460938 552.72265625 l 2
 530.772460938 589.572265625 500.768554688 619.576171875 463.918945312 619.576171875 c 2
 200.021484375 619.576171875 l 2
 163.171875 619.576171875 133.16796875 589.572265625 133.16796875 552.72265625 c 2
 133.16796875 511.138671875 l 1
 50 511.138671875 l 1
 50 552.72265625 l 2
 50 635.442382812 117.301757812 702.744140625 200.021484375 702.744140625 c 2
 463.918945312 702.744140625 l 2
EndSplineSet
EndChar

StartChar: unie02b
Encoding: 300 57387 43
Width: 664
GlyphClass: 1
Flags: W
LayerCount: 2
Fore
SplineSet
613.876953125 511.138671875 m 1
 530.708984375 511.138671875 l 1
 530.708984375 552.72265625 l 2
 530.708984375 589.572265625 500.705078125 619.576171875 463.85546875 619.576171875 c 2
 199.958007812 619.576171875 l 2
 163.171875 619.576171875 133.16796875 589.572265625 133.16796875 552.72265625 c 2
 133.16796875 108.415039062 l 2
 133.16796875 71.62890625 163.108398438 41.625 199.958007812 41.625 c 2
 463.85546875 41.625 l 2
 500.705078125 41.625 530.708984375 71.5654296875 530.708984375 108.415039062 c 2
 530.708984375 149.999023438 l 1
 613.876953125 149.999023438 l 1
 613.876953125 108.415039062 l 2
 613.876953125 25.7587890625 546.575195312 -41.54296875 463.85546875 -41.54296875 c 2
 199.958007812 -41.54296875 l 2
 117.301757812 -41.54296875 50 25.7587890625 50 108.415039062 c 2
 50 552.72265625 l 2
 50 635.442382812 117.301757812 702.744140625 199.958007812 702.744140625 c 2
 463.85546875 702.744140625 l 2
 546.575195312 702.744140625 613.876953125 635.442382812 613.876953125 552.72265625 c 2
 613.876953125 511.138671875 l 1
EndSplineSet
EndChar

StartChar: unie02c
Encoding: 301 57388 44
Width: 183
GlyphClass: 1
Flags: W
LayerCount: 2
Fore
SplineSet
133.16796875 -41.5419921875 m 1
 50 -41.5419921875 l 1
 50 702.744140625 l 1
 133.16796875 702.744140625 l 1
 133.16796875 -41.5419921875 l 1
EndSplineSet
EndChar

StartChar: unie02d
Encoding: 302 57389 45
Width: 664
GlyphClass: 1
Flags: W
LayerCount: 2
Fore
SplineSet
613.876953125 198.8125 m 1
 50 198.8125 l 1
 50 281.98046875 l 1
 613.876953125 281.98046875 l 1
 613.876953125 198.8125 l 1
EndSplineSet
EndChar

StartChar: unie02e
Encoding: 303 57390 46
Width: 664
GlyphClass: 1
Flags: W
LayerCount: 2
Fore
SplineSet
530.708984375 108.416015625 m 2
 530.708984375 150 l 1
 613.876953125 150 l 1
 613.876953125 108.416015625 l 2
 613.876953125 25.759765625 546.575195312 -41.5419921875 463.85546875 -41.5419921875 c 2
 199.958007812 -41.5419921875 l 2
 117.301757812 -41.5419921875 50 25.759765625 50 108.416015625 c 2
 50 150 l 1
 133.16796875 150 l 1
 133.16796875 108.416015625 l 2
 133.16796875 71.6298828125 163.108398438 41.6259765625 199.958007812 41.6259765625 c 2
 463.85546875 41.6259765625 l 2
 500.705078125 41.6259765625 530.708984375 71.56640625 530.708984375 108.416015625 c 2
463.85546875 702.745117188 m 2
 546.575195312 702.745117188 613.876953125 635.443359375 613.876953125 552.723632812 c 2
 613.876953125 511.139648438 l 1
 530.708984375 511.139648438 l 1
 530.708984375 552.723632812 l 2
 530.708984375 589.573242188 500.705078125 619.577148438 463.85546875 619.577148438 c 2
 199.958007812 619.577148438 l 2
 163.171875 619.577148438 133.16796875 589.573242188 133.16796875 552.723632812 c 2
 133.16796875 511.139648438 l 1
 50 511.139648438 l 1
 50 552.723632812 l 2
 50 635.443359375 117.301757812 702.745117188 199.958007812 702.745117188 c 2
 463.85546875 702.745117188 l 2
EndSplineSet
EndChar

StartChar: unie02f
Encoding: 304 57391 47
Width: 664
GlyphClass: 1
Flags: W
LayerCount: 2
Fore
SplineSet
613.940429688 511.138671875 m 1
 530.772460938 511.138671875 l 1
 530.772460938 552.72265625 l 2
 530.772460938 589.572265625 500.768554688 619.576171875 463.918945312 619.576171875 c 2
 373.522460938 619.576171875 l 1
 373.522460938 41.5615234375 l 1
 463.918945312 41.5615234375 l 2
 500.768554688 41.5615234375 530.772460938 71.501953125 530.772460938 108.3515625 c 2
 530.772460938 149.935546875 l 1
 613.940429688 149.935546875 l 1
 613.940429688 108.3515625 l 2
 613.940429688 25.6953125 546.638671875 -41.6064453125 463.918945312 -41.6064453125 c 2
 200.021484375 -41.6064453125 l 2
 117.301757812 -41.6064453125 50 25.6953125 50 108.3515625 c 2
 50 149.935546875 l 1
 133.16796875 149.935546875 l 1
 133.16796875 108.3515625 l 2
 133.16796875 71.5654296875 163.171875 41.5615234375 200.021484375 41.5615234375 c 2
 290.41796875 41.5615234375 l 1
 290.41796875 619.576171875 l 1
 200.021484375 619.576171875 l 2
 163.171875 619.576171875 133.16796875 589.572265625 133.16796875 552.72265625 c 2
 133.16796875 511.138671875 l 1
 50 511.138671875 l 1
 50 552.72265625 l 2
 50 635.442382812 117.301757812 702.744140625 200.021484375 702.744140625 c 2
 463.918945312 702.744140625 l 2
 546.638671875 702.744140625 613.940429688 635.442382812 613.940429688 552.72265625 c 2
 613.940429688 511.138671875 l 1
EndSplineSet
EndChar

StartChar: unie030
Encoding: 305 57392 48
Width: 664
GlyphClass: 1
Flags: W
LayerCount: 2
Fore
SplineSet
463.918945312 702.744140625 m 2
 546.638671875 702.744140625 613.940429688 635.442382812 613.940429688 552.72265625 c 2
 613.940429688 108.415039062 l 2
 613.940429688 25.7587890625 546.638671875 -41.54296875 463.918945312 -41.54296875 c 2
 200.021484375 -41.54296875 l 2
 117.301757812 -41.54296875 50 25.7587890625 50 108.415039062 c 2
 50 149.999023438 l 1
 133.16796875 149.999023438 l 1
 133.16796875 108.415039062 l 2
 133.16796875 71.62890625 163.171875 41.625 200.021484375 41.625 c 2
 463.918945312 41.625 l 2
 500.768554688 41.625 530.772460938 71.5654296875 530.772460938 108.415039062 c 2
 530.772460938 214.549804688 l 1
 510.620117188 204.44140625 487.909179688 198.811523438 463.918945312 198.811523438 c 2
 200.021484375 198.811523438 l 2
 117.301757812 198.811523438 50 266.11328125 50 348.76953125 c 2
 50 552.72265625 l 2
 50 635.442382812 117.301757812 702.744140625 200.021484375 702.744140625 c 2
 463.918945312 702.744140625 l 2
530.772460938 348.76953125 m 2
 530.772460938 552.72265625 l 2
 530.772460938 589.572265625 500.768554688 619.576171875 463.918945312 619.576171875 c 2
 200.021484375 619.576171875 l 2
 163.171875 619.576171875 133.16796875 589.572265625 133.16796875 552.72265625 c 2
 133.16796875 348.76953125 l 2
 133.16796875 311.983398438 163.171875 281.979492188 200.021484375 281.979492188 c 2
 463.918945312 281.979492188 l 2
 500.768554688 281.979492188 530.772460938 311.919921875 530.772460938 348.76953125 c 2
373.521484375 762.497070312 m 1
 290.353515625 762.497070312 l 1
 290.353515625 926.46484375 l 1
 373.521484375 926.46484375 l 1
 373.521484375 762.497070312 l 1
EndSplineSet
EndChar

StartChar: unie031
Encoding: 306 57393 49
Width: 664
GlyphClass: 1
Flags: W
LayerCount: 2
Fore
SplineSet
199.958007812 198.8125 m 2
 175.967773438 198.8125 153.3203125 204.506835938 133.16796875 214.55078125 c 1
 133.16796875 108.416015625 l 2
 133.16796875 71.6298828125 163.108398438 41.6259765625 199.958007812 41.6259765625 c 2
 463.85546875 41.6259765625 l 2
 500.641601562 41.6259765625 530.645507812 71.56640625 530.645507812 108.416015625 c 2
 530.645507812 150 l 1
 613.813476562 150 l 1
 613.813476562 108.416015625 l 2
 613.813476562 25.759765625 546.51171875 -41.5419921875 463.85546875 -41.5419921875 c 2
 199.958007812 -41.5419921875 l 2
 117.301757812 -41.5419921875 50 25.759765625 50 108.416015625 c 2
 50 552.723632812 l 2
 50 635.443359375 117.301757812 702.745117188 199.958007812 702.745117188 c 2
 463.85546875 702.745117188 l 2
 546.51171875 702.745117188 613.813476562 635.443359375 613.813476562 552.723632812 c 2
 613.813476562 348.770507812 l 2
 613.813476562 266.114257812 546.51171875 198.8125 463.85546875 198.8125 c 2
 199.958007812 198.8125 l 2
133.16796875 552.723632812 m 2
 133.16796875 348.770507812 l 2
 133.16796875 311.984375 163.108398438 281.98046875 199.958007812 281.98046875 c 2
 463.85546875 281.98046875 l 2
 500.641601562 281.98046875 530.645507812 311.920898438 530.645507812 348.770507812 c 2
 530.645507812 552.723632812 l 2
 530.645507812 589.573242188 500.705078125 619.577148438 463.85546875 619.577148438 c 2
 199.958007812 619.577148438 l 2
 163.171875 619.577148438 133.16796875 589.573242188 133.16796875 552.723632812 c 2
373.522460938 762.497070312 m 1
 290.354492188 762.497070312 l 1
 290.354492188 926.46484375 l 1
 373.522460938 926.46484375 l 1
 373.522460938 762.497070312 l 1
EndSplineSet
EndChar

StartChar: unie032
Encoding: 307 57394 50
Width: 664
GlyphClass: 1
Flags: W
LayerCount: 2
Fore
SplineSet
463.918945312 702.744140625 m 2
 546.638671875 702.744140625 613.940429688 635.442382812 613.940429688 552.72265625 c 2
 613.940429688 108.415039062 l 2
 613.940429688 25.7587890625 546.638671875 -41.54296875 463.918945312 -41.54296875 c 2
 200.021484375 -41.54296875 l 2
 117.301757812 -41.54296875 50 25.7587890625 50 108.415039062 c 2
 50 149.999023438 l 1
 133.16796875 149.999023438 l 1
 133.16796875 108.415039062 l 2
 133.16796875 71.62890625 163.171875 41.625 200.021484375 41.625 c 2
 463.918945312 41.625 l 2
 500.768554688 41.625 530.772460938 71.5654296875 530.772460938 108.415039062 c 2
 530.772460938 552.72265625 l 2
 530.772460938 589.572265625 500.768554688 619.576171875 463.918945312 619.576171875 c 2
 200.021484375 619.576171875 l 2
 163.171875 619.576171875 133.16796875 589.572265625 133.16796875 552.72265625 c 2
 133.16796875 511.138671875 l 1
 50 511.138671875 l 1
 50 552.72265625 l 2
 50 635.442382812 117.301757812 702.744140625 200.021484375 702.744140625 c 2
 463.918945312 702.744140625 l 2
373.5859375 762.497070312 m 1
 290.41796875 762.497070312 l 1
 290.41796875 926.46484375 l 1
 373.5859375 926.46484375 l 1
 373.5859375 762.497070312 l 1
EndSplineSet
EndChar

StartChar: unie033
Encoding: 308 57395 51
Width: 664
GlyphClass: 1
Flags: W
LayerCount: 2
Fore
SplineSet
613.876953125 511.138671875 m 1
 530.708984375 511.138671875 l 1
 530.708984375 552.72265625 l 2
 530.708984375 589.572265625 500.705078125 619.576171875 463.85546875 619.576171875 c 2
 199.958007812 619.576171875 l 2
 163.171875 619.576171875 133.16796875 589.572265625 133.16796875 552.72265625 c 2
 133.16796875 108.415039062 l 2
 133.16796875 71.62890625 163.108398438 41.625 199.958007812 41.625 c 2
 463.85546875 41.625 l 2
 500.705078125 41.625 530.708984375 71.5654296875 530.708984375 108.415039062 c 2
 530.708984375 149.999023438 l 1
 613.876953125 149.999023438 l 1
 613.876953125 108.415039062 l 2
 613.876953125 25.7587890625 546.575195312 -41.54296875 463.85546875 -41.54296875 c 2
 199.958007812 -41.54296875 l 2
 117.301757812 -41.54296875 50 25.7587890625 50 108.415039062 c 2
 50 552.72265625 l 2
 50 635.442382812 117.301757812 702.744140625 199.958007812 702.744140625 c 2
 463.85546875 702.744140625 l 2
 546.575195312 702.744140625 613.876953125 635.442382812 613.876953125 552.72265625 c 2
 613.876953125 511.138671875 l 1
373.522460938 762.497070312 m 1
 290.354492188 762.497070312 l 1
 290.354492188 926.46484375 l 1
 373.522460938 926.46484375 l 1
 373.522460938 762.497070312 l 1
EndSplineSet
EndChar

StartChar: unie034
Encoding: 309 57396 52
Width: 183
GlyphClass: 1
Flags: W
LayerCount: 2
Fore
SplineSet
133.16796875 -41.5419921875 m 1
 50 -41.5419921875 l 1
 50 702.744140625 l 1
 133.16796875 702.744140625 l 1
 133.16796875 -41.5419921875 l 1
133.16796875 762.497070312 m 1
 50 762.497070312 l 1
 50 926.46484375 l 1
 133.16796875 926.46484375 l 1
 133.16796875 762.497070312 l 1
EndSplineSet
EndChar

StartChar: unie035
Encoding: 310 57397 53
Width: 664
GlyphClass: 1
Flags: W
LayerCount: 2
Fore
SplineSet
613.876953125 198.8125 m 1
 50 198.8125 l 1
 50 281.98046875 l 1
 613.876953125 281.98046875 l 1
 613.876953125 198.8125 l 1
373.5859375 609.212890625 m 1
 290.41796875 609.212890625 l 1
 290.41796875 773.245117188 l 1
 373.5859375 773.245117188 l 1
 373.5859375 609.212890625 l 1
EndSplineSet
EndChar

StartChar: unie036
Encoding: 311 57398 54
Width: 664
GlyphClass: 1
Flags: W
LayerCount: 2
Fore
SplineSet
530.708984375 108.416015625 m 2
 530.708984375 150 l 1
 613.876953125 150 l 1
 613.876953125 108.416015625 l 2
 613.876953125 25.759765625 546.575195312 -41.5419921875 463.85546875 -41.5419921875 c 2
 199.958007812 -41.5419921875 l 2
 117.301757812 -41.5419921875 50 25.759765625 50 108.416015625 c 2
 50 150 l 1
 133.16796875 150 l 1
 133.16796875 108.416015625 l 2
 133.16796875 71.6298828125 163.108398438 41.6259765625 199.958007812 41.6259765625 c 2
 463.85546875 41.6259765625 l 2
 500.705078125 41.6259765625 530.708984375 71.56640625 530.708984375 108.416015625 c 2
463.85546875 702.745117188 m 2
 546.575195312 702.745117188 613.876953125 635.443359375 613.876953125 552.723632812 c 2
 613.876953125 511.139648438 l 1
 530.708984375 511.139648438 l 1
 530.708984375 552.723632812 l 2
 530.708984375 589.573242188 500.705078125 619.577148438 463.85546875 619.577148438 c 2
 199.958007812 619.577148438 l 2
 163.171875 619.577148438 133.16796875 589.573242188 133.16796875 552.723632812 c 2
 133.16796875 511.139648438 l 1
 50 511.139648438 l 1
 50 552.723632812 l 2
 50 635.443359375 117.301757812 702.745117188 199.958007812 702.745117188 c 2
 463.85546875 702.745117188 l 2
373.522460938 762.498046875 m 1
 290.354492188 762.498046875 l 1
 290.354492188 926.465820312 l 1
 373.522460938 926.465820312 l 1
 373.522460938 762.498046875 l 1
EndSplineSet
EndChar

StartChar: unie037
Encoding: 312 57399 55
Width: 664
GlyphClass: 1
Flags: W
LayerCount: 2
Fore
SplineSet
613.97265625 511.138671875 m 1
 530.8046875 511.138671875 l 1
 530.8046875 552.72265625 l 2
 530.8046875 589.572265625 500.80078125 619.576171875 463.951171875 619.576171875 c 2
 373.5546875 619.576171875 l 1
 373.5546875 41.5615234375 l 1
 463.951171875 41.5615234375 l 2
 500.80078125 41.5615234375 530.8046875 71.501953125 530.8046875 108.3515625 c 2
 530.8046875 149.935546875 l 1
 613.97265625 149.935546875 l 1
 613.97265625 108.3515625 l 2
 613.97265625 25.6953125 546.670898438 -41.6064453125 463.951171875 -41.6064453125 c 2
 200.053710938 -41.6064453125 l 2
 117.333984375 -41.6064453125 50.0322265625 25.6953125 50.0322265625 108.3515625 c 2
 50.0322265625 149.935546875 l 1
 133.200195312 149.935546875 l 1
 133.200195312 108.3515625 l 2
 133.200195312 71.5654296875 163.204101562 41.5615234375 200.053710938 41.5615234375 c 2
 290.450195312 41.5615234375 l 1
 290.450195312 619.576171875 l 1
 200.053710938 619.576171875 l 2
 163.204101562 619.576171875 133.200195312 589.572265625 133.200195312 552.72265625 c 2
 133.200195312 511.138671875 l 1
 50.0322265625 511.138671875 l 1
 50.0322265625 552.72265625 l 2
 50.0322265625 635.442382812 117.333984375 702.744140625 200.053710938 702.744140625 c 2
 463.951171875 702.744140625 l 2
 546.670898438 702.744140625 613.97265625 635.442382812 613.97265625 552.72265625 c 2
 613.97265625 511.138671875 l 1
373.618164062 762.497070312 m 1
 290.450195312 762.497070312 l 1
 290.450195312 926.46484375 l 1
 373.618164062 926.46484375 l 1
 373.618164062 762.497070312 l 1
EndSplineSet
EndChar

StartChar: unie038
Encoding: 313 57400 56
Width: 664
GlyphClass: 1
Flags: W
LayerCount: 2
Fore
SplineSet
463.918945312 702.744140625 m 2
 546.575195312 702.744140625 613.876953125 635.442382812 613.876953125 552.72265625 c 2
 613.876953125 108.415039062 l 2
 613.876953125 25.7587890625 546.575195312 -41.54296875 463.918945312 -41.54296875 c 2
 200.021484375 -41.54296875 l 2
 117.301757812 -41.54296875 50 25.7587890625 50 108.415039062 c 2
 50 149.999023438 l 1
 133.16796875 149.999023438 l 1
 133.16796875 108.415039062 l 2
 133.16796875 71.62890625 163.171875 41.625 200.021484375 41.625 c 2
 463.918945312 41.625 l 2
 500.705078125 41.625 530.708984375 71.5654296875 530.708984375 108.415039062 c 2
 530.708984375 214.549804688 l 1
 510.556640625 204.44140625 487.909179688 198.811523438 463.918945312 198.811523438 c 2
 200.021484375 198.811523438 l 2
 117.301757812 198.811523438 50 266.11328125 50 348.76953125 c 2
 50 552.72265625 l 2
 50 635.442382812 117.301757812 702.744140625 200.021484375 702.744140625 c 2
 463.918945312 702.744140625 l 2
530.708984375 348.76953125 m 2
 530.708984375 552.72265625 l 2
 530.708984375 589.572265625 500.768554688 619.576171875 463.918945312 619.576171875 c 2
 200.021484375 619.576171875 l 2
 163.171875 619.576171875 133.16796875 589.572265625 133.16796875 552.72265625 c 2
 133.16796875 348.76953125 l 2
 133.16796875 311.983398438 163.171875 281.979492188 200.021484375 281.979492188 c 2
 463.918945312 281.979492188 l 2
 500.705078125 281.979492188 530.708984375 311.919921875 530.708984375 348.76953125 c 2
326.436523438 762.497070312 m 1
 243.268554688 762.497070312 l 1
 243.268554688 926.46484375 l 1
 326.436523438 926.46484375 l 1
 326.436523438 762.497070312 l 1
420.671875 762.497070312 m 1
 337.50390625 762.497070312 l 1
 337.50390625 926.46484375 l 1
 420.671875 926.46484375 l 1
 420.671875 762.497070312 l 1
EndSplineSet
EndChar

StartChar: unie039
Encoding: 314 57401 57
Width: 664
GlyphClass: 1
Flags: W
LayerCount: 2
Fore
SplineSet
199.958007812 198.8125 m 2
 175.967773438 198.8125 153.3203125 204.506835938 133.16796875 214.55078125 c 1
 133.16796875 108.416015625 l 2
 133.16796875 71.6298828125 163.108398438 41.6259765625 199.958007812 41.6259765625 c 2
 463.85546875 41.6259765625 l 2
 500.705078125 41.6259765625 530.708984375 71.56640625 530.708984375 108.416015625 c 2
 530.708984375 150 l 1
 613.876953125 150 l 1
 613.876953125 108.416015625 l 2
 613.876953125 25.759765625 546.575195312 -41.5419921875 463.85546875 -41.5419921875 c 2
 199.958007812 -41.5419921875 l 2
 117.301757812 -41.5419921875 50 25.759765625 50 108.416015625 c 2
 50 552.723632812 l 2
 50 635.443359375 117.301757812 702.745117188 199.958007812 702.745117188 c 2
 463.85546875 702.745117188 l 2
 546.575195312 702.745117188 613.876953125 635.443359375 613.876953125 552.723632812 c 2
 613.876953125 348.770507812 l 2
 613.876953125 266.114257812 546.575195312 198.8125 463.85546875 198.8125 c 2
 199.958007812 198.8125 l 2
133.16796875 552.723632812 m 2
 133.16796875 348.770507812 l 2
 133.16796875 311.984375 163.108398438 281.98046875 199.958007812 281.98046875 c 2
 463.85546875 281.98046875 l 2
 500.705078125 281.98046875 530.708984375 311.920898438 530.708984375 348.770507812 c 2
 530.708984375 552.723632812 l 2
 530.708984375 589.573242188 500.705078125 619.577148438 463.85546875 619.577148438 c 2
 199.958007812 619.577148438 l 2
 163.171875 619.577148438 133.16796875 589.573242188 133.16796875 552.723632812 c 2
326.436523438 762.497070312 m 1
 243.268554688 762.497070312 l 1
 243.268554688 926.46484375 l 1
 326.436523438 926.46484375 l 1
 326.436523438 762.497070312 l 1
420.671875 762.497070312 m 1
 337.50390625 762.497070312 l 1
 337.50390625 926.46484375 l 1
 420.671875 926.46484375 l 1
 420.671875 762.497070312 l 1
EndSplineSet
EndChar

StartChar: unie03a
Encoding: 315 57402 58
Width: 664
GlyphClass: 1
Flags: W
LayerCount: 2
Fore
SplineSet
463.918945312 702.744140625 m 2
 546.575195312 702.744140625 613.876953125 635.442382812 613.876953125 552.72265625 c 2
 613.876953125 108.415039062 l 2
 613.876953125 25.7587890625 546.575195312 -41.54296875 463.918945312 -41.54296875 c 2
 200.021484375 -41.54296875 l 2
 117.301757812 -41.54296875 50 25.7587890625 50 108.415039062 c 2
 50 149.999023438 l 1
 133.16796875 149.999023438 l 1
 133.16796875 108.415039062 l 2
 133.16796875 71.62890625 163.171875 41.625 200.021484375 41.625 c 2
 463.918945312 41.625 l 2
 500.705078125 41.625 530.708984375 71.5654296875 530.708984375 108.415039062 c 2
 530.708984375 552.72265625 l 2
 530.708984375 589.572265625 500.768554688 619.576171875 463.918945312 619.576171875 c 2
 200.021484375 619.576171875 l 2
 163.171875 619.576171875 133.16796875 589.572265625 133.16796875 552.72265625 c 2
 133.16796875 511.138671875 l 1
 50 511.138671875 l 1
 50 552.72265625 l 2
 50 635.442382812 117.301757812 702.744140625 200.021484375 702.744140625 c 2
 463.918945312 702.744140625 l 2
326.436523438 762.497070312 m 1
 243.268554688 762.497070312 l 1
 243.268554688 926.46484375 l 1
 326.436523438 926.46484375 l 1
 326.436523438 762.497070312 l 1
420.607421875 762.497070312 m 1
 337.439453125 762.497070312 l 1
 337.439453125 926.46484375 l 1
 420.607421875 926.46484375 l 1
 420.607421875 762.497070312 l 1
EndSplineSet
EndChar

StartChar: unie03b
Encoding: 316 57403 59
Width: 664
GlyphClass: 1
Flags: W
LayerCount: 2
Fore
SplineSet
613.940429688 511.138671875 m 1
 530.772460938 511.138671875 l 1
 530.772460938 552.72265625 l 2
 530.772460938 589.572265625 500.768554688 619.576171875 463.918945312 619.576171875 c 2
 200.021484375 619.576171875 l 2
 163.171875 619.576171875 133.16796875 589.572265625 133.16796875 552.72265625 c 2
 133.16796875 108.415039062 l 2
 133.16796875 71.62890625 163.171875 41.625 200.021484375 41.625 c 2
 463.918945312 41.625 l 2
 500.768554688 41.625 530.772460938 71.5654296875 530.772460938 108.415039062 c 2
 530.772460938 149.999023438 l 1
 613.940429688 149.999023438 l 1
 613.940429688 108.415039062 l 2
 613.940429688 25.7587890625 546.638671875 -41.54296875 463.918945312 -41.54296875 c 2
 200.021484375 -41.54296875 l 2
 117.301757812 -41.54296875 50 25.7587890625 50 108.415039062 c 2
 50 552.72265625 l 2
 50 635.442382812 117.301757812 702.744140625 200.021484375 702.744140625 c 2
 463.918945312 702.744140625 l 2
 546.638671875 702.744140625 613.940429688 635.442382812 613.940429688 552.72265625 c 2
 613.940429688 511.138671875 l 1
326.5 762.497070312 m 1
 243.33203125 762.497070312 l 1
 243.33203125 926.46484375 l 1
 326.5 926.46484375 l 1
 326.5 762.497070312 l 1
420.670898438 762.497070312 m 1
 337.502929688 762.497070312 l 1
 337.502929688 926.46484375 l 1
 420.670898438 926.46484375 l 1
 420.670898438 762.497070312 l 1
EndSplineSet
EndChar

StartChar: unie03c
Encoding: 317 57404 60
Width: 277
GlyphClass: 1
Flags: W
LayerCount: 2
Fore
SplineSet
180.317382812 -41.5419921875 m 1
 97.1494140625 -41.5419921875 l 1
 97.1494140625 702.744140625 l 1
 180.317382812 702.744140625 l 1
 180.317382812 -41.5419921875 l 1
133.166992188 762.497070312 m 1
 49.9990234375 762.497070312 l 1
 49.9990234375 926.46484375 l 1
 133.166992188 926.46484375 l 1
 133.166992188 762.497070312 l 1
227.40234375 762.497070312 m 1
 144.234375 762.497070312 l 1
 144.234375 926.46484375 l 1
 227.40234375 926.46484375 l 1
 227.40234375 762.497070312 l 1
EndSplineSet
EndChar

StartChar: unie03d
Encoding: 318 57405 61
Width: 664
GlyphClass: 1
Flags: W
LayerCount: 2
Fore
SplineSet
613.876953125 198.8125 m 1
 50 198.8125 l 1
 50 281.98046875 l 1
 613.876953125 281.98046875 l 1
 613.876953125 198.8125 l 1
326.372070312 609.212890625 m 1
 243.204101562 609.212890625 l 1
 243.204101562 773.180664062 l 1
 326.372070312 773.180664062 l 1
 326.372070312 609.212890625 l 1
420.607421875 609.212890625 m 1
 337.439453125 609.212890625 l 1
 337.439453125 773.180664062 l 1
 420.607421875 773.180664062 l 1
 420.607421875 609.212890625 l 1
EndSplineSet
EndChar

StartChar: unie03e
Encoding: 319 57406 62
Width: 664
GlyphClass: 1
Flags: W
LayerCount: 2
Fore
SplineSet
530.7734375 108.416015625 m 2
 530.7734375 150 l 1
 613.94140625 150 l 1
 613.94140625 108.416015625 l 2
 613.94140625 25.759765625 546.639648438 -41.5419921875 463.919921875 -41.5419921875 c 2
 200.022460938 -41.5419921875 l 2
 117.302734375 -41.5419921875 50.0009765625 25.759765625 50.0009765625 108.416015625 c 2
 50.0009765625 150 l 1
 133.168945312 150 l 1
 133.168945312 108.416015625 l 2
 133.168945312 71.6298828125 163.172851562 41.6259765625 200.022460938 41.6259765625 c 2
 463.919921875 41.6259765625 l 2
 500.76953125 41.6259765625 530.7734375 71.56640625 530.7734375 108.416015625 c 2
463.919921875 702.745117188 m 2
 546.639648438 702.745117188 613.94140625 635.443359375 613.94140625 552.723632812 c 2
 613.94140625 511.139648438 l 1
 530.7734375 511.139648438 l 1
 530.7734375 552.723632812 l 2
 530.7734375 589.573242188 500.76953125 619.577148438 463.919921875 619.577148438 c 2
 200.022460938 619.577148438 l 2
 163.172851562 619.577148438 133.168945312 589.573242188 133.168945312 552.723632812 c 2
 133.168945312 511.139648438 l 1
 50.0009765625 511.139648438 l 1
 50.0009765625 552.723632812 l 2
 50.0009765625 635.443359375 117.302734375 702.745117188 200.022460938 702.745117188 c 2
 463.919921875 702.745117188 l 2
326.4375 762.498046875 m 1
 243.26953125 762.498046875 l 1
 243.26953125 926.465820312 l 1
 326.4375 926.465820312 l 1
 326.4375 762.498046875 l 1
420.672851562 762.498046875 m 1
 337.504882812 762.498046875 l 1
 337.504882812 926.465820312 l 1
 420.672851562 926.465820312 l 1
 420.672851562 762.498046875 l 1
EndSplineSet
EndChar

StartChar: unie03f
Encoding: 320 57407 63
Width: 664
GlyphClass: 1
Flags: W
LayerCount: 2
Fore
SplineSet
613.876953125 511.138671875 m 1
 530.708984375 511.138671875 l 1
 530.708984375 552.72265625 l 2
 530.708984375 589.572265625 500.768554688 619.576171875 463.918945312 619.576171875 c 2
 373.522460938 619.576171875 l 1
 373.522460938 41.5615234375 l 1
 463.918945312 41.5615234375 l 2
 500.705078125 41.5615234375 530.708984375 71.501953125 530.708984375 108.3515625 c 2
 530.708984375 149.935546875 l 1
 613.876953125 149.935546875 l 1
 613.876953125 108.3515625 l 2
 613.876953125 25.6953125 546.575195312 -41.6064453125 463.918945312 -41.6064453125 c 2
 200.021484375 -41.6064453125 l 2
 117.301757812 -41.6064453125 50 25.6953125 50 108.3515625 c 2
 50 149.935546875 l 1
 133.16796875 149.935546875 l 1
 133.16796875 108.3515625 l 2
 133.16796875 71.5654296875 163.171875 41.5615234375 200.021484375 41.5615234375 c 2
 290.41796875 41.5615234375 l 1
 290.41796875 619.576171875 l 1
 200.021484375 619.576171875 l 2
 163.171875 619.576171875 133.16796875 589.572265625 133.16796875 552.72265625 c 2
 133.16796875 511.138671875 l 1
 50 511.138671875 l 1
 50 552.72265625 l 2
 50 635.442382812 117.301757812 702.744140625 200.021484375 702.744140625 c 2
 463.918945312 702.744140625 l 2
 546.575195312 702.744140625 613.876953125 635.442382812 613.876953125 552.72265625 c 2
 613.876953125 511.138671875 l 1
326.436523438 762.497070312 m 1
 243.268554688 762.497070312 l 1
 243.268554688 926.46484375 l 1
 326.436523438 926.46484375 l 1
 326.436523438 762.497070312 l 1
420.607421875 762.497070312 m 1
 337.439453125 762.497070312 l 1
 337.439453125 926.46484375 l 1
 420.607421875 926.46484375 l 1
 420.607421875 762.497070312 l 1
EndSplineSet
EndChar

StartChar: unie040
Encoding: 321 57408 64
Width: 664
GlyphClass: 1
Flags: W
LayerCount: 2
Fore
SplineSet
463.918945312 702.744140625 m 2
 546.575195312 702.744140625 613.876953125 635.442382812 613.876953125 552.72265625 c 2
 613.876953125 108.415039062 l 2
 613.876953125 25.7587890625 546.575195312 -41.54296875 463.918945312 -41.54296875 c 2
 200.021484375 -41.54296875 l 2
 117.301757812 -41.54296875 50 25.7587890625 50 108.415039062 c 2
 50 149.999023438 l 1
 133.16796875 149.999023438 l 1
 133.16796875 108.415039062 l 2
 133.16796875 71.62890625 163.171875 41.625 200.021484375 41.625 c 2
 463.918945312 41.625 l 2
 500.705078125 41.625 530.708984375 71.5654296875 530.708984375 108.415039062 c 2
 530.708984375 214.549804688 l 1
 510.556640625 204.44140625 487.909179688 198.811523438 463.918945312 198.811523438 c 2
 200.021484375 198.811523438 l 2
 117.301757812 198.811523438 50 266.11328125 50 348.76953125 c 2
 50 552.72265625 l 2
 50 635.442382812 117.301757812 702.744140625 200.021484375 702.744140625 c 2
 463.918945312 702.744140625 l 2
530.708984375 348.76953125 m 2
 530.708984375 552.72265625 l 2
 530.708984375 589.572265625 500.768554688 619.576171875 463.918945312 619.576171875 c 2
 200.021484375 619.576171875 l 2
 163.171875 619.576171875 133.16796875 589.572265625 133.16796875 552.72265625 c 2
 133.16796875 348.76953125 l 2
 133.16796875 311.983398438 163.171875 281.979492188 200.021484375 281.979492188 c 2
 463.918945312 281.979492188 l 2
 500.705078125 281.979492188 530.708984375 311.919921875 530.708984375 348.76953125 c 2
467.7578125 802.865234375 m 1
 196.18359375 802.865234375 l 1
 196.18359375 886.033203125 l 1
 467.7578125 886.033203125 l 1
 467.7578125 802.865234375 l 1
EndSplineSet
EndChar

StartChar: unie041
Encoding: 322 57409 65
Width: 664
GlyphClass: 1
Flags: W
LayerCount: 2
Fore
SplineSet
200.021484375 198.8125 m 2
 176.03125 198.8125 153.3203125 204.506835938 133.16796875 214.55078125 c 1
 133.16796875 108.416015625 l 2
 133.16796875 71.6298828125 163.171875 41.6259765625 200.021484375 41.6259765625 c 2
 463.918945312 41.6259765625 l 2
 500.768554688 41.6259765625 530.772460938 71.56640625 530.772460938 108.416015625 c 2
 530.772460938 150 l 1
 613.940429688 150 l 1
 613.940429688 108.416015625 l 2
 613.940429688 25.759765625 546.638671875 -41.5419921875 463.918945312 -41.5419921875 c 2
 200.021484375 -41.5419921875 l 2
 117.301757812 -41.5419921875 50 25.759765625 50 108.416015625 c 2
 50 552.723632812 l 2
 50 635.443359375 117.301757812 702.745117188 200.021484375 702.745117188 c 2
 463.918945312 702.745117188 l 2
 546.638671875 702.745117188 613.940429688 635.443359375 613.940429688 552.723632812 c 2
 613.940429688 348.770507812 l 2
 613.940429688 266.114257812 546.638671875 198.8125 463.918945312 198.8125 c 2
 200.021484375 198.8125 l 2
133.16796875 552.723632812 m 2
 133.16796875 348.770507812 l 2
 133.16796875 311.984375 163.171875 281.98046875 200.021484375 281.98046875 c 2
 463.918945312 281.98046875 l 2
 500.768554688 281.98046875 530.772460938 311.920898438 530.772460938 348.770507812 c 2
 530.772460938 552.723632812 l 2
 530.772460938 589.573242188 500.768554688 619.577148438 463.918945312 619.577148438 c 2
 200.021484375 619.577148438 l 2
 163.171875 619.577148438 133.16796875 589.573242188 133.16796875 552.723632812 c 2
467.7578125 802.866210938 m 1
 196.18359375 802.866210938 l 1
 196.18359375 886.034179688 l 1
 467.7578125 886.034179688 l 1
 467.7578125 802.866210938 l 1
EndSplineSet
EndChar

StartChar: unie042
Encoding: 323 57410 66
Width: 664
GlyphClass: 1
Flags: W
LayerCount: 2
Fore
SplineSet
463.85546875 702.744140625 m 2
 546.51171875 702.744140625 613.813476562 635.442382812 613.813476562 552.72265625 c 2
 613.813476562 108.415039062 l 2
 613.813476562 25.7587890625 546.51171875 -41.54296875 463.85546875 -41.54296875 c 2
 199.958007812 -41.54296875 l 2
 117.301757812 -41.54296875 50 25.7587890625 50 108.415039062 c 2
 50 149.999023438 l 1
 133.16796875 149.999023438 l 1
 133.16796875 108.415039062 l 2
 133.16796875 71.62890625 163.108398438 41.625 199.958007812 41.625 c 2
 463.85546875 41.625 l 2
 500.641601562 41.625 530.645507812 71.5654296875 530.645507812 108.415039062 c 2
 530.645507812 552.72265625 l 2
 530.645507812 589.572265625 500.705078125 619.576171875 463.85546875 619.576171875 c 2
 199.958007812 619.576171875 l 2
 163.171875 619.576171875 133.16796875 589.572265625 133.16796875 552.72265625 c 2
 133.16796875 511.138671875 l 1
 50 511.138671875 l 1
 50 552.72265625 l 2
 50 635.442382812 117.301757812 702.744140625 199.958007812 702.744140625 c 2
 463.85546875 702.744140625 l 2
467.694335938 802.865234375 m 1
 196.120117188 802.865234375 l 1
 196.120117188 886.033203125 l 1
 467.694335938 886.033203125 l 1
 467.694335938 802.865234375 l 1
EndSplineSet
EndChar

StartChar: unie043
Encoding: 324 57411 67
Width: 664
GlyphClass: 1
Flags: W
LayerCount: 2
Fore
SplineSet
613.940429688 511.138671875 m 1
 530.772460938 511.138671875 l 1
 530.772460938 552.72265625 l 2
 530.772460938 589.572265625 500.768554688 619.576171875 463.918945312 619.576171875 c 2
 200.021484375 619.576171875 l 2
 163.171875 619.576171875 133.16796875 589.572265625 133.16796875 552.72265625 c 2
 133.16796875 108.415039062 l 2
 133.16796875 71.62890625 163.171875 41.625 200.021484375 41.625 c 2
 463.918945312 41.625 l 2
 500.768554688 41.625 530.772460938 71.5654296875 530.772460938 108.415039062 c 2
 530.772460938 149.999023438 l 1
 613.940429688 149.999023438 l 1
 613.940429688 108.415039062 l 2
 613.940429688 25.7587890625 546.638671875 -41.54296875 463.918945312 -41.54296875 c 2
 200.021484375 -41.54296875 l 2
 117.301757812 -41.54296875 50 25.7587890625 50 108.415039062 c 2
 50 552.72265625 l 2
 50 635.442382812 117.301757812 702.744140625 200.021484375 702.744140625 c 2
 463.918945312 702.744140625 l 2
 546.638671875 702.744140625 613.940429688 635.442382812 613.940429688 552.72265625 c 2
 613.940429688 511.138671875 l 1
467.756835938 802.865234375 m 1
 196.182617188 802.865234375 l 1
 196.182617188 886.033203125 l 1
 467.756835938 886.033203125 l 1
 467.756835938 802.865234375 l 1
EndSplineSet
EndChar

StartChar: unie044
Encoding: 325 57412 68
Width: 372
GlyphClass: 1
Flags: W
LayerCount: 2
Fore
SplineSet
227.403320312 -41.5419921875 m 1
 144.235351562 -41.5419921875 l 1
 144.235351562 702.744140625 l 1
 227.403320312 702.744140625 l 1
 227.403320312 -41.5419921875 l 1
321.57421875 802.865234375 m 1
 50 802.865234375 l 1
 50 886.033203125 l 1
 321.57421875 886.033203125 l 1
 321.57421875 802.865234375 l 1
EndSplineSet
EndChar

StartChar: unie045
Encoding: 326 57413 69
Width: 664
GlyphClass: 1
Flags: W
LayerCount: 2
Fore
SplineSet
613.876953125 198.8125 m 1
 50 198.8125 l 1
 50 281.98046875 l 1
 613.876953125 281.98046875 l 1
 613.876953125 198.8125 l 1
467.7578125 649.645507812 m 1
 196.18359375 649.645507812 l 1
 196.18359375 732.813476562 l 1
 467.7578125 732.813476562 l 1
 467.7578125 649.645507812 l 1
EndSplineSet
EndChar

StartChar: unie046
Encoding: 327 57414 70
Width: 664
GlyphClass: 1
Flags: W
LayerCount: 2
Fore
SplineSet
530.7734375 108.416015625 m 2
 530.7734375 150 l 1
 613.94140625 150 l 1
 613.94140625 108.416015625 l 2
 613.94140625 25.759765625 546.639648438 -41.5419921875 463.919921875 -41.5419921875 c 2
 200.022460938 -41.5419921875 l 2
 117.302734375 -41.5419921875 50.0009765625 25.759765625 50.0009765625 108.416015625 c 2
 50.0009765625 150 l 1
 133.168945312 150 l 1
 133.168945312 108.416015625 l 2
 133.168945312 71.6298828125 163.172851562 41.6259765625 200.022460938 41.6259765625 c 2
 463.919921875 41.6259765625 l 2
 500.76953125 41.6259765625 530.7734375 71.56640625 530.7734375 108.416015625 c 2
463.919921875 702.745117188 m 2
 546.639648438 702.745117188 613.94140625 635.443359375 613.94140625 552.723632812 c 2
 613.94140625 511.139648438 l 1
 530.7734375 511.139648438 l 1
 530.7734375 552.723632812 l 2
 530.7734375 589.573242188 500.76953125 619.577148438 463.919921875 619.577148438 c 2
 200.022460938 619.577148438 l 2
 163.172851562 619.577148438 133.168945312 589.573242188 133.168945312 552.723632812 c 2
 133.168945312 511.139648438 l 1
 50.0009765625 511.139648438 l 1
 50.0009765625 552.723632812 l 2
 50.0009765625 635.443359375 117.302734375 702.745117188 200.022460938 702.745117188 c 2
 463.919921875 702.745117188 l 2
467.758789062 802.866210938 m 1
 196.184570312 802.866210938 l 1
 196.184570312 886.034179688 l 1
 467.758789062 886.034179688 l 1
 467.758789062 802.866210938 l 1
EndSplineSet
EndChar

StartChar: unie047
Encoding: 328 57415 71
Width: 664
GlyphClass: 1
Flags: W
LayerCount: 2
Fore
SplineSet
613.876953125 511.138671875 m 1
 530.708984375 511.138671875 l 1
 530.708984375 552.72265625 l 2
 530.708984375 589.572265625 500.768554688 619.576171875 463.918945312 619.576171875 c 2
 373.522460938 619.576171875 l 1
 373.522460938 41.5615234375 l 1
 463.918945312 41.5615234375 l 2
 500.705078125 41.5615234375 530.708984375 71.501953125 530.708984375 108.3515625 c 2
 530.708984375 149.935546875 l 1
 613.876953125 149.935546875 l 1
 613.876953125 108.3515625 l 2
 613.876953125 25.6953125 546.575195312 -41.6064453125 463.918945312 -41.6064453125 c 2
 200.021484375 -41.6064453125 l 2
 117.301757812 -41.6064453125 50 25.6953125 50 108.3515625 c 2
 50 149.935546875 l 1
 133.16796875 149.935546875 l 1
 133.16796875 108.3515625 l 2
 133.16796875 71.5654296875 163.171875 41.5615234375 200.021484375 41.5615234375 c 2
 290.41796875 41.5615234375 l 1
 290.41796875 619.576171875 l 1
 200.021484375 619.576171875 l 2
 163.171875 619.576171875 133.16796875 589.572265625 133.16796875 552.72265625 c 2
 133.16796875 511.138671875 l 1
 50 511.138671875 l 1
 50 552.72265625 l 2
 50 635.442382812 117.301757812 702.744140625 200.021484375 702.744140625 c 2
 463.918945312 702.744140625 l 2
 546.575195312 702.744140625 613.876953125 635.442382812 613.876953125 552.72265625 c 2
 613.876953125 511.138671875 l 1
467.7578125 802.865234375 m 1
 196.18359375 802.865234375 l 1
 196.18359375 886.033203125 l 1
 467.7578125 886.033203125 l 1
 467.7578125 802.865234375 l 1
EndSplineSet
EndChar

StartChar: unie048
Encoding: 329 57416 72
Width: 664
GlyphClass: 1
Flags: W
LayerCount: 2
Fore
SplineSet
463.918945312 702.744140625 m 2
 546.638671875 702.744140625 613.940429688 635.442382812 613.940429688 552.72265625 c 2
 613.940429688 108.415039062 l 2
 613.940429688 25.7587890625 546.638671875 -41.54296875 463.918945312 -41.54296875 c 2
 200.021484375 -41.54296875 l 2
 117.301757812 -41.54296875 50 25.7587890625 50 108.415039062 c 2
 50 149.999023438 l 1
 133.16796875 149.999023438 l 1
 133.16796875 108.415039062 l 2
 133.16796875 71.62890625 163.171875 41.625 200.021484375 41.625 c 2
 463.918945312 41.625 l 2
 500.768554688 41.625 530.772460938 71.5654296875 530.772460938 108.415039062 c 2
 530.772460938 214.549804688 l 1
 510.620117188 204.44140625 487.909179688 198.811523438 463.918945312 198.811523438 c 2
 200.021484375 198.811523438 l 2
 117.301757812 198.811523438 50 266.11328125 50 348.76953125 c 2
 50 552.72265625 l 2
 50 635.442382812 117.301757812 702.744140625 200.021484375 702.744140625 c 2
 463.918945312 702.744140625 l 2
530.772460938 348.76953125 m 2
 530.772460938 552.72265625 l 2
 530.772460938 589.572265625 500.768554688 619.576171875 463.918945312 619.576171875 c 2
 200.021484375 619.576171875 l 2
 163.171875 619.576171875 133.16796875 589.572265625 133.16796875 552.72265625 c 2
 133.16796875 348.76953125 l 2
 133.16796875 311.983398438 163.171875 281.979492188 200.021484375 281.979492188 c 2
 463.918945312 281.979492188 l 2
 500.768554688 281.979492188 530.772460938 311.919921875 530.772460938 348.76953125 c 2
279.350585938 762.497070312 m 1
 196.182617188 762.497070312 l 1
 196.182617188 926.46484375 l 1
 279.350585938 926.46484375 l 1
 279.350585938 762.497070312 l 1
373.5859375 762.497070312 m 1
 290.41796875 762.497070312 l 1
 290.41796875 926.46484375 l 1
 373.5859375 926.46484375 l 1
 373.5859375 762.497070312 l 1
467.821289062 762.497070312 m 1
 384.653320312 762.497070312 l 1
 384.653320312 926.46484375 l 1
 467.821289062 926.46484375 l 1
 467.821289062 762.497070312 l 1
EndSplineSet
EndChar

StartChar: unie049
Encoding: 330 57417 73
Width: 664
GlyphClass: 1
Flags: W
LayerCount: 2
Fore
SplineSet
199.958007812 198.8125 m 2
 175.967773438 198.8125 153.3203125 204.506835938 133.16796875 214.55078125 c 1
 133.16796875 108.416015625 l 2
 133.16796875 71.6298828125 163.108398438 41.6259765625 199.958007812 41.6259765625 c 2
 463.85546875 41.6259765625 l 2
 500.641601562 41.6259765625 530.645507812 71.56640625 530.645507812 108.416015625 c 2
 530.645507812 150 l 1
 613.813476562 150 l 1
 613.813476562 108.416015625 l 2
 613.813476562 25.759765625 546.51171875 -41.5419921875 463.85546875 -41.5419921875 c 2
 199.958007812 -41.5419921875 l 2
 117.301757812 -41.5419921875 50 25.759765625 50 108.416015625 c 2
 50 552.723632812 l 2
 50 635.443359375 117.301757812 702.745117188 199.958007812 702.745117188 c 2
 463.85546875 702.745117188 l 2
 546.51171875 702.745117188 613.813476562 635.443359375 613.813476562 552.723632812 c 2
 613.813476562 348.770507812 l 2
 613.813476562 266.114257812 546.51171875 198.8125 463.85546875 198.8125 c 2
 199.958007812 198.8125 l 2
133.16796875 552.723632812 m 2
 133.16796875 348.770507812 l 2
 133.16796875 311.984375 163.108398438 281.98046875 199.958007812 281.98046875 c 2
 463.85546875 281.98046875 l 2
 500.641601562 281.98046875 530.645507812 311.920898438 530.645507812 348.770507812 c 2
 530.645507812 552.723632812 l 2
 530.645507812 589.573242188 500.705078125 619.577148438 463.85546875 619.577148438 c 2
 199.958007812 619.577148438 l 2
 163.171875 619.577148438 133.16796875 589.573242188 133.16796875 552.723632812 c 2
279.287109375 762.497070312 m 1
 196.119140625 762.497070312 l 1
 196.119140625 926.46484375 l 1
 279.287109375 926.46484375 l 1
 279.287109375 762.497070312 l 1
373.522460938 762.497070312 m 1
 290.354492188 762.497070312 l 1
 290.354492188 926.46484375 l 1
 373.522460938 926.46484375 l 1
 373.522460938 762.497070312 l 1
467.693359375 762.497070312 m 1
 384.525390625 762.497070312 l 1
 384.525390625 926.46484375 l 1
 467.693359375 926.46484375 l 1
 467.693359375 762.497070312 l 1
EndSplineSet
EndChar

StartChar: unie04a
Encoding: 331 57418 74
Width: 664
GlyphClass: 1
Flags: W
LayerCount: 2
Fore
SplineSet
463.918945312 702.744140625 m 2
 546.575195312 702.744140625 613.876953125 635.442382812 613.876953125 552.72265625 c 2
 613.876953125 108.415039062 l 2
 613.876953125 25.7587890625 546.575195312 -41.54296875 463.918945312 -41.54296875 c 2
 200.021484375 -41.54296875 l 2
 117.301757812 -41.54296875 50 25.7587890625 50 108.415039062 c 2
 50 149.999023438 l 1
 133.16796875 149.999023438 l 1
 133.16796875 108.415039062 l 2
 133.16796875 71.62890625 163.171875 41.625 200.021484375 41.625 c 2
 463.918945312 41.625 l 2
 500.705078125 41.625 530.708984375 71.5654296875 530.708984375 108.415039062 c 2
 530.708984375 552.72265625 l 2
 530.708984375 589.572265625 500.768554688 619.576171875 463.918945312 619.576171875 c 2
 200.021484375 619.576171875 l 2
 163.171875 619.576171875 133.16796875 589.572265625 133.16796875 552.72265625 c 2
 133.16796875 511.138671875 l 1
 50 511.138671875 l 1
 50 552.72265625 l 2
 50 635.442382812 117.301757812 702.744140625 200.021484375 702.744140625 c 2
 463.918945312 702.744140625 l 2
279.350585938 762.497070312 m 1
 196.182617188 762.497070312 l 1
 196.182617188 926.46484375 l 1
 279.350585938 926.46484375 l 1
 279.350585938 762.497070312 l 1
373.521484375 762.497070312 m 1
 290.353515625 762.497070312 l 1
 290.353515625 926.46484375 l 1
 373.521484375 926.46484375 l 1
 373.521484375 762.497070312 l 1
467.756835938 762.497070312 m 1
 384.588867188 762.497070312 l 1
 384.588867188 926.46484375 l 1
 467.756835938 926.46484375 l 1
 467.756835938 762.497070312 l 1
EndSplineSet
EndChar

StartChar: unie04b
Encoding: 332 57419 75
Width: 664
GlyphClass: 1
Flags: W
LayerCount: 2
Fore
SplineSet
613.876953125 511.138671875 m 1
 530.708984375 511.138671875 l 1
 530.708984375 552.72265625 l 2
 530.708984375 589.572265625 500.705078125 619.576171875 463.85546875 619.576171875 c 2
 199.958007812 619.576171875 l 2
 163.171875 619.576171875 133.16796875 589.572265625 133.16796875 552.72265625 c 2
 133.16796875 108.415039062 l 2
 133.16796875 71.62890625 163.108398438 41.625 199.958007812 41.625 c 2
 463.85546875 41.625 l 2
 500.705078125 41.625 530.708984375 71.5654296875 530.708984375 108.415039062 c 2
 530.708984375 149.999023438 l 1
 613.876953125 149.999023438 l 1
 613.876953125 108.415039062 l 2
 613.876953125 25.7587890625 546.575195312 -41.54296875 463.85546875 -41.54296875 c 2
 199.958007812 -41.54296875 l 2
 117.301757812 -41.54296875 50 25.7587890625 50 108.415039062 c 2
 50 552.72265625 l 2
 50 635.442382812 117.301757812 702.744140625 199.958007812 702.744140625 c 2
 463.85546875 702.744140625 l 2
 546.575195312 702.744140625 613.876953125 635.442382812 613.876953125 552.72265625 c 2
 613.876953125 511.138671875 l 1
279.350585938 762.497070312 m 1
 196.182617188 762.497070312 l 1
 196.182617188 926.46484375 l 1
 279.350585938 926.46484375 l 1
 279.350585938 762.497070312 l 1
373.521484375 762.497070312 m 1
 290.353515625 762.497070312 l 1
 290.353515625 926.46484375 l 1
 373.521484375 926.46484375 l 1
 373.521484375 762.497070312 l 1
467.756835938 762.497070312 m 1
 384.588867188 762.497070312 l 1
 384.588867188 926.46484375 l 1
 467.756835938 926.46484375 l 1
 467.756835938 762.497070312 l 1
EndSplineSet
EndChar

StartChar: unie04c
Encoding: 333 57420 76
Width: 372
GlyphClass: 1
Flags: W
LayerCount: 2
Fore
SplineSet
227.338867188 -41.5419921875 m 1
 144.170898438 -41.5419921875 l 1
 144.170898438 702.744140625 l 1
 227.338867188 702.744140625 l 1
 227.338867188 -41.5419921875 l 1
133.166992188 762.497070312 m 1
 49.9990234375 762.497070312 l 1
 49.9990234375 926.46484375 l 1
 133.166992188 926.46484375 l 1
 133.166992188 762.497070312 l 1
227.337890625 762.497070312 m 1
 144.169921875 762.497070312 l 1
 144.169921875 926.46484375 l 1
 227.337890625 926.46484375 l 1
 227.337890625 762.497070312 l 1
321.573242188 762.497070312 m 1
 238.405273438 762.497070312 l 1
 238.405273438 926.46484375 l 1
 321.573242188 926.46484375 l 1
 321.573242188 762.497070312 l 1
EndSplineSet
EndChar

StartChar: unie04d
Encoding: 334 57421 77
Width: 664
GlyphClass: 1
Flags: W
LayerCount: 2
Fore
SplineSet
613.876953125 198.8125 m 1
 50 198.8125 l 1
 50 281.98046875 l 1
 613.876953125 281.98046875 l 1
 613.876953125 198.8125 l 1
279.287109375 609.212890625 m 1
 196.119140625 609.212890625 l 1
 196.119140625 773.245117188 l 1
 279.287109375 773.245117188 l 1
 279.287109375 609.212890625 l 1
373.522460938 609.212890625 m 1
 290.354492188 609.212890625 l 1
 290.354492188 773.245117188 l 1
 373.522460938 773.245117188 l 1
 373.522460938 609.212890625 l 1
467.7578125 609.212890625 m 1
 384.58984375 609.212890625 l 1
 384.58984375 773.245117188 l 1
 467.7578125 773.245117188 l 1
 467.7578125 609.212890625 l 1
EndSplineSet
EndChar

StartChar: unie04e
Encoding: 335 57422 78
Width: 664
GlyphClass: 1
Flags: W
LayerCount: 2
Fore
SplineSet
530.708984375 108.416015625 m 2
 530.708984375 150 l 1
 613.876953125 150 l 1
 613.876953125 108.416015625 l 2
 613.876953125 25.759765625 546.575195312 -41.5419921875 463.85546875 -41.5419921875 c 2
 199.958007812 -41.5419921875 l 2
 117.301757812 -41.5419921875 50 25.759765625 50 108.416015625 c 2
 50 150 l 1
 133.16796875 150 l 1
 133.16796875 108.416015625 l 2
 133.16796875 71.6298828125 163.108398438 41.6259765625 199.958007812 41.6259765625 c 2
 463.85546875 41.6259765625 l 2
 500.705078125 41.6259765625 530.708984375 71.56640625 530.708984375 108.416015625 c 2
463.85546875 702.745117188 m 2
 546.575195312 702.745117188 613.876953125 635.443359375 613.876953125 552.723632812 c 2
 613.876953125 511.139648438 l 1
 530.708984375 511.139648438 l 1
 530.708984375 552.723632812 l 2
 530.708984375 589.573242188 500.705078125 619.577148438 463.85546875 619.577148438 c 2
 199.958007812 619.577148438 l 2
 163.171875 619.577148438 133.16796875 589.573242188 133.16796875 552.723632812 c 2
 133.16796875 511.139648438 l 1
 50 511.139648438 l 1
 50 552.723632812 l 2
 50 635.443359375 117.301757812 702.745117188 199.958007812 702.745117188 c 2
 463.85546875 702.745117188 l 2
279.287109375 762.498046875 m 1
 196.119140625 762.498046875 l 1
 196.119140625 926.465820312 l 1
 279.287109375 926.465820312 l 1
 279.287109375 762.498046875 l 1
373.522460938 762.498046875 m 1
 290.354492188 762.498046875 l 1
 290.354492188 926.465820312 l 1
 373.522460938 926.465820312 l 1
 373.522460938 762.498046875 l 1
467.7578125 762.498046875 m 1
 384.58984375 762.498046875 l 1
 384.58984375 926.465820312 l 1
 467.7578125 926.465820312 l 1
 467.7578125 762.498046875 l 1
EndSplineSet
EndChar

StartChar: unie04f
Encoding: 336 57423 79
Width: 664
GlyphClass: 1
Flags: W
LayerCount: 2
Fore
SplineSet
613.940429688 511.138671875 m 1
 530.772460938 511.138671875 l 1
 530.772460938 552.72265625 l 2
 530.772460938 589.572265625 500.768554688 619.576171875 463.918945312 619.576171875 c 2
 373.522460938 619.576171875 l 1
 373.522460938 41.5615234375 l 1
 463.918945312 41.5615234375 l 2
 500.768554688 41.5615234375 530.772460938 71.501953125 530.772460938 108.3515625 c 2
 530.772460938 149.935546875 l 1
 613.940429688 149.935546875 l 1
 613.940429688 108.3515625 l 2
 613.940429688 25.6953125 546.638671875 -41.6064453125 463.918945312 -41.6064453125 c 2
 200.021484375 -41.6064453125 l 2
 117.301757812 -41.6064453125 50 25.6953125 50 108.3515625 c 2
 50 149.935546875 l 1
 133.16796875 149.935546875 l 1
 133.16796875 108.3515625 l 2
 133.16796875 71.5654296875 163.171875 41.5615234375 200.021484375 41.5615234375 c 2
 290.41796875 41.5615234375 l 1
 290.41796875 619.576171875 l 1
 200.021484375 619.576171875 l 2
 163.171875 619.576171875 133.16796875 589.572265625 133.16796875 552.72265625 c 2
 133.16796875 511.138671875 l 1
 50 511.138671875 l 1
 50 552.72265625 l 2
 50 635.442382812 117.301757812 702.744140625 200.021484375 702.744140625 c 2
 463.918945312 702.744140625 l 2
 546.638671875 702.744140625 613.940429688 635.442382812 613.940429688 552.72265625 c 2
 613.940429688 511.138671875 l 1
279.350585938 762.497070312 m 1
 196.182617188 762.497070312 l 1
 196.182617188 926.46484375 l 1
 279.350585938 926.46484375 l 1
 279.350585938 762.497070312 l 1
373.5859375 762.497070312 m 1
 290.41796875 762.497070312 l 1
 290.41796875 926.46484375 l 1
 373.5859375 926.46484375 l 1
 373.5859375 762.497070312 l 1
467.756835938 762.497070312 m 1
 384.588867188 762.497070312 l 1
 384.588867188 926.46484375 l 1
 467.756835938 926.46484375 l 1
 467.756835938 762.497070312 l 1
EndSplineSet
EndChar

StartChar: unie050
Encoding: 337 57424 80
Width: 664
GlyphClass: 1
Flags: W
LayerCount: 2
Fore
SplineSet
463.918945312 540.876953125 m 2
 546.575195312 540.876953125 613.876953125 473.575195312 613.876953125 390.918945312 c 2
 613.876953125 -23 l 1
 530.708984375 -23 l 1
 530.708984375 390.918945312 l 2
 530.708984375 427.705078125 500.768554688 457.708984375 463.918945312 457.708984375 c 2
 200.021484375 457.708984375 l 2
 163.171875 457.708984375 133.16796875 427.768554688 133.16796875 390.918945312 c 2
 133.16796875 349.334960938 l 1
 50 349.334960938 l 1
 50 390.918945312 l 2
 50 473.575195312 117.301757812 540.876953125 200.021484375 540.876953125 c 2
 463.918945312 540.876953125 l 2
EndSplineSet
EndChar

StartChar: unie051
Encoding: 338 57425 81
Width: 664
GlyphClass: 1
Flags: W
LayerCount: 2
Fore
SplineSet
530.708984375 168.541015625 m 1
 613.876953125 168.541015625 l 1
 613.876953125 126.95703125 l 2
 613.876953125 44.2373046875 546.575195312 -23.064453125 463.85546875 -23.064453125 c 2
 199.958007812 -23.064453125 l 2
 117.301757812 -23.064453125 50 44.2373046875 50 126.95703125 c 2
 50 540.875976562 l 1
 133.16796875 540.875976562 l 1
 133.16796875 126.95703125 l 2
 133.16796875 90.107421875 163.108398438 60.103515625 199.958007812 60.103515625 c 2
 463.85546875 60.103515625 l 2
 500.705078125 60.103515625 530.708984375 90.107421875 530.708984375 126.95703125 c 2
 530.708984375 168.541015625 l 1
EndSplineSet
EndChar

StartChar: unie052
Encoding: 339 57426 82
Width: 664
GlyphClass: 1
Flags: W
LayerCount: 2
Fore
SplineSet
463.85546875 540.876953125 m 2
 546.51171875 540.876953125 613.813476562 473.575195312 613.813476562 390.918945312 c 2
 613.813476562 127.021484375 l 2
 613.813476562 44.3017578125 546.51171875 -23 463.85546875 -23 c 2
 199.958007812 -23 l 2
 117.301757812 -23 50 44.3017578125 50 127.021484375 c 2
 50 390.918945312 l 2
 50 473.575195312 117.301757812 540.876953125 199.958007812 540.876953125 c 2
 463.85546875 540.876953125 l 2
530.645507812 126.958007812 m 2
 530.645507812 390.918945312 l 2
 530.645507812 427.705078125 500.705078125 457.708984375 463.85546875 457.708984375 c 2
 199.958007812 457.708984375 l 2
 163.171875 457.708984375 133.16796875 427.768554688 133.16796875 390.918945312 c 2
 133.16796875 126.958007812 l 2
 133.16796875 90.1083984375 163.108398438 60.1044921875 199.958007812 60.1044921875 c 2
 463.85546875 60.1044921875 l 2
 500.641601562 60.1044921875 530.645507812 90.1083984375 530.645507812 126.958007812 c 2
EndSplineSet
EndChar

StartChar: unie053
Encoding: 340 57427 83
Width: 664
GlyphClass: 1
Flags: W
LayerCount: 2
Fore
SplineSet
463.918945312 721.286132812 m 2
 546.638671875 721.286132812 613.940429688 653.983398438 613.940429688 571.327148438 c 2
 613.940429688 127.083984375 l 2
 613.940429688 44.3642578125 546.638671875 -22.9375 463.918945312 -22.9375 c 2
 200.021484375 -22.9375 l 2
 117.301757812 -22.9375 50 44.3642578125 50 127.083984375 c 2
 50 390.981445312 l 2
 50 473.637695312 117.301757812 540.939453125 200.021484375 540.939453125 c 2
 463.918945312 540.939453125 l 2
 488.037109375 540.939453125 510.556640625 534.669921875 530.772460938 524.498046875 c 1
 530.772460938 571.328125 l 2
 530.772460938 608.114257812 500.768554688 638.118164062 463.918945312 638.118164062 c 2
 200.021484375 638.118164062 l 2
 163.171875 638.118164062 133.16796875 608.177734375 133.16796875 571.328125 c 2
 133.16796875 529.744140625 l 1
 50 529.744140625 l 1
 50 571.328125 l 2
 50 653.984375 117.301757812 721.286132812 200.021484375 721.286132812 c 2
 463.918945312 721.286132812 l 2
530.772460938 126.956054688 m 2
 530.772460938 390.916992188 l 2
 530.772460938 427.703125 500.768554688 457.70703125 463.918945312 457.70703125 c 2
 200.021484375 457.70703125 l 2
 163.171875 457.70703125 133.16796875 427.766601562 133.16796875 390.916992188 c 2
 133.16796875 126.956054688 l 2
 133.16796875 90.1064453125 163.171875 60.1025390625 200.021484375 60.1025390625 c 2
 463.918945312 60.1025390625 l 2
 500.768554688 60.1025390625 530.772460938 90.1064453125 530.772460938 126.956054688 c 2
EndSplineSet
EndChar

StartChar: unie054
Encoding: 341 57428 84
Width: 634
GlyphClass: 1
Flags: W
LayerCount: 2
Fore
SplineSet
584.432617188 467.364257812 m 1
 108.80859375 -8.259765625 l 1
 50 50.548828125 l 1
 525.624023438 526.172851562 l 1
 584.432617188 467.364257812 l 1
EndSplineSet
EndChar

StartChar: unie055
Encoding: 342 57429 85
Width: 664
GlyphClass: 1
Flags: W
LayerCount: 2
Fore
SplineSet
463.918945312 540.876953125 m 2
 546.638671875 540.876953125 613.940429688 473.57421875 613.940429688 390.91796875 c 2
 613.940429688 -23.0009765625 l 1
 530.772460938 -23.0009765625 l 1
 530.772460938 150.563476562 l 2
 530.772460938 187.349609375 500.768554688 217.353515625 463.918945312 217.353515625 c 2
 200.021484375 217.353515625 l 2
 163.171875 217.353515625 133.16796875 187.413085938 133.16796875 150.563476562 c 2
 133.16796875 127.020507812 l 2
 133.16796875 90.1708984375 163.171875 60.1669921875 200.021484375 60.1669921875 c 2
 241.60546875 60.1669921875 l 1
 241.60546875 -23.0009765625 l 1
 200.021484375 -23.0009765625 l 2
 117.301757812 -23.0009765625 50 44.30078125 50 127.020507812 c 2
 50 150.563476562 l 2
 50 233.219726562 117.301757812 300.521484375 200.021484375 300.521484375 c 2
 463.918945312 300.521484375 l 2
 488.037109375 300.521484375 510.556640625 294.251953125 530.772460938 284.080078125 c 1
 530.772460938 390.918945312 l 2
 530.772460938 427.705078125 500.768554688 457.708984375 463.918945312 457.708984375 c 2
 220.557617188 457.708984375 l 2
 183.771484375 457.708984375 153.767578125 427.768554688 153.767578125 390.918945312 c 2
 153.767578125 349.334960938 l 1
 70.599609375 349.334960938 l 1
 70.599609375 390.918945312 l 2
 70.599609375 473.575195312 137.901367188 540.876953125 220.557617188 540.876953125 c 2
 463.918945312 540.876953125 l 2
EndSplineSet
EndChar

StartChar: unie056
Encoding: 343 57430 86
Width: 664
GlyphClass: 1
Flags: W
LayerCount: 2
Fore
SplineSet
463.918945312 540.940429688 m 2
 546.575195312 540.940429688 613.876953125 473.637695312 613.876953125 390.91796875 c 2
 613.876953125 127.084960938 l 2
 613.876953125 50.4423828125 556.171875 -12.892578125 481.9609375 -21.8486328125 c 1
 481.9609375 -22.9365234375 l 1
 200.022460938 -22.9365234375 l 2
 117.302734375 -22.9365234375 50.0009765625 44.365234375 50.0009765625 127.021484375 c 2
 50.0009765625 371.022460938 l 2
 50.0009765625 453.678710938 117.302734375 520.98046875 200.022460938 520.98046875 c 2
 241.606445312 520.98046875 l 1
 241.606445312 437.8125 l 1
 200.022460938 437.8125 l 2
 163.172851562 437.8125 133.168945312 407.872070312 133.168945312 371.022460938 c 2
 133.168945312 127.021484375 l 2
 133.168945312 90.2353515625 163.172851562 60.2314453125 200.022460938 60.2314453125 c 2
 306.092773438 60.2314453125 l 1
 295.984375 80.3837890625 290.354492188 103.03125 290.354492188 127.021484375 c 2
 290.354492188 390.918945312 l 2
 290.354492188 473.638671875 357.65625 540.940429688 440.375976562 540.940429688 c 2
 463.918945312 540.940429688 l 2
530.708984375 127.020507812 m 2
 530.708984375 390.91796875 l 2
 530.708984375 427.767578125 500.768554688 457.771484375 463.918945312 457.771484375 c 2
 440.375976562 457.771484375 l 2
 403.526367188 457.771484375 373.522460938 427.767578125 373.522460938 390.91796875 c 2
 373.522460938 127.020507812 l 2
 373.522460938 90.234375 403.526367188 60.23046875 440.375976562 60.23046875 c 2
 463.918945312 60.23046875 l 2
 500.705078125 60.23046875 530.708984375 90.1708984375 530.708984375 127.020507812 c 2
EndSplineSet
EndChar

StartChar: unie057
Encoding: 344 57431 87
Width: 664
GlyphClass: 1
Flags: W
LayerCount: 2
Fore
SplineSet
530.708984375 540.876953125 m 1
 613.876953125 540.876953125 l 1
 613.876953125 -113.333007812 l 2
 613.876953125 -196.052734375 546.575195312 -263.354492188 463.85546875 -263.354492188 c 2
 199.958007812 -263.354492188 l 2
 117.301757812 -263.354492188 50 -196.052734375 50 -113.333007812 c 2
 50 -71.7490234375 l 1
 133.16796875 -71.7490234375 l 1
 133.16796875 -113.333007812 l 2
 133.16796875 -150.182617188 163.108398438 -180.186523438 199.958007812 -180.186523438 c 2
 463.85546875 -180.186523438 l 2
 500.705078125 -180.186523438 530.708984375 -150.182617188 530.708984375 -113.333007812 c 2
 530.708984375 -6.55859375 l 1
 510.493164062 -16.73046875 487.973632812 -23 463.85546875 -23 c 2
 199.958007812 -23 l 2
 117.301757812 -23 50 44.3017578125 50 127.021484375 c 2
 50 390.918945312 l 2
 50 473.575195312 117.301757812 540.876953125 199.958007812 540.876953125 c 2
 241.541992188 540.876953125 l 1
 241.541992188 457.708984375 l 1
 199.958007812 457.708984375 l 2
 163.171875 457.708984375 133.16796875 427.768554688 133.16796875 390.918945312 c 2
 133.16796875 126.958007812 l 2
 133.16796875 90.1083984375 163.108398438 60.1044921875 199.958007812 60.1044921875 c 2
 463.85546875 60.1044921875 l 2
 500.705078125 60.1044921875 530.708984375 90.1083984375 530.708984375 126.958007812 c 2
 530.708984375 540.876953125 l 1
EndSplineSet
EndChar

StartChar: unie058
Encoding: 345 57432 88
Width: 664
GlyphClass: 1
Flags: W
LayerCount: 2
Fore
SplineSet
463.85546875 540.940429688 m 2
 546.51171875 540.940429688 613.813476562 473.638671875 613.813476562 390.918945312 c 2
 613.813476562 146.91796875 l 2
 613.813476562 64.26171875 546.51171875 -3.0400390625 463.85546875 -3.0400390625 c 2
 422.271484375 -3.0400390625 l 1
 422.271484375 80.1279296875 l 1
 463.85546875 80.1279296875 l 2
 500.641601562 80.1279296875 530.645507812 110.068359375 530.645507812 146.91796875 c 2
 530.645507812 390.918945312 l 2
 530.645507812 427.768554688 500.705078125 457.772460938 463.85546875 457.772460938 c 2
 357.78515625 457.772460938 l 1
 367.893554688 437.620117188 373.5234375 414.909179688 373.5234375 390.918945312 c 2
 373.5234375 127.021484375 l 2
 373.5234375 44.365234375 306.221679688 -22.9365234375 223.501953125 -22.9365234375 c 2
 199.958984375 -22.9365234375 l 2
 117.302734375 -22.9365234375 50.0009765625 44.365234375 50.0009765625 127.021484375 c 2
 50.0009765625 390.918945312 l 2
 50.0009765625 467.561523438 107.706054688 530.896484375 181.916992188 539.852539062 c 1
 181.916992188 540.940429688 l 1
 463.85546875 540.940429688 l 2
290.35546875 127.021484375 m 2
 290.35546875 390.918945312 l 2
 290.35546875 427.768554688 260.3515625 457.772460938 223.501953125 457.772460938 c 2
 199.958984375 457.772460938 l 2
 163.172851562 457.772460938 133.168945312 427.768554688 133.168945312 390.918945312 c 2
 133.168945312 127.021484375 l 2
 133.168945312 90.2353515625 163.109375 60.2314453125 199.958984375 60.2314453125 c 2
 223.501953125 60.2314453125 l 2
 260.3515625 60.2314453125 290.35546875 90.171875 290.35546875 127.021484375 c 2
EndSplineSet
EndChar

StartChar: unie059
Encoding: 346 57433 89
Width: 664
GlyphClass: 1
Flags: W
LayerCount: 2
Fore
SplineSet
613.940429688 349.334960938 m 1
 530.8359375 349.334960938 l 1
 530.8359375 390.918945312 l 2
 530.8359375 427.768554688 500.83203125 457.772460938 463.982421875 457.772460938 c 2
 373.5859375 457.772460938 l 1
 373.5859375 367.375976562 l 2
 373.5859375 330.58984375 403.526367188 300.5859375 440.375976562 300.5859375 c 2
 463.918945312 300.5859375 l 2
 546.638671875 300.5859375 613.940429688 233.284179688 613.940429688 150.564453125 c 2
 613.940429688 127.021484375 l 2
 613.940429688 44.3017578125 546.638671875 -23 463.918945312 -23 c 2
 200.021484375 -23 l 2
 117.301757812 -23 50 44.3017578125 50 127.021484375 c 2
 50 150.564453125 l 2
 50 233.284179688 117.301757812 300.5859375 200.021484375 300.5859375 c 2
 223.564453125 300.5859375 l 2
 260.4140625 300.5859375 290.41796875 330.526367188 290.41796875 367.375976562 c 2
 290.41796875 457.772460938 l 1
 200.021484375 457.772460938 l 2
 163.171875 457.772460938 133.16796875 427.768554688 133.16796875 390.918945312 c 2
 133.16796875 349.334960938 l 1
 50 349.334960938 l 1
 50 390.918945312 l 2
 50 473.638671875 117.301757812 540.940429688 200.021484375 540.940429688 c 2
 463.918945312 540.940429688 l 2
 546.638671875 540.940429688 613.940429688 473.638671875 613.940429688 390.918945312 c 2
 613.940429688 349.334960938 l 1
440.375 217.41796875 m 2
 397.831054688 217.41796875 359.318359375 235.266601562 332.000976562 263.86328125 c 1
 304.68359375 235.266601562 266.170898438 217.41796875 223.563476562 217.41796875 c 2
 200.020507812 217.41796875 l 2
 163.170898438 217.41796875 133.166992188 187.4140625 133.166992188 150.564453125 c 2
 133.166992188 127.021484375 l 2
 133.166992188 90.171875 163.170898438 60.16796875 200.020507812 60.16796875 c 2
 463.91796875 60.16796875 l 2
 500.767578125 60.16796875 530.771484375 90.171875 530.771484375 127.021484375 c 2
 530.771484375 150.564453125 l 2
 530.771484375 187.4140625 500.767578125 217.41796875 463.91796875 217.41796875 c 2
 440.375 217.41796875 l 2
EndSplineSet
EndChar

StartChar: unie05a
Encoding: 347 57434 90
Width: 664
GlyphClass: 1
Flags: W
LayerCount: 2
Fore
SplineSet
219.853515625 540.876953125 m 2
 463.91796875 540.875 l 2
 546.57421875 540.875 613.875976562 473.573242188 613.875976562 390.916992188 c 2
 612.788085938 108.978515625 l 1
 603.83203125 34.767578125 540.432617188 -22.9375 463.854492188 -22.9375 c 2
 199.95703125 -22.9375 l 2
 117.30078125 -22.9375 49.9990234375 44.3642578125 49.9990234375 127.020507812 c 2
 49.9990234375 150.563476562 l 2
 49.9990234375 233.219726562 117.30078125 300.521484375 199.95703125 300.521484375 c 2
 463.854492188 300.521484375 l 2
 487.844726562 300.521484375 510.4921875 294.828125 530.64453125 284.784179688 c 1
 530.64453125 390.918945312 l 2
 530.64453125 427.705078125 500.704101562 457.708984375 463.854492188 457.708984375 c 2
 219.853515625 457.708984375 l 2
 183.067382812 457.708984375 153.063476562 427.768554688 153.063476562 390.918945312 c 2
 153.063476562 349.334960938 l 1
 69.8955078125 349.334960938 l 1
 69.8955078125 390.918945312 l 2
 69.8955078125 473.575195312 137.197265625 540.876953125 219.853515625 540.876953125 c 2
530.643554688 126.956054688 m 2
 530.643554688 150.499023438 l 2
 530.643554688 187.28515625 500.703125 217.2890625 463.853515625 217.2890625 c 2
 199.956054688 217.2890625 l 2
 163.169921875 217.2890625 133.166015625 187.348632812 133.166015625 150.499023438 c 2
 133.166015625 126.956054688 l 2
 133.166015625 90.169921875 163.106445312 60.166015625 199.956054688 60.166015625 c 2
 463.853515625 60.166015625 l 2
 500.639648438 60.166015625 530.643554688 90.1064453125 530.643554688 126.956054688 c 2
EndSplineSet
EndChar

StartChar: unie05b
Encoding: 348 57435 91
Width: 664
GlyphClass: 1
Flags: W
LayerCount: 2
Fore
SplineSet
200.021484375 540.876953125 m 2
 613.876953125 540.876953125 l 1
 613.876953125 457.708984375 l 1
 597.435546875 457.708984375 l 1
 607.607421875 437.556640625 613.876953125 415.037109375 613.876953125 390.918945312 c 2
 613.876953125 127.021484375 l 2
 613.876953125 44.365234375 546.575195312 -22.9365234375 463.918945312 -22.9365234375 c 2
 200.021484375 -22.9365234375 l 2
 117.301757812 -22.9365234375 50 44.365234375 50 127.021484375 c 2
 50 390.918945312 l 2
 50 473.575195312 117.301757812 540.876953125 200.021484375 540.876953125 c 2
530.7734375 390.918945312 m 2
 530.7734375 427.705078125 500.833007812 457.708984375 463.983398438 457.708984375 c 2
 200.0859375 457.708984375 l 2
 163.236328125 457.708984375 133.232421875 427.768554688 133.232421875 390.918945312 c 2
 133.232421875 127.021484375 l 2
 133.232421875 90.2353515625 163.236328125 60.2314453125 200.0859375 60.2314453125 c 2
 463.983398438 60.2314453125 l 2
 500.76953125 60.2314453125 530.7734375 90.171875 530.7734375 127.021484375 c 2
 530.7734375 390.918945312 l 2
EndSplineSet
EndChar

StartChar: unie05c
Encoding: 349 57436 92
Width: 664
GlyphClass: 1
Flags: W
LayerCount: 2
Fore
SplineSet
200.021484375 540.876953125 m 2
 613.940429688 540.876953125 l 1
 613.940429688 -113.396484375 l 2
 613.940429688 -196.116210938 546.638671875 -263.41796875 463.918945312 -263.41796875 c 2
 200.021484375 -263.41796875 l 2
 117.301757812 -263.41796875 50 -196.116210938 50 -113.396484375 c 2
 50 -71.8125 l 1
 133.16796875 -71.8125 l 1
 133.16796875 -113.396484375 l 2
 133.16796875 -150.24609375 163.171875 -180.25 200.021484375 -180.25 c 2
 463.918945312 -180.25 l 2
 500.768554688 -180.25 530.772460938 -150.24609375 530.772460938 -113.396484375 c 2
 530.772460938 457.708984375 l 1
 200.021484375 457.708984375 l 2
 163.171875 457.708984375 133.16796875 427.768554688 133.16796875 390.918945312 c 2
 133.16796875 349.334960938 l 1
 50 349.334960938 l 1
 50 390.918945312 l 2
 50 473.575195312 117.301757812 540.876953125 200.021484375 540.876953125 c 2
EndSplineSet
EndChar

StartChar: unie05d
Encoding: 350 57437 93
Width: 664
GlyphClass: 1
Flags: W
LayerCount: 2
Fore
SplineSet
373.553710938 540.876953125 m 1
 463.88671875 540.876953125 l 2
 546.54296875 540.876953125 613.844726562 473.575195312 613.844726562 390.918945312 c 2
 613.844726562 127.021484375 l 2
 613.844726562 44.3017578125 546.54296875 -23 463.88671875 -23 c 2
 422.302734375 -23 l 1
 422.302734375 60.16796875 l 1
 463.88671875 60.16796875 l 2
 500.672851562 60.16796875 530.676757812 90.171875 530.676757812 127.021484375 c 2
 530.676757812 390.918945312 l 2
 530.676757812 427.705078125 500.736328125 457.708984375 463.88671875 457.708984375 c 2
 373.490234375 457.708984375 l 1
 373.490234375 127.021484375 l 2
 373.490234375 44.3017578125 306.188476562 -23 223.532226562 -23 c 2
 199.989257812 -23 l 2
 117.333007812 -23 50.03125 44.3017578125 50.03125 127.021484375 c 2
 50.03125 390.918945312 l 2
 50.03125 473.575195312 117.333007812 540.876953125 199.989257812 540.876953125 c 2
 290.385742188 540.876953125 l 1
 290.385742188 571.329101562 l 2
 290.385742188 608.115234375 260.4453125 638.119140625 223.595703125 638.119140625 c 2
 182.01171875 638.119140625 l 1
 182.01171875 721.287109375 l 1
 223.595703125 721.287109375 l 2
 306.251953125 721.287109375 373.553710938 653.985351562 373.553710938 571.329101562 c 2
 373.553710938 540.876953125 l 1
290.385742188 126.958007812 m 1
 290.44921875 126.958007812 l 1
 290.44921875 457.708984375 l 1
 200.052734375 457.708984375 l 2
 163.266601562 457.708984375 133.262695312 427.768554688 133.262695312 390.918945312 c 2
 133.262695312 126.958007812 l 2
 133.262695312 90.1083984375 163.203125 60.1044921875 200.052734375 60.1044921875 c 2
 223.595703125 60.1044921875 l 2
 260.381835938 60.1044921875 290.385742188 90.1083984375 290.385742188 126.958007812 c 1
EndSplineSet
EndChar

StartChar: unie05e
Encoding: 351 57438 94
Width: 664
GlyphClass: 1
Flags: W
LayerCount: 2
Fore
SplineSet
440.471679688 540.876953125 m 2
 463.885742188 540.875976562 l 2
 546.60546875 540.875976562 613.907226562 473.57421875 613.907226562 390.91796875 c 2
 613.907226562 127.084960938 l 2
 613.907226562 50.5068359375 556.202148438 -12.892578125 481.991210938 -21.8486328125 c 1
 481.991210938 -22.9365234375 l 1
 422.366210938 -21.8486328125 l 1
 348.155273438 -12.892578125 290.450195312 50.5068359375 290.450195312 127.084960938 c 2
 290.450195312 150.627929688 l 2
 290.450195312 187.4140625 260.509765625 217.41796875 223.66015625 217.41796875 c 2
 133.263671875 217.41796875 l 1
 133.263671875 127.021484375 l 2
 133.263671875 90.171875 163.267578125 60.16796875 200.1171875 60.16796875 c 2
 241.701171875 60.16796875 l 1
 241.701171875 -23 l 1
 200.1171875 -23 l 2
 117.397460938 -23 50.095703125 44.3017578125 50.095703125 127.021484375 c 2
 50.095703125 390.918945312 l 2
 50.095703125 473.575195312 117.397460938 540.876953125 200.1171875 540.876953125 c 2
 241.701171875 540.876953125 l 1
 241.701171875 457.708984375 l 1
 200.1171875 457.708984375 l 2
 163.267578125 457.708984375 133.263671875 427.768554688 133.263671875 390.918945312 c 2
 133.263671875 300.522460938 l 1
 223.66015625 300.522460938 l 2
 260.446289062 300.522460938 290.450195312 330.526367188 290.450195312 367.375976562 c 2
 290.450195312 390.918945312 l 2
 290.450195312 473.575195312 357.751953125 540.876953125 440.471679688 540.876953125 c 2
530.8671875 126.95703125 m 2
 530.8671875 390.854492188 l 2
 530.8671875 427.640625 500.86328125 457.64453125 464.013671875 457.64453125 c 2
 440.470703125 457.64453125 l 2
 403.62109375 457.64453125 373.6171875 427.704101562 373.6171875 390.854492188 c 2
 373.6171875 367.311523438 l 2
 373.6171875 324.704101562 355.768554688 286.19140625 327.171875 258.874023438 c 1
 355.768554688 231.556640625 373.6171875 193.107421875 373.6171875 150.5 c 2
 373.6171875 126.95703125 l 2
 373.6171875 90.107421875 403.62109375 60.103515625 440.470703125 60.103515625 c 2
 464.013671875 60.103515625 l 2
 500.86328125 60.103515625 530.8671875 90.107421875 530.8671875 126.95703125 c 2
EndSplineSet
EndChar

StartChar: unie05f
Encoding: 352 57439 95
Width: 664
GlyphClass: 1
Flags: W
LayerCount: 2
Fore
SplineSet
220.4296875 540.876953125 m 2
 463.919921875 540.875976562 l 2
 546.576171875 540.875976562 613.877929688 473.57421875 613.877929688 390.91796875 c 2
 613.877929688 -23.0009765625 l 1
 199.958984375 -23.0009765625 l 2
 117.302734375 -23.0009765625 50.0009765625 44.30078125 50.0009765625 127.020507812 c 2
 50.0009765625 150.563476562 l 2
 50.0009765625 233.219726562 117.302734375 300.521484375 199.958984375 300.521484375 c 2
 463.856445312 300.521484375 l 2
 487.974609375 300.521484375 510.4296875 294.251953125 530.645507812 284.080078125 c 1
 530.645507812 390.918945312 l 2
 530.645507812 427.705078125 500.705078125 457.708984375 463.85546875 457.708984375 c 2
 220.4296875 457.708984375 l 2
 183.643554688 457.708984375 153.639648438 427.768554688 153.639648438 390.918945312 c 2
 153.639648438 349.334960938 l 1
 70.4716796875 349.334960938 l 1
 70.4716796875 390.918945312 l 2
 70.4716796875 473.575195312 137.7734375 540.876953125 220.4296875 540.876953125 c 2
199.89453125 60.103515625 m 2
 530.58203125 60.103515625 l 1
 530.58203125 150.5 l 2
 530.58203125 187.286132812 500.641601562 217.290039062 463.791992188 217.290039062 c 2
 199.89453125 217.290039062 l 2
 163.108398438 217.290039062 133.104492188 187.349609375 133.104492188 150.5 c 2
 133.104492188 126.95703125 l 2
 133.104492188 90.107421875 163.044921875 60.103515625 199.89453125 60.103515625 c 2
EndSplineSet
EndChar

StartChar: unie060
Encoding: 353 57440 96
Width: 664
GlyphClass: 1
Flags: W
LayerCount: 2
Fore
SplineSet
463.983398438 540.876953125 m 2
 546.703125 540.876953125 614.005859375 473.575195312 614.005859375 390.918945312 c 2
 614.005859375 127.021484375 l 2
 614.005859375 44.3017578125 546.704101562 -23 463.984375 -23 c 2
 440.44140625 -23 l 2
 397.706054688 -23 359.321289062 -4.8310546875 332.00390625 23.8935546875 c 1
 304.622070312 -4.8310546875 266.30078125 -23 223.565429688 -23 c 2
 200.022460938 -23 l 2
 117.302734375 -23 50.0009765625 44.3017578125 50.0009765625 127.021484375 c 2
 50.0009765625 390.918945312 l 2
 50.0009765625 473.575195312 117.302734375 540.876953125 200.022460938 540.876953125 c 2
 241.606445312 540.876953125 l 1
 241.606445312 457.708984375 l 1
 200.022460938 457.708984375 l 2
 163.172851562 457.708984375 133.168945312 427.768554688 133.168945312 390.918945312 c 2
 133.168945312 127.021484375 l 2
 133.168945312 90.171875 163.172851562 60.16796875 200.022460938 60.16796875 c 2
 223.565429688 60.16796875 l 2
 260.415039062 60.16796875 290.418945312 90.171875 290.418945312 127.021484375 c 2
 290.418945312 432.502929688 l 1
 373.586914062 432.502929688 l 1
 373.586914062 127.021484375 l 2
 373.586914062 90.171875 403.590820312 60.16796875 440.440429688 60.16796875 c 2
 463.983398438 60.16796875 l 2
 500.833007812 60.16796875 530.836914062 90.171875 530.836914062 127.021484375 c 2
 530.836914062 390.918945312 l 2
 530.836914062 427.705078125 500.833007812 457.708984375 463.983398438 457.708984375 c 2
 422.399414062 457.708984375 l 1
 422.399414062 540.876953125 l 1
 463.983398438 540.876953125 l 2
EndSplineSet
EndChar

StartChar: unie061
Encoding: 354 57441 97
Width: 664
GlyphClass: 1
Flags: W
LayerCount: 2
Fore
SplineSet
463.85546875 540.876953125 m 2
 546.51171875 540.876953125 613.814453125 473.575195312 613.814453125 390.918945312 c 2
 613.814453125 -113.333007812 l 2
 613.814453125 -196.052734375 546.512695312 -263.354492188 463.856445312 -263.354492188 c 2
 199.958984375 -263.354492188 l 2
 117.302734375 -263.354492188 50.0009765625 -196.052734375 50.0009765625 -113.333007812 c 2
 50.0009765625 -71.7490234375 l 1
 133.168945312 -71.7490234375 l 1
 133.168945312 -113.333007812 l 2
 133.168945312 -150.182617188 163.109375 -180.186523438 199.958984375 -180.186523438 c 2
 463.856445312 -180.186523438 l 2
 500.642578125 -180.186523438 530.646484375 -150.182617188 530.646484375 -113.333007812 c 2
 530.646484375 -6.55859375 l 1
 510.494140625 -16.73046875 487.974609375 -23 463.856445312 -23 c 2
 440.313476562 -23 l 2
 397.641601562 -23 359.256835938 -4.8310546875 331.939453125 23.8935546875 c 1
 304.557617188 -4.8310546875 266.236328125 -23 223.500976562 -23 c 2
 199.958007812 -23 l 2
 117.301757812 -23 50 44.3017578125 50 127.021484375 c 2
 50 390.918945312 l 2
 50 473.575195312 117.301757812 540.876953125 199.958007812 540.876953125 c 2
 241.541992188 540.876953125 l 1
 241.541992188 457.708984375 l 1
 199.958007812 457.708984375 l 2
 163.171875 457.708984375 133.16796875 427.768554688 133.16796875 390.918945312 c 2
 133.16796875 127.021484375 l 2
 133.16796875 90.171875 163.108398438 60.16796875 199.958007812 60.16796875 c 2
 223.500976562 60.16796875 l 2
 260.350585938 60.16796875 290.354492188 90.171875 290.354492188 127.021484375 c 2
 290.354492188 432.502929688 l 1
 373.522460938 432.502929688 l 1
 373.522460938 127.021484375 l 2
 373.522460938 90.171875 403.462890625 60.16796875 440.3125 60.16796875 c 2
 463.85546875 60.16796875 l 2
 500.641601562 60.16796875 530.645507812 90.171875 530.645507812 127.021484375 c 2
 530.645507812 390.918945312 l 2
 530.645507812 427.705078125 500.705078125 457.708984375 463.85546875 457.708984375 c 2
 422.271484375 457.708984375 l 1
 422.271484375 540.876953125 l 1
 463.85546875 540.876953125 l 2
EndSplineSet
EndChar

StartChar: unie062
Encoding: 355 57442 98
Width: 904
GlyphClass: 1
Flags: W
LayerCount: 2
Fore
SplineSet
704.337890625 540.876953125 m 2
 787.057617188 540.876953125 854.359375 473.576171875 854.359375 390.919921875 c 2
 854.359375 127.022460938 l 2
 854.359375 44.302734375 787.057617188 -22.9990234375 704.337890625 -22.9990234375 c 2
 639.2109375 -22.9990234375 l 1
 639.2109375 60.1689453125 l 1
 704.337890625 60.1689453125 l 2
 741.1875 60.1689453125 771.19140625 90.1728515625 771.19140625 127.022460938 c 2
 771.19140625 390.919921875 l 2
 771.19140625 427.706054688 741.1875 457.709960938 704.337890625 457.709960938 c 2
 680.794921875 457.709960938 l 2
 643.9453125 457.709960938 613.94140625 427.76953125 613.94140625 390.919921875 c 2
 613.94140625 127.022460938 l 2
 613.94140625 44.302734375 546.639648438 -22.9990234375 463.919921875 -22.9990234375 c 2
 398.79296875 -22.9990234375 l 1
 398.79296875 60.1689453125 l 1
 463.919921875 60.1689453125 l 2
 500.76953125 60.1689453125 530.7734375 90.1728515625 530.7734375 127.022460938 c 2
 530.7734375 390.919921875 l 2
 530.7734375 427.706054688 500.76953125 457.709960938 463.919921875 457.709960938 c 2
 440.376953125 457.709960938 l 2
 403.52734375 457.709960938 373.5234375 427.76953125 373.5234375 390.919921875 c 2
 373.5234375 127.022460938 l 2
 373.5234375 44.302734375 306.221679688 -22.9990234375 223.565429688 -22.9990234375 c 2
 200.022460938 -22.9990234375 l 2
 117.302734375 -22.9990234375 50.0009765625 44.302734375 50.0009765625 127.022460938 c 2
 50.0009765625 390.919921875 l 2
 50.0009765625 467.5625 107.706054688 530.897460938 181.981445312 539.853515625 c 1
 181.981445312 540.94140625 l 1
 241.606445312 539.853515625 l 2
 277.048828125 535.567382812 308.524414062 518.614257812 331.939453125 493.983398438 c 1
 359.256835938 522.708007812 397.641601562 540.876953125 440.376953125 540.876953125 c 2
 463.919921875 540.876953125 l 2
 506.655273438 540.876953125 545.040039062 522.708007812 572.357421875 493.983398438 c 1
 599.73828125 522.708007812 638.059570312 540.876953125 680.794921875 540.876953125 c 2
 704.337890625 540.876953125 l 2
290.418945312 126.958984375 m 2
 290.418945312 390.919921875 l 2
 290.418945312 427.706054688 260.478515625 457.709960938 223.62890625 457.709960938 c 2
 200.0859375 457.709960938 l 2
 163.236328125 457.709960938 133.232421875 427.76953125 133.232421875 390.919921875 c 2
 133.232421875 126.958984375 l 2
 133.232421875 90.109375 163.236328125 60.10546875 200.0859375 60.10546875 c 2
 223.62890625 60.10546875 l 2
 260.415039062 60.10546875 290.418945312 90.109375 290.418945312 126.958984375 c 2
EndSplineSet
EndChar

StartChar: unie063
Encoding: 356 57443 99
Width: 664
GlyphClass: 1
Flags: W
LayerCount: 2
Fore
SplineSet
463.85546875 540.940429688 m 1
 463.85546875 540.875976562 l 1
 546.51171875 540.875976562 613.813476562 473.57421875 613.813476562 390.91796875 c 2
 613.813476562 127.020507812 l 2
 613.813476562 44.30078125 546.51171875 -23.0009765625 463.85546875 -23.0009765625 c 2
 422.271484375 -23.0009765625 l 1
 422.271484375 60.1669921875 l 1
 463.85546875 60.1669921875 l 2
 500.641601562 60.1669921875 530.645507812 90.1708984375 530.645507812 127.020507812 c 2
 530.645507812 390.91796875 l 2
 530.645507812 427.704101562 500.705078125 457.708007812 463.85546875 457.708007812 c 2
 440.3125 457.708007812 l 2
 403.526367188 457.708007812 373.522460938 427.767578125 373.522460938 390.91796875 c 2
 373.522460938 127.020507812 l 2
 373.522460938 44.30078125 306.220703125 -23.0009765625 223.500976562 -23.0009765625 c 2
 199.958007812 -23.0009765625 l 2
 117.301757812 -23.0009765625 50 44.30078125 50 127.020507812 c 2
 50 390.91796875 l 2
 50 473.57421875 117.301757812 540.875976562 199.958007812 540.875976562 c 2
 241.541992188 540.875976562 l 1
 241.541992188 457.708007812 l 1
 199.958007812 457.708007812 l 2
 163.171875 457.708007812 133.16796875 427.767578125 133.16796875 390.91796875 c 2
 133.16796875 127.084960938 l 2
 133.16796875 90.2353515625 163.108398438 60.2314453125 199.958007812 60.2314453125 c 2
 223.500976562 60.2314453125 l 2
 260.350585938 60.2314453125 290.354492188 90.2353515625 290.354492188 127.084960938 c 2
 290.354492188 390.982421875 l 2
 290.354492188 473.638671875 357.65625 540.940429688 440.3125 540.940429688 c 2
 463.85546875 540.940429688 l 1
EndSplineSet
EndChar

StartChar: unie064
Encoding: 357 57444 100
Width: 664
GlyphClass: 1
Flags: W
LayerCount: 2
Fore
SplineSet
613.940429688 390.918945312 m 2
 613.172851562 192.147460938 l 1
 613.940429688 192.147460938 l 1
 613.940429688 -113.333984375 l 2
 613.940429688 -196.053710938 546.638671875 -263.35546875 463.918945312 -263.35546875 c 2
 200.021484375 -263.35546875 l 2
 117.301757812 -263.35546875 50 -196.053710938 50 -113.333984375 c 2
 50 -71.75 l 1
 133.16796875 -71.75 l 1
 133.16796875 -113.333984375 l 2
 133.16796875 -150.18359375 163.171875 -180.1875 200.021484375 -180.1875 c 2
 463.918945312 -180.1875 l 2
 500.768554688 -180.1875 530.772460938 -150.18359375 530.772460938 -113.333984375 c 2
 530.772460938 -6.5595703125 l 1
 510.556640625 -16.66796875 488.037109375 -22.9375 463.918945312 -22.9375 c 2
 200.021484375 -22.9375 l 2
 117.301757812 -22.9375 50 44.3642578125 50 127.020507812 c 2
 50 150.563476562 l 2
 50 233.219726562 117.301757812 300.521484375 200.021484375 300.521484375 c 2
 463.918945312 300.521484375 l 2
 487.909179688 300.521484375 510.620117188 294.828125 530.772460938 284.784179688 c 1
 530.772460938 390.918945312 l 2
 530.772460938 427.705078125 500.768554688 457.708984375 463.918945312 457.708984375 c 2
 219.91796875 457.708984375 l 2
 183.068359375 457.708984375 153.064453125 427.768554688 153.064453125 390.918945312 c 2
 153.064453125 349.334960938 l 1
 69.896484375 349.334960938 l 1
 69.896484375 390.918945312 l 2
 69.896484375 473.575195312 137.198242188 540.876953125 219.91796875 540.876953125 c 2
 463.918945312 540.876953125 l 2
 546.638671875 540.876953125 613.940429688 473.575195312 613.940429688 390.918945312 c 2
530.772460938 127.020507812 m 2
 530.772460938 150.563476562 l 2
 530.772460938 187.349609375 500.768554688 217.353515625 463.918945312 217.353515625 c 2
 200.021484375 217.353515625 l 2
 163.171875 217.353515625 133.16796875 187.413085938 133.16796875 150.563476562 c 2
 133.16796875 127.020507812 l 2
 133.16796875 90.234375 163.171875 60.23046875 200.021484375 60.23046875 c 2
 463.918945312 60.23046875 l 2
 500.768554688 60.23046875 530.772460938 90.1708984375 530.772460938 127.020507812 c 2
EndSplineSet
EndChar

StartChar: unie065
Encoding: 358 57445 101
Width: 664
GlyphClass: 1
Flags: W
LayerCount: 2
Fore
SplineSet
613.876953125 349.334960938 m 1
 530.645507812 349.3359375 l 1
 530.645507812 390.919921875 l 2
 530.645507812 427.706054688 500.705078125 457.709960938 463.85546875 457.709960938 c 2
 440.3125 457.709960938 l 2
 403.526367188 457.709960938 373.522460938 427.76953125 373.522460938 390.919921875 c 2
 373.522460938 127.022460938 l 2
 373.522460938 90.1728515625 403.462890625 60.1689453125 440.3125 60.1689453125 c 2
 463.85546875 60.1689453125 l 2
 500.641601562 60.1689453125 530.645507812 90.1728515625 530.645507812 127.022460938 c 2
 530.645507812 168.606445312 l 1
 613.813476562 168.606445312 l 1
 613.813476562 127.022460938 l 2
 613.813476562 44.302734375 546.51171875 -22.9990234375 463.85546875 -22.9990234375 c 2
 440.3125 -22.9990234375 l 2
 397.640625 -22.9990234375 359.255859375 -4.830078125 331.938476562 23.89453125 c 1
 304.62109375 -4.830078125 266.236328125 -22.9990234375 223.500976562 -22.9990234375 c 2
 199.958007812 -22.9990234375 l 2
 117.301757812 -22.9990234375 50 44.302734375 50 127.022460938 c 2
 50 390.919921875 l 2
 50 467.5625 107.705078125 530.897460938 181.916015625 539.853515625 c 1
 181.916015625 540.94140625 l 1
 241.541015625 539.853515625 l 2
 277.046875 535.567382812 308.522460938 518.614257812 331.9375 493.983398438 c 1
 359.319335938 522.708007812 397.640625 540.876953125 440.375976562 540.876953125 c 2
 463.918945312 540.876953125 l 2
 546.575195312 540.876953125 613.876953125 473.575195312 613.876953125 390.918945312 c 2
 613.876953125 349.334960938 l 1
290.35546875 127.022460938 m 2
 290.35546875 390.918945312 l 2
 290.35546875 427.705078125 260.3515625 457.708984375 223.501953125 457.708984375 c 2
 199.958984375 457.708984375 l 2
 163.172851562 457.708984375 133.168945312 427.768554688 133.168945312 390.918945312 c 2
 133.168945312 127.021484375 l 2
 133.168945312 90.171875 163.109375 60.16796875 199.958984375 60.16796875 c 2
 223.501953125 60.16796875 l 2
 260.3515625 60.16796875 290.35546875 90.1083984375 290.35546875 127.022460938 c 2
EndSplineSet
EndChar

StartChar: unie066
Encoding: 359 57446 102
Width: 664
GlyphClass: 1
Flags: W
LayerCount: 2
Fore
SplineSet
200.021484375 540.876953125 m 2
 613.876953125 540.876953125 l 1
 613.876953125 -113.333007812 l 2
 613.876953125 -196.052734375 546.575195312 -263.354492188 463.918945312 -263.354492188 c 2
 200.021484375 -263.354492188 l 2
 117.301757812 -263.354492188 50 -196.052734375 50 -113.333007812 c 2
 50 -71.7490234375 l 1
 133.16796875 -71.7490234375 l 1
 133.16796875 -113.333007812 l 2
 133.16796875 -150.182617188 163.171875 -180.186523438 200.021484375 -180.186523438 c 2
 463.918945312 -180.186523438 l 2
 500.705078125 -180.186523438 530.708984375 -150.182617188 530.708984375 -113.333007812 c 2
 530.708984375 -6.55859375 l 1
 510.556640625 -16.73046875 488.037109375 -23 463.918945312 -23 c 2
 200.021484375 -23 l 2
 117.301757812 -23 50 44.3017578125 50 127.021484375 c 2
 50 390.918945312 l 2
 50 473.575195312 117.301757812 540.876953125 200.021484375 540.876953125 c 2
530.7734375 192.084960938 m 1
 530.836914062 192.083984375 l 1
 530.836914062 457.708984375 l 1
 200.0859375 457.708984375 l 2
 163.236328125 457.708984375 133.232421875 427.768554688 133.232421875 390.918945312 c 2
 133.232421875 126.958007812 l 2
 133.232421875 90.1083984375 163.236328125 60.1044921875 200.0859375 60.1044921875 c 2
 463.983398438 60.1044921875 l 2
 500.76953125 60.1044921875 530.7734375 90.1083984375 530.7734375 126.958007812 c 2
 530.7734375 192.084960938 l 1
EndSplineSet
EndChar

StartChar: unie067
Encoding: 360 57447 103
Width: 664
GlyphClass: 1
Flags: W
LayerCount: 2
Fore
SplineSet
463.85546875 540.876953125 m 2
 546.51171875 540.876953125 613.813476562 473.575195312 613.813476562 390.918945312 c 2
 613.813476562 -113.396484375 l 2
 613.813476562 -196.116210938 546.51171875 -263.41796875 463.85546875 -263.41796875 c 2
 422.271484375 -263.41796875 l 1
 422.271484375 -180.25 l 1
 463.85546875 -180.25 l 2
 500.641601562 -180.25 530.645507812 -150.24609375 530.645507812 -113.396484375 c 2
 530.645507812 390.918945312 l 2
 530.645507812 427.705078125 500.705078125 457.708984375 463.85546875 457.708984375 c 2
 357.78515625 457.708984375 l 1
 367.893554688 437.556640625 373.5234375 414.909179688 373.5234375 390.918945312 c 2
 373.5234375 126.958007812 l 2
 373.5234375 44.23828125 306.221679688 -23.0634765625 223.501953125 -23.0634765625 c 2
 199.958984375 -23.0634765625 l 2
 117.302734375 -23.0634765625 50.0009765625 44.23828125 50.0009765625 126.958007812 c 2
 50.0009765625 390.85546875 l 2
 50.0009765625 467.498046875 107.706054688 530.833007812 181.916992188 539.7890625 c 1
 181.916992188 540.876953125 l 1
 463.85546875 540.876953125 l 2
290.35546875 126.958007812 m 2
 290.35546875 390.918945312 l 2
 290.35546875 427.705078125 260.3515625 457.708984375 223.501953125 457.708984375 c 2
 199.958984375 457.708984375 l 2
 163.172851562 457.708984375 133.168945312 427.768554688 133.168945312 390.918945312 c 2
 133.168945312 126.958007812 l 2
 133.168945312 90.1083984375 163.109375 60.1044921875 199.958984375 60.1044921875 c 2
 223.501953125 60.1044921875 l 2
 260.3515625 60.1044921875 290.35546875 90.1083984375 290.35546875 126.958007812 c 2
EndSplineSet
EndChar

StartChar: unie068
Encoding: 361 57448 104
Width: 664
GlyphClass: 1
Flags: W
LayerCount: 2
Fore
SplineSet
200.021484375 217.41796875 m 2
 163.171875 217.41796875 133.16796875 187.477539062 133.16796875 150.627929688 c 2
 133.16796875 127.084960938 l 2
 133.16796875 90.2353515625 163.171875 60.2314453125 200.021484375 60.2314453125 c 2
 463.918945312 60.2314453125 l 2
 500.768554688 60.2314453125 530.772460938 90.2353515625 530.772460938 127.084960938 c 2
 530.772460938 168.668945312 l 1
 613.940429688 168.668945312 l 1
 613.940429688 127.084960938 l 2
 613.940429688 44.365234375 546.638671875 -22.9365234375 463.918945312 -22.9365234375 c 2
 200.021484375 -22.9365234375 l 2
 117.301757812 -22.9365234375 50 44.365234375 50 127.084960938 c 2
 50 150.627929688 l 2
 50 233.284179688 117.301757812 300.5859375 200.021484375 300.5859375 c 2
 463.918945312 300.5859375 l 2
 500.768554688 300.5859375 530.772460938 330.58984375 530.772460938 367.439453125 c 2
 530.772460938 390.982421875 l 2
 530.772460938 427.768554688 500.768554688 457.772460938 463.918945312 457.772460938 c 2
 200.021484375 457.772460938 l 2
 163.171875 457.772460938 133.16796875 427.83203125 133.16796875 390.982421875 c 2
 133.16796875 349.3984375 l 1
 50 349.3984375 l 1
 50 390.982421875 l 2
 50 473.638671875 117.301757812 540.940429688 200.021484375 540.940429688 c 2
 463.918945312 540.940429688 l 2
 546.638671875 540.940429688 613.940429688 473.638671875 613.940429688 390.982421875 c 2
 613.940429688 367.439453125 l 2
 613.940429688 284.719726562 546.638671875 217.41796875 463.918945312 217.41796875 c 2
 200.021484375 217.41796875 l 2
EndSplineSet
EndChar

StartChar: unie069
Encoding: 362 57449 105
Width: 664
GlyphClass: 1
Flags: W
LayerCount: 2
Fore
SplineSet
463.85546875 540.940429688 m 2
 546.51171875 540.940429688 613.813476562 473.638671875 613.813476562 390.918945312 c 2
 613.813476562 -23 l 1
 530.645507812 -23 l 1
 530.645507812 390.918945312 l 2
 530.645507812 427.768554688 500.705078125 457.772460938 463.85546875 457.772460938 c 2
 440.3125 457.772460938 l 2
 403.462890625 457.772460938 373.458984375 427.768554688 373.458984375 390.918945312 c 2
 373.458984375 -23 l 1
 290.291015625 -23 l 1
 290.291015625 390.918945312 l 2
 290.291015625 427.768554688 260.350585938 457.772460938 223.500976562 457.772460938 c 2
 199.958007812 457.772460938 l 2
 163.171875 457.772460938 133.16796875 427.768554688 133.16796875 390.918945312 c 2
 133.16796875 349.334960938 l 1
 50 349.334960938 l 1
 50 390.918945312 l 2
 50 473.638671875 117.301757812 540.940429688 199.958007812 540.940429688 c 2
 223.500976562 540.940429688 l 2
 266.172851562 540.940429688 304.557617188 522.771484375 331.875 494.046875 c 1
 359.255859375 522.771484375 397.577148438 540.940429688 440.3125 540.940429688 c 2
 463.85546875 540.940429688 l 2
EndSplineSet
EndChar

StartChar: unie06a
Encoding: 363 57450 106
Width: 664
GlyphClass: 1
Flags: W
LayerCount: 2
Fore
SplineSet
463.918945312 540.940429688 m 1
 463.918945312 540.875976562 l 1
 546.638671875 540.875976562 613.940429688 473.57421875 613.940429688 390.91796875 c 2
 613.940429688 127.020507812 l 2
 613.940429688 44.30078125 546.638671875 -23.0009765625 463.918945312 -23.0009765625 c 2
 440.375976562 -23.0009765625 l 2
 357.719726562 -23.0009765625 290.41796875 44.30078125 290.41796875 127.020507812 c 2
 290.41796875 390.91796875 l 2
 290.41796875 427.704101562 260.4140625 457.708007812 223.564453125 457.708007812 c 2
 200.021484375 457.708007812 l 2
 163.171875 457.708007812 133.16796875 427.767578125 133.16796875 390.91796875 c 2
 133.16796875 127.020507812 l 2
 133.16796875 90.1708984375 163.171875 60.1669921875 200.021484375 60.1669921875 c 2
 241.60546875 60.1669921875 l 1
 241.60546875 -23.0009765625 l 1
 200.021484375 -23.0009765625 l 2
 117.301757812 -23.0009765625 50 44.30078125 50 127.020507812 c 2
 50 390.91796875 l 2
 50 473.57421875 117.301757812 540.875976562 200.021484375 540.875976562 c 2
 223.564453125 540.875976562 l 2
 306.284179688 540.875976562 373.5859375 473.57421875 373.5859375 390.91796875 c 2
 373.5859375 127.084960938 l 2
 373.5859375 90.2353515625 403.526367188 60.2314453125 440.375976562 60.2314453125 c 2
 463.918945312 60.2314453125 l 2
 500.768554688 60.2314453125 530.772460938 90.2353515625 530.772460938 127.084960938 c 2
 530.772460938 390.982421875 l 2
 530.772460938 427.768554688 500.768554688 457.772460938 463.918945312 457.772460938 c 2
 422.334960938 457.772460938 l 1
 422.334960938 540.940429688 l 1
 463.918945312 540.940429688 l 1
EndSplineSet
EndChar

StartChar: unie06b
Encoding: 364 57451 107
Width: 664
GlyphClass: 1
Flags: W
LayerCount: 2
Fore
SplineSet
463.85546875 540.876953125 m 2
 546.51171875 540.876953125 613.813476562 473.575195312 613.813476562 390.918945312 c 2
 613.813476562 -113.396484375 l 2
 613.813476562 -196.116210938 546.51171875 -263.41796875 463.85546875 -263.41796875 c 2
 199.958007812 -263.41796875 l 2
 117.301757812 -263.41796875 50 -196.116210938 50 -113.396484375 c 2
 50 -71.8125 l 1
 133.16796875 -71.8125 l 1
 133.16796875 -113.396484375 l 2
 133.16796875 -150.24609375 163.108398438 -180.25 199.958007812 -180.25 c 2
 463.85546875 -180.25 l 2
 500.641601562 -180.25 530.645507812 -150.24609375 530.645507812 -113.396484375 c 2
 530.645507812 390.918945312 l 2
 530.645507812 427.705078125 500.705078125 457.708984375 463.85546875 457.708984375 c 2
 199.958007812 457.708984375 l 2
 163.171875 457.708984375 133.16796875 427.768554688 133.16796875 390.918945312 c 2
 133.16796875 349.334960938 l 1
 50 349.334960938 l 1
 50 390.918945312 l 2
 50 473.575195312 117.301757812 540.876953125 199.958007812 540.876953125 c 2
 463.85546875 540.876953125 l 2
EndSplineSet
EndChar

StartChar: unie06c
Encoding: 365 57452 108
Width: 664
GlyphClass: 1
Flags: W
LayerCount: 2
Fore
SplineSet
290.290039062 126.958007812 m 1
 290.354492188 127.021484375 l 1
 290.354492188 390.918945312 l 2
 290.354492188 414.909179688 296.047851562 437.556640625 306.091796875 457.708984375 c 1
 200.021484375 457.708984375 l 2
 163.171875 457.708984375 133.16796875 427.768554688 133.16796875 390.918945312 c 2
 133.16796875 -113.333007812 l 2
 133.16796875 -150.182617188 163.171875 -180.186523438 200.021484375 -180.186523438 c 2
 463.918945312 -180.186523438 l 2
 500.768554688 -180.186523438 530.772460938 -150.182617188 530.772460938 -113.333007812 c 2
 530.772460938 -71.7490234375 l 1
 613.940429688 -71.7490234375 l 1
 613.940429688 -113.333007812 l 2
 613.940429688 -196.052734375 546.638671875 -263.354492188 463.918945312 -263.354492188 c 2
 200.021484375 -263.354492188 l 2
 117.301757812 -263.354492188 50 -196.052734375 50 -113.333007812 c 2
 50 390.982421875 l 2
 50 473.638671875 117.301757812 540.940429688 200.021484375 540.940429688 c 2
 481.959960938 539.852539062 l 1
 556.170898438 530.896484375 613.875976562 467.497070312 613.875976562 390.918945312 c 2
 613.875976562 126.958007812 l 2
 613.875976562 44.23828125 546.57421875 -23.0634765625 463.854492188 -23.0634765625 c 2
 440.311523438 -23.0634765625 l 2
 357.591796875 -23.0634765625 290.290039062 44.23828125 290.290039062 126.958007812 c 1
373.458007812 390.854492188 m 2
 373.458007812 126.95703125 l 2
 373.458007812 90.107421875 403.461914062 60.103515625 440.311523438 60.103515625 c 2
 463.854492188 60.103515625 l 2
 500.704101562 60.103515625 530.708007812 90.107421875 530.708007812 126.95703125 c 2
 530.708007812 390.854492188 l 2
 530.708007812 427.640625 500.704101562 457.64453125 463.854492188 457.64453125 c 2
 440.311523438 457.64453125 l 2
 403.461914062 457.64453125 373.458007812 427.704101562 373.458007812 390.854492188 c 2
EndSplineSet
EndChar

StartChar: unie06d
Encoding: 366 57453 109
Width: 664
GlyphClass: 1
Flags: W
LayerCount: 2
Fore
SplineSet
199.989257812 540.876953125 m 2
 463.823242188 540.877929688 l 2
 546.54296875 540.877929688 613.844726562 473.576171875 613.844726562 390.919921875 c 2
 613.844726562 -22.9990234375 l 1
 530.676757812 -22.9990234375 l 1
 530.676757812 390.919921875 l 2
 530.676757812 393.287109375 529.588867188 395.333984375 529.333007812 397.63671875 c 1
 120.916015625 -10.8447265625 l 1
 62.123046875 47.9482421875 l 1
 470.540039062 456.365234375 l 1
 468.237304688 456.62109375 466.25390625 457.708984375 463.88671875 457.708984375 c 2
 199.989257812 457.708984375 l 2
 163.203125 457.708984375 133.19921875 427.768554688 133.19921875 390.918945312 c 2
 133.19921875 349.334960938 l 1
 50.03125 349.334960938 l 1
 50.03125 390.918945312 l 2
 50.03125 473.575195312 117.333007812 540.876953125 199.989257812 540.876953125 c 2
EndSplineSet
EndChar

StartChar: unie06e
Encoding: 367 57454 110
Width: 664
GlyphClass: 1
Flags: W
LayerCount: 2
Fore
SplineSet
530.7734375 168.60546875 m 1
 613.94140625 168.60546875 l 1
 613.94140625 127.021484375 l 2
 613.94140625 44.3017578125 546.639648438 -23 463.919921875 -23 c 2
 440.376953125 -23 l 2
 397.641601562 -23 359.256835938 -4.8310546875 331.939453125 23.8935546875 c 1
 304.622070312 -4.8310546875 266.237304688 -23 223.565429688 -23 c 2
 200.022460938 -23 l 2
 117.302734375 -23 50.0009765625 44.3017578125 50.0009765625 127.021484375 c 2
 50.0009765625 540.940429688 l 1
 133.168945312 540.940429688 l 1
 133.168945312 127.021484375 l 2
 133.168945312 90.171875 163.172851562 60.16796875 200.022460938 60.16796875 c 2
 223.565429688 60.16796875 l 2
 260.3515625 60.16796875 290.35546875 90.171875 290.35546875 127.021484375 c 2
 290.35546875 540.940429688 l 1
 373.5234375 540.940429688 l 1
 373.5234375 127.021484375 l 2
 373.5234375 90.171875 403.52734375 60.16796875 440.376953125 60.16796875 c 2
 463.919921875 60.16796875 l 2
 500.76953125 60.16796875 530.7734375 90.171875 530.7734375 127.021484375 c 2
 530.7734375 168.60546875 l 1
EndSplineSet
EndChar

StartChar: unie06f
Encoding: 368 57455 111
Width: 664
GlyphClass: 1
Flags: W
LayerCount: 2
Fore
SplineSet
463.88671875 540.876953125 m 2
 546.606445312 540.876953125 613.908203125 473.575195312 613.908203125 390.918945312 c 2
 613.908203125 -113.396484375 l 2
 613.908203125 -196.116210938 546.606445312 -263.41796875 463.88671875 -263.41796875 c 2
 199.989257812 -263.41796875 l 2
 117.333007812 -263.41796875 50.03125 -196.116210938 50.03125 -113.396484375 c 2
 50.03125 -71.8125 l 1
 133.19921875 -71.8125 l 1
 133.19921875 -113.396484375 l 2
 133.19921875 -150.24609375 163.139648438 -180.25 199.989257812 -180.25 c 2
 463.88671875 -180.25 l 2
 500.736328125 -180.25 530.740234375 -150.24609375 530.740234375 -113.396484375 c 2
 530.740234375 390.918945312 l 2
 530.740234375 427.705078125 500.736328125 457.708984375 463.88671875 457.708984375 c 2
 199.989257812 457.708984375 l 2
 163.203125 457.708984375 133.19921875 427.768554688 133.19921875 390.918945312 c 2
 133.19921875 -23 l 1
 50.03125 -23 l 1
 50.03125 540.876953125 l 1
 133.19921875 540.876953125 l 1
 133.19921875 524.435546875 l 1
 153.3515625 534.607421875 175.87109375 540.876953125 199.989257812 540.876953125 c 2
 463.88671875 540.876953125 l 2
EndSplineSet
EndChar

StartChar: unie070
Encoding: 369 57456 112
Width: 664
GlyphClass: 1
Flags: W
LayerCount: 2
Fore
SplineSet
613.876953125 457.708984375 m 1
 133.16796875 457.708984375 l 1
 133.16796875 126.958007812 l 2
 133.16796875 90.1083984375 163.171875 60.1044921875 200.021484375 60.1044921875 c 2
 463.918945312 60.1044921875 l 2
 500.705078125 60.1044921875 530.708984375 90.1083984375 530.708984375 126.958007812 c 2
 530.708984375 168.541992188 l 1
 613.876953125 168.541992188 l 1
 613.876953125 126.958007812 l 2
 613.876953125 44.23828125 546.575195312 -23.0634765625 463.918945312 -23.0634765625 c 2
 200.021484375 -23.0634765625 l 2
 117.301757812 -23.0634765625 50 44.23828125 50 126.958007812 c 2
 50 540.876953125 l 1
 613.876953125 540.876953125 l 1
 613.876953125 457.708984375 l 1
EndSplineSet
EndChar

StartChar: unie071
Encoding: 370 57457 113
Width: 664
GlyphClass: 1
Flags: W
LayerCount: 2
Fore
SplineSet
530.708984375 168.541015625 m 1
 613.877929688 168.541992188 l 1
 613.877929688 126.958007812 l 2
 613.877929688 44.23828125 546.576171875 -23.0634765625 463.856445312 -23.0634765625 c 2
 199.958984375 -23.0634765625 l 2
 117.302734375 -23.0634765625 50.0009765625 44.23828125 50.0009765625 126.958007812 c 2
 50.0009765625 540.876953125 l 1
 133.168945312 540.876953125 l 1
 133.168945312 126.893554688 l 2
 133.168945312 124.526367188 134.256835938 122.54296875 134.512695312 120.240234375 c 1
 542.9296875 528.657226562 l 1
 601.72265625 469.864257812 l 1
 193.241210938 61.447265625 l 1
 195.543945312 61.19140625 197.590820312 60.103515625 199.958007812 60.103515625 c 2
 463.85546875 60.103515625 l 2
 500.705078125 60.103515625 530.708984375 90.107421875 530.708984375 126.95703125 c 2
 530.708984375 168.541015625 l 1
EndSplineSet
EndChar

StartChar: unie072
Encoding: 371 57458 114
Width: 664
GlyphClass: 1
Flags: W
LayerCount: 2
Fore
SplineSet
463.918945312 540.876953125 m 2
 546.575195312 540.876953125 613.875976562 473.575195312 613.875976562 390.918945312 c 2
 613.875976562 127.021484375 l 2
 613.875976562 44.3017578125 546.57421875 -23 463.91796875 -23 c 2
 422.333984375 -23 l 1
 422.333984375 60.16796875 l 1
 463.91796875 60.16796875 l 2
 500.704101562 60.16796875 530.708007812 90.171875 530.708007812 127.021484375 c 2
 530.708007812 390.918945312 l 2
 530.708007812 427.705078125 500.767578125 457.708984375 463.91796875 457.708984375 c 2
 440.375 457.708984375 l 2
 403.525390625 457.708984375 373.521484375 427.768554688 373.521484375 390.918945312 c 2
 373.521484375 85.4375 l 1
 290.353515625 85.4375 l 1
 290.353515625 390.918945312 l 2
 290.353515625 427.705078125 260.413085938 457.708984375 223.563476562 457.708984375 c 2
 200.020507812 457.708984375 l 2
 163.170898438 457.708984375 133.166992188 427.768554688 133.166992188 390.918945312 c 2
 133.166992188 127.021484375 l 2
 133.166992188 90.171875 163.170898438 60.16796875 200.020507812 60.16796875 c 2
 241.604492188 60.16796875 l 1
 241.604492188 -23 l 1
 200.020507812 -23 l 2
 117.30078125 -23 49.9990234375 44.3017578125 49.9990234375 127.021484375 c 2
 49.9990234375 390.918945312 l 2
 49.9990234375 473.575195312 117.30078125 540.876953125 200.020507812 540.876953125 c 2
 223.563476562 540.876953125 l 2
 266.235351562 540.876953125 304.620117188 522.708007812 331.9375 493.983398438 c 1
 359.319335938 522.708007812 397.640625 540.876953125 440.375976562 540.876953125 c 2
 463.918945312 540.876953125 l 2
EndSplineSet
EndChar

StartChar: unie073
Encoding: 372 57459 115
Width: 664
GlyphClass: 1
Flags: W
LayerCount: 2
Fore
SplineSet
613.876953125 349.399414062 m 1
 530.708984375 349.399414062 l 1
 530.708984375 390.983398438 l 2
 530.708984375 427.833007812 500.705078125 457.836914062 463.85546875 457.836914062 c 2
 199.958007812 457.836914062 l 2
 163.171875 457.836914062 133.16796875 427.833007812 133.16796875 390.983398438 c 2
 133.16796875 367.440429688 l 2
 133.16796875 330.654296875 163.108398438 300.650390625 199.958007812 300.650390625 c 2
 463.85546875 300.650390625 l 2
 546.575195312 300.650390625 613.876953125 233.348632812 613.876953125 150.62890625 c 2
 613.876953125 127.0859375 l 2
 613.876953125 44.3662109375 546.575195312 -22.935546875 463.85546875 -22.935546875 c 2
 199.958007812 -22.935546875 l 2
 117.301757812 -22.935546875 50 44.3662109375 50 127.0859375 c 2
 50 168.669921875 l 1
 133.16796875 168.669921875 l 1
 133.16796875 127.0859375 l 2
 133.16796875 90.236328125 163.108398438 60.232421875 199.958007812 60.232421875 c 2
 463.85546875 60.232421875 l 2
 500.705078125 60.232421875 530.708984375 90.236328125 530.708984375 127.0859375 c 2
 530.708984375 150.62890625 l 2
 530.708984375 187.478515625 500.705078125 217.482421875 463.85546875 217.482421875 c 2
 199.958007812 217.482421875 l 2
 117.301757812 217.482421875 50 284.784179688 50 367.440429688 c 2
 50 390.983398438 l 2
 50 473.703125 117.301757812 541.004882812 199.958007812 541.004882812 c 2
 463.85546875 541.004882812 l 2
 546.575195312 541.004882812 613.876953125 473.703125 613.876953125 390.983398438 c 2
 613.876953125 349.399414062 l 1
EndSplineSet
EndChar

StartChar: unie074
Encoding: 373 57460 116
Width: 664
GlyphClass: 1
Flags: W
LayerCount: 2
Fore
SplineSet
463.85546875 540.876953125 m 2
 546.51171875 540.876953125 613.813476562 473.575195312 613.813476562 390.918945312 c 2
 613.813476562 127.021484375 l 2
 613.813476562 44.3017578125 546.51171875 -23 463.85546875 -23 c 2
 199.958007812 -23 l 2
 117.301757812 -23 50 44.3017578125 50 127.021484375 c 2
 50 390.918945312 l 2
 50 473.575195312 117.301757812 540.876953125 199.958007812 540.876953125 c 2
 463.85546875 540.876953125 l 2
133.104492188 390.918945312 m 1
 133.040039062 390.91796875 l 1
 133.040039062 126.95703125 l 2
 133.040039062 124.58984375 134.127929688 122.606445312 134.383789062 120.303710938 c 1
 470.4453125 456.365234375 l 1
 468.142578125 456.62109375 466.159179688 457.708984375 463.791992188 457.708984375 c 2
 199.89453125 457.708984375 l 2
 163.108398438 457.708984375 133.104492188 427.768554688 133.104492188 390.918945312 c 1
530.645507812 127.020507812 m 1
 530.709960938 127.084960938 l 1
 530.709960938 390.982421875 l 2
 530.709960938 393.349609375 529.622070312 395.333007812 529.366210938 397.635742188 c 1
 193.241210938 61.5107421875 l 1
 195.543945312 61.2548828125 197.590820312 60.1669921875 199.958007812 60.1669921875 c 2
 463.85546875 60.1669921875 l 2
 500.641601562 60.1669921875 530.645507812 90.1708984375 530.645507812 127.020507812 c 1
EndSplineSet
EndChar

StartChar: unie075
Encoding: 374 57461 117
Width: 664
GlyphClass: 1
Flags: W
LayerCount: 2
Fore
SplineSet
463.85546875 541.004882812 m 1
 463.85546875 540.940429688 l 1
 546.575195312 540.940429688 613.876953125 473.638671875 613.876953125 390.918945312 c 2
 613.876953125 349.334960938 l 1
 530.708984375 349.334960938 l 1
 530.708984375 390.918945312 l 2
 530.708984375 427.768554688 500.705078125 457.772460938 463.85546875 457.772460938 c 2
 440.3125 457.772460938 l 2
 403.526367188 457.772460938 373.522460938 427.768554688 373.522460938 390.918945312 c 2
 373.522460938 -23.064453125 l 1
 290.354492188 -23.064453125 l 1
 290.354492188 390.918945312 l 2
 290.354492188 427.768554688 260.350585938 457.772460938 223.500976562 457.772460938 c 2
 199.958007812 457.772460938 l 2
 163.171875 457.772460938 133.16796875 427.768554688 133.16796875 390.918945312 c 2
 133.16796875 -23 l 1
 50 -23 l 1
 50 390.983398438 l 2
 50 473.703125 117.301757812 541.004882812 199.958007812 541.004882812 c 2
 223.500976562 541.004882812 l 2
 266.236328125 541.004882812 304.62109375 522.8359375 331.938476562 494.111328125 c 1
 359.255859375 522.8359375 397.640625 541.004882812 440.3125 541.004882812 c 2
 463.85546875 541.004882812 l 1
EndSplineSet
EndChar

StartChar: unie076
Encoding: 375 57462 118
Width: 664
GlyphClass: 1
Flags: W
LayerCount: 2
Fore
SplineSet
463.918945312 721.286132812 m 2
 546.575195312 721.286132812 613.877929688 653.983398438 613.877929688 571.327148438 c 2
 613.877929688 127.083984375 l 2
 613.877929688 44.3642578125 546.576171875 -22.9375 463.919921875 -22.9375 c 2
 200.022460938 -22.9375 l 2
 117.302734375 -22.9375 50.0009765625 44.3642578125 50.0009765625 127.083984375 c 2
 50.0009765625 390.981445312 l 2
 50.0009765625 473.637695312 117.302734375 540.939453125 200.022460938 540.939453125 c 2
 463.919921875 540.939453125 l 2
 488.038085938 540.939453125 510.493164062 534.669921875 530.708984375 524.498046875 c 1
 530.708984375 571.328125 l 2
 530.708984375 608.114257812 500.768554688 638.118164062 463.918945312 638.118164062 c 2
 200.021484375 638.118164062 l 2
 163.171875 638.118164062 133.16796875 608.177734375 133.16796875 571.328125 c 2
 133.16796875 529.744140625 l 1
 50 529.744140625 l 1
 50 571.328125 l 2
 50 653.984375 117.301757812 721.286132812 200.021484375 721.286132812 c 2
 463.918945312 721.286132812 l 2
133.168945312 390.91796875 m 2
 133.16796875 126.956054688 l 2
 133.16796875 124.588867188 134.255859375 122.60546875 134.51171875 120.302734375 c 1
 470.573242188 456.364257812 l 1
 468.270507812 456.620117188 466.287109375 457.708007812 463.919921875 457.708007812 c 2
 200.022460938 457.708007812 l 2
 163.172851562 457.708007812 133.168945312 427.767578125 133.168945312 390.91796875 c 2
530.7734375 127.01953125 m 1
 530.837890625 127.020507812 l 1
 530.837890625 390.91796875 l 2
 530.837890625 393.28515625 529.75 395.33203125 529.494140625 397.634765625 c 1
 193.369140625 61.509765625 l 1
 195.671875 61.25390625 197.71875 60.166015625 200.0859375 60.166015625 c 2
 463.983398438 60.166015625 l 2
 500.76953125 60.166015625 530.7734375 90.169921875 530.7734375 127.01953125 c 1
EndSplineSet
EndChar

StartChar: unie077
Encoding: 376 57463 119
Width: 664
GlyphClass: 1
Flags: W
LayerCount: 2
Fore
SplineSet
613.8125 390.982421875 m 2
 613.8125 349.333984375 l 1
 530.64453125 349.333984375 l 1
 530.64453125 390.91796875 l 2
 530.64453125 427.767578125 500.704101562 457.771484375 463.854492188 457.771484375 c 2
 440.311523438 457.771484375 l 2
 403.525390625 457.771484375 373.521484375 427.767578125 373.521484375 390.91796875 c 2
 373.521484375 127.084960938 l 2
 373.521484375 90.2353515625 403.461914062 60.2314453125 440.311523438 60.2314453125 c 2
 463.854492188 60.2314453125 l 2
 500.640625 60.2314453125 530.64453125 90.2353515625 530.64453125 127.084960938 c 2
 530.64453125 168.668945312 l 1
 613.8125 168.668945312 l 1
 613.8125 127.084960938 l 2
 613.8125 44.365234375 546.510742188 -22.9365234375 463.854492188 -22.9365234375 c 2
 440.311523438 -22.9365234375 l 2
 397.639648438 -22.9365234375 359.254882812 -4.767578125 331.9375 23.95703125 c 1
 304.556640625 -4.767578125 266.235351562 -22.9365234375 223.5 -22.9365234375 c 2
 199.95703125 -22.9365234375 l 2
 117.30078125 -22.9365234375 49.9990234375 44.365234375 49.9990234375 127.084960938 c 2
 49.9990234375 168.668945312 l 1
 133.166992188 168.668945312 l 1
 133.166992188 127.084960938 l 2
 133.166992188 90.2353515625 163.107421875 60.2314453125 199.95703125 60.2314453125 c 2
 223.5 60.2314453125 l 2
 260.349609375 60.2314453125 290.353515625 90.2353515625 290.353515625 127.084960938 c 2
 290.353515625 390.982421875 l 2
 290.353515625 427.83203125 260.349609375 457.8359375 223.5 457.8359375 c 2
 199.95703125 457.8359375 l 2
 163.170898438 457.8359375 133.166992188 427.83203125 133.166992188 390.982421875 c 2
 133.166992188 349.3984375 l 1
 49.9990234375 349.3984375 l 1
 49.9990234375 390.982421875 l 2
 49.9990234375 473.702148438 117.30078125 541.00390625 199.95703125 541.00390625 c 2
 223.5 541.00390625 l 2
 266.235351562 541.00390625 304.620117188 522.834960938 331.9375 494.110351562 c 1
 359.254882812 522.834960938 397.639648438 541.00390625 440.311523438 541.00390625 c 2
 463.854492188 541.00390625 l 2
 546.510742188 541.00390625 613.8125 473.702148438 613.8125 390.982421875 c 2
EndSplineSet
EndChar

StartChar: unie078
Encoding: 377 57464 120
Width: 664
GlyphClass: 1
Flags: W
LayerCount: 2
Fore
SplineSet
463.918945312 522.384765625 m 2
 546.638671875 522.384765625 613.940429688 455.083007812 613.940429688 372.426757812 c 2
 613.940429688 -131.825195312 l 2
 613.940429688 -214.481445312 546.638671875 -281.783203125 463.918945312 -281.783203125 c 2
 200.021484375 -281.783203125 l 2
 117.301757812 -281.783203125 50 -214.481445312 50 -131.825195312 c 2
 50 -90.2412109375 l 1
 133.16796875 -90.2412109375 l 1
 133.16796875 -131.825195312 l 2
 133.16796875 -168.611328125 163.171875 -198.615234375 200.021484375 -198.615234375 c 2
 463.918945312 -198.615234375 l 2
 500.768554688 -198.615234375 530.772460938 -168.674804688 530.772460938 -131.825195312 c 2
 530.772460938 -25.6904296875 l 1
 510.620117188 -35.798828125 487.909179688 -41.4287109375 463.918945312 -41.4287109375 c 2
 200.021484375 -41.4287109375 l 2
 117.301757812 -41.4287109375 50 25.873046875 50 108.529296875 c 2
 50 372.426757812 l 2
 50 455.083007812 117.301757812 522.384765625 200.021484375 522.384765625 c 2
 463.918945312 522.384765625 l 2
530.772460938 108.465820312 m 2
 530.772460938 372.426757812 l 2
 530.772460938 409.212890625 500.768554688 439.216796875 463.918945312 439.216796875 c 2
 200.021484375 439.216796875 l 2
 163.171875 439.216796875 133.16796875 409.276367188 133.16796875 372.426757812 c 2
 133.16796875 108.465820312 l 2
 133.16796875 71.6796875 163.171875 41.67578125 200.021484375 41.67578125 c 2
 463.918945312 41.67578125 l 2
 500.768554688 41.67578125 530.772460938 71.6162109375 530.772460938 108.465820312 c 2
EndSplineSet
EndChar

StartChar: unie079
Encoding: 378 57465 121
Width: 664
GlyphClass: 1
Flags: W
LayerCount: 2
Fore
SplineSet
199.958007812 -41.4912109375 m 2
 175.967773438 -41.4912109375 153.3203125 -35.796875 133.16796875 -25.7529296875 c 1
 133.16796875 -131.887695312 l 2
 133.16796875 -168.673828125 163.108398438 -198.677734375 199.958007812 -198.677734375 c 2
 463.85546875 -198.677734375 l 2
 500.641601562 -198.677734375 530.645507812 -168.737304688 530.645507812 -131.887695312 c 2
 530.645507812 -90.3037109375 l 1
 613.813476562 -90.3037109375 l 1
 613.813476562 -131.887695312 l 2
 613.813476562 -214.543945312 546.51171875 -281.845703125 463.85546875 -281.845703125 c 2
 199.958007812 -281.845703125 l 2
 117.301757812 -281.845703125 50 -214.543945312 50 -131.887695312 c 2
 50 372.427734375 l 2
 50 455.083984375 117.301757812 522.385742188 199.958007812 522.385742188 c 2
 463.85546875 522.385742188 l 2
 546.51171875 522.385742188 613.813476562 455.083984375 613.813476562 372.427734375 c 2
 613.813476562 108.466796875 l 2
 613.813476562 25.810546875 546.51171875 -41.4912109375 463.85546875 -41.4912109375 c 2
 199.958007812 -41.4912109375 l 2
133.16796875 372.428710938 m 2
 133.16796875 108.53125 l 2
 133.16796875 71.7451171875 163.108398438 41.7412109375 199.958007812 41.7412109375 c 2
 463.85546875 41.7412109375 l 2
 500.641601562 41.7412109375 530.645507812 71.681640625 530.645507812 108.53125 c 2
 530.645507812 372.428710938 l 2
 530.645507812 409.21484375 500.705078125 439.21875 463.85546875 439.21875 c 2
 199.958007812 439.21875 l 2
 163.171875 439.21875 133.16796875 409.278320312 133.16796875 372.428710938 c 2
EndSplineSet
EndChar

StartChar: unie07a
Encoding: 379 57466 122
Width: 664
GlyphClass: 1
Flags: W
LayerCount: 2
Fore
SplineSet
463.918945312 522.384765625 m 2
 546.638671875 522.384765625 613.940429688 455.083007812 613.940429688 372.426757812 c 2
 613.940429688 108.529296875 l 2
 613.940429688 25.873046875 546.638671875 -41.4287109375 463.918945312 -41.4287109375 c 2
 200.021484375 -41.4287109375 l 2
 117.301757812 -41.4287109375 50 25.873046875 50 108.529296875 c 2
 50 150.11328125 l 1
 133.16796875 150.11328125 l 1
 133.16796875 108.529296875 l 2
 133.16796875 71.7431640625 163.171875 41.7392578125 200.021484375 41.7392578125 c 2
 463.918945312 41.7392578125 l 2
 500.768554688 41.7392578125 530.772460938 71.6796875 530.772460938 108.529296875 c 2
 530.772460938 372.426757812 l 2
 530.772460938 409.212890625 500.768554688 439.216796875 463.918945312 439.216796875 c 2
 200.021484375 439.216796875 l 2
 163.171875 439.216796875 133.16796875 409.276367188 133.16796875 372.426757812 c 2
 133.16796875 330.842773438 l 1
 50 330.842773438 l 1
 50 372.426757812 l 2
 50 455.083007812 117.301757812 522.384765625 200.021484375 522.384765625 c 2
 463.918945312 522.384765625 l 2
EndSplineSet
EndChar

StartChar: unie07b
Encoding: 380 57467 123
Width: 664
GlyphClass: 1
Flags: W
LayerCount: 2
Fore
SplineSet
613.876953125 330.84375 m 1
 530.708984375 330.84375 l 1
 530.708984375 372.427734375 l 2
 530.708984375 409.213867188 500.705078125 439.217773438 463.85546875 439.217773438 c 2
 199.958007812 439.217773438 l 2
 163.171875 439.217773438 133.16796875 409.27734375 133.16796875 372.427734375 c 2
 133.16796875 108.530273438 l 2
 133.16796875 71.744140625 163.108398438 41.740234375 199.958007812 41.740234375 c 2
 463.85546875 41.740234375 l 2
 500.705078125 41.740234375 530.708984375 71.6806640625 530.708984375 108.530273438 c 2
 530.708984375 150.114257812 l 1
 613.876953125 150.114257812 l 1
 613.876953125 108.530273438 l 2
 613.876953125 25.8740234375 546.575195312 -41.427734375 463.85546875 -41.427734375 c 2
 199.958007812 -41.427734375 l 2
 117.301757812 -41.427734375 50 25.8740234375 50 108.530273438 c 2
 50 372.427734375 l 2
 50 455.083984375 117.301757812 522.385742188 199.958007812 522.385742188 c 2
 463.85546875 522.385742188 l 2
 546.575195312 522.385742188 613.876953125 455.083984375 613.876953125 372.427734375 c 2
 613.876953125 330.84375 l 1
EndSplineSet
EndChar

StartChar: unie07c
Encoding: 381 57468 124
Width: 183
GlyphClass: 1
Flags: W
LayerCount: 2
Fore
SplineSet
133.16796875 -41.4912109375 m 1
 50 -41.4912109375 l 1
 50 522.385742188 l 1
 133.16796875 522.385742188 l 1
 133.16796875 -41.4912109375 l 1
EndSplineSet
EndChar

StartChar: unie07d
Encoding: 382 57469 125
Width: 664
GlyphClass: 1
Flags: W
LayerCount: 2
Fore
SplineSet
613.876953125 198.86328125 m 1
 50 198.86328125 l 1
 50 282.03125 l 1
 613.876953125 282.03125 l 1
 613.876953125 198.86328125 l 1
EndSplineSet
EndChar

StartChar: unie07e
Encoding: 383 57470 126
Width: 664
GlyphClass: 1
Flags: W
LayerCount: 2
Fore
SplineSet
530.708984375 108.465820312 m 2
 530.708984375 150.049804688 l 1
 613.876953125 150.049804688 l 1
 613.876953125 108.465820312 l 2
 613.876953125 25.8095703125 546.575195312 -41.4921875 463.85546875 -41.4921875 c 2
 199.958007812 -41.4921875 l 2
 117.301757812 -41.4921875 50 25.8095703125 50 108.465820312 c 2
 50 150.049804688 l 1
 133.16796875 150.049804688 l 1
 133.16796875 108.465820312 l 2
 133.16796875 71.6796875 163.108398438 41.67578125 199.958007812 41.67578125 c 2
 463.85546875 41.67578125 l 2
 500.705078125 41.67578125 530.708984375 71.6162109375 530.708984375 108.465820312 c 2
463.85546875 522.384765625 m 2
 546.575195312 522.384765625 613.876953125 455.083007812 613.876953125 372.426757812 c 2
 613.876953125 330.842773438 l 1
 530.708984375 330.842773438 l 1
 530.708984375 372.426757812 l 2
 530.708984375 409.212890625 500.705078125 439.216796875 463.85546875 439.216796875 c 2
 199.958007812 439.216796875 l 2
 163.171875 439.216796875 133.16796875 409.276367188 133.16796875 372.426757812 c 2
 133.16796875 330.842773438 l 1
 50 330.842773438 l 1
 50 372.426757812 l 2
 50 455.083007812 117.301757812 522.384765625 199.958007812 522.384765625 c 2
 463.85546875 522.384765625 l 2
EndSplineSet
EndChar

StartChar: unie07f
Encoding: 384 57471 127
Width: 664
GlyphClass: 1
Flags: W
LayerCount: 2
Fore
SplineSet
613.940429688 330.84375 m 1
 530.772460938 330.84375 l 1
 530.772460938 372.427734375 l 2
 530.772460938 409.213867188 500.768554688 439.217773438 463.918945312 439.217773438 c 2
 373.522460938 439.217773438 l 1
 373.522460938 41.6767578125 l 1
 463.918945312 41.6767578125 l 2
 500.768554688 41.6767578125 530.772460938 71.6171875 530.772460938 108.466796875 c 2
 530.772460938 150.05078125 l 1
 613.940429688 150.05078125 l 1
 613.940429688 108.466796875 l 2
 613.940429688 25.810546875 546.638671875 -41.4912109375 463.918945312 -41.4912109375 c 2
 200.021484375 -41.4912109375 l 2
 117.301757812 -41.4912109375 50 25.810546875 50 108.466796875 c 2
 50 150.05078125 l 1
 133.16796875 150.05078125 l 1
 133.16796875 108.466796875 l 2
 133.16796875 71.6806640625 163.171875 41.6767578125 200.021484375 41.6767578125 c 2
 290.41796875 41.6767578125 l 1
 290.41796875 439.217773438 l 1
 200.021484375 439.217773438 l 2
 163.171875 439.217773438 133.16796875 409.27734375 133.16796875 372.427734375 c 2
 133.16796875 330.84375 l 1
 50 330.84375 l 1
 50 372.427734375 l 2
 50 455.083984375 117.301757812 522.385742188 200.021484375 522.385742188 c 2
 463.918945312 522.385742188 l 2
 546.638671875 522.385742188 613.940429688 455.083984375 613.940429688 372.427734375 c 2
 613.940429688 330.84375 l 1
EndSplineSet
EndChar

StartChar: unie080
Encoding: 385 57472 128
Width: 664
GlyphClass: 1
Flags: W
LayerCount: 2
Fore
SplineSet
373.522460938 609.19921875 m 1
 290.354492188 609.19921875 l 1
 290.354492188 773.231445312 l 1
 373.522460938 773.231445312 l 1
 373.522460938 609.19921875 l 1
463.85546875 522.384765625 m 2
 546.51171875 522.384765625 613.813476562 455.083007812 613.813476562 372.426757812 c 2
 613.813476562 -131.825195312 l 2
 613.813476562 -214.481445312 546.51171875 -281.783203125 463.85546875 -281.783203125 c 2
 199.958007812 -281.783203125 l 2
 117.301757812 -281.783203125 50 -214.481445312 50 -131.825195312 c 2
 50 -90.2412109375 l 1
 133.16796875 -90.2412109375 l 1
 133.16796875 -131.825195312 l 2
 133.16796875 -168.611328125 163.108398438 -198.615234375 199.958007812 -198.615234375 c 2
 463.85546875 -198.615234375 l 2
 500.641601562 -198.615234375 530.645507812 -168.674804688 530.645507812 -131.825195312 c 2
 530.645507812 -25.6904296875 l 1
 510.493164062 -35.798828125 487.845703125 -41.4287109375 463.85546875 -41.4287109375 c 2
 199.958007812 -41.4287109375 l 2
 117.301757812 -41.4287109375 50 25.873046875 50 108.529296875 c 2
 50 372.426757812 l 2
 50 455.083007812 117.301757812 522.384765625 199.958007812 522.384765625 c 2
 463.85546875 522.384765625 l 2
530.645507812 108.465820312 m 2
 530.645507812 372.426757812 l 2
 530.645507812 409.212890625 500.705078125 439.216796875 463.85546875 439.216796875 c 2
 199.958007812 439.216796875 l 2
 163.171875 439.216796875 133.16796875 409.276367188 133.16796875 372.426757812 c 2
 133.16796875 108.465820312 l 2
 133.16796875 71.6796875 163.108398438 41.67578125 199.958007812 41.67578125 c 2
 463.85546875 41.67578125 l 2
 500.641601562 41.67578125 530.645507812 71.6162109375 530.645507812 108.465820312 c 2
EndSplineSet
EndChar

StartChar: unie081
Encoding: 386 57473 129
Width: 664
GlyphClass: 1
Flags: W
LayerCount: 2
Fore
SplineSet
373.522460938 609.19921875 m 1
 290.354492188 609.19921875 l 1
 290.354492188 773.231445312 l 1
 373.522460938 773.231445312 l 1
 373.522460938 609.19921875 l 1
200.021484375 -41.4912109375 m 2
 176.03125 -41.4912109375 153.3203125 -35.796875 133.16796875 -25.7529296875 c 1
 133.16796875 -131.887695312 l 2
 133.16796875 -168.673828125 163.171875 -198.677734375 200.021484375 -198.677734375 c 2
 463.918945312 -198.677734375 l 2
 500.705078125 -198.677734375 530.708984375 -168.737304688 530.708984375 -131.887695312 c 2
 530.708984375 -90.3037109375 l 1
 613.876953125 -90.3037109375 l 1
 613.876953125 -131.887695312 l 2
 613.876953125 -214.543945312 546.575195312 -281.845703125 463.918945312 -281.845703125 c 2
 200.021484375 -281.845703125 l 2
 117.301757812 -281.845703125 50 -214.543945312 50 -131.887695312 c 2
 50 372.427734375 l 2
 50 455.083984375 117.301757812 522.385742188 200.021484375 522.385742188 c 2
 463.918945312 522.385742188 l 2
 546.575195312 522.385742188 613.876953125 455.083984375 613.876953125 372.427734375 c 2
 613.876953125 108.466796875 l 2
 613.876953125 25.810546875 546.575195312 -41.4912109375 463.918945312 -41.4912109375 c 2
 200.021484375 -41.4912109375 l 2
133.16796875 372.428710938 m 2
 133.16796875 108.53125 l 2
 133.16796875 71.7451171875 163.171875 41.7412109375 200.021484375 41.7412109375 c 2
 463.918945312 41.7412109375 l 2
 500.705078125 41.7412109375 530.708984375 71.681640625 530.708984375 108.53125 c 2
 530.708984375 372.428710938 l 2
 530.708984375 409.21484375 500.768554688 439.21875 463.918945312 439.21875 c 2
 200.021484375 439.21875 l 2
 163.171875 439.21875 133.16796875 409.278320312 133.16796875 372.428710938 c 2
EndSplineSet
EndChar

StartChar: unie082
Encoding: 387 57474 130
Width: 664
GlyphClass: 1
Flags: W
LayerCount: 2
Fore
SplineSet
463.85546875 522.384765625 m 2
 546.575195312 522.384765625 613.876953125 455.083007812 613.876953125 372.426757812 c 2
 613.876953125 108.529296875 l 2
 613.876953125 25.873046875 546.575195312 -41.4287109375 463.85546875 -41.4287109375 c 2
 199.958007812 -41.4287109375 l 2
 117.301757812 -41.4287109375 50 25.873046875 50 108.529296875 c 2
 50 150.11328125 l 1
 133.16796875 150.11328125 l 1
 133.16796875 108.529296875 l 2
 133.16796875 71.7431640625 163.108398438 41.7392578125 199.958007812 41.7392578125 c 2
 463.85546875 41.7392578125 l 2
 500.705078125 41.7392578125 530.708984375 71.6796875 530.708984375 108.529296875 c 2
 530.708984375 372.426757812 l 2
 530.708984375 409.212890625 500.705078125 439.216796875 463.85546875 439.216796875 c 2
 199.958007812 439.216796875 l 2
 163.171875 439.216796875 133.16796875 409.276367188 133.16796875 372.426757812 c 2
 133.16796875 330.842773438 l 1
 50 330.842773438 l 1
 50 372.426757812 l 2
 50 455.083007812 117.301757812 522.384765625 199.958007812 522.384765625 c 2
 463.85546875 522.384765625 l 2
373.458984375 609.19921875 m 1
 290.291015625 609.19921875 l 1
 290.291015625 773.231445312 l 1
 373.458984375 773.231445312 l 1
 373.458984375 609.19921875 l 1
EndSplineSet
EndChar

StartChar: unie083
Encoding: 388 57475 131
Width: 664
GlyphClass: 1
Flags: W
LayerCount: 2
Fore
SplineSet
613.876953125 330.84375 m 1
 530.708984375 330.84375 l 1
 530.708984375 372.427734375 l 2
 530.708984375 409.213867188 500.768554688 439.217773438 463.918945312 439.217773438 c 2
 200.021484375 439.217773438 l 2
 163.171875 439.217773438 133.16796875 409.27734375 133.16796875 372.427734375 c 2
 133.16796875 108.530273438 l 2
 133.16796875 71.744140625 163.171875 41.740234375 200.021484375 41.740234375 c 2
 463.918945312 41.740234375 l 2
 500.705078125 41.740234375 530.708984375 71.6806640625 530.708984375 108.530273438 c 2
 530.708984375 150.114257812 l 1
 613.876953125 150.114257812 l 1
 613.876953125 108.530273438 l 2
 613.876953125 25.8740234375 546.575195312 -41.427734375 463.918945312 -41.427734375 c 2
 200.021484375 -41.427734375 l 2
 117.301757812 -41.427734375 50 25.8740234375 50 108.530273438 c 2
 50 372.427734375 l 2
 50 455.083984375 117.301757812 522.385742188 200.021484375 522.385742188 c 2
 463.918945312 522.385742188 l 2
 546.575195312 522.385742188 613.876953125 455.083984375 613.876953125 372.427734375 c 2
 613.876953125 330.84375 l 1
373.522460938 609.19921875 m 1
 290.354492188 609.19921875 l 1
 290.354492188 773.231445312 l 1
 373.522460938 773.231445312 l 1
 373.522460938 609.19921875 l 1
EndSplineSet
EndChar

StartChar: unie084
Encoding: 389 57476 132
Width: 183
GlyphClass: 1
Flags: W
LayerCount: 2
Fore
SplineSet
133.16796875 -41.4912109375 m 1
 50 -41.4912109375 l 1
 50 522.385742188 l 1
 133.16796875 522.385742188 l 1
 133.16796875 -41.4912109375 l 1
133.16796875 609.19921875 m 1
 50 609.19921875 l 1
 50 773.231445312 l 1
 133.16796875 773.231445312 l 1
 133.16796875 609.19921875 l 1
EndSplineSet
EndChar

StartChar: unie085
Encoding: 390 57477 133
Width: 664
GlyphClass: 1
Flags: W
LayerCount: 2
Fore
SplineSet
373.522460938 609.19921875 m 1
 290.354492188 609.19921875 l 1
 290.354492188 773.231445312 l 1
 373.522460938 773.231445312 l 1
 373.522460938 609.19921875 l 1
613.876953125 198.86328125 m 1
 50 198.86328125 l 1
 50 282.03125 l 1
 613.876953125 282.03125 l 1
 613.876953125 198.86328125 l 1
EndSplineSet
EndChar

StartChar: unie086
Encoding: 391 57478 134
Width: 664
GlyphClass: 1
Flags: W
LayerCount: 2
Fore
SplineSet
373.522460938 609.19921875 m 1
 290.354492188 609.19921875 l 1
 290.354492188 773.231445312 l 1
 373.522460938 773.231445312 l 1
 373.522460938 609.19921875 l 1
530.7734375 108.465820312 m 2
 530.7734375 150.049804688 l 1
 613.94140625 150.049804688 l 1
 613.94140625 108.465820312 l 2
 613.94140625 25.8095703125 546.639648438 -41.4921875 463.983398438 -41.4921875 c 2
 200.0859375 -41.4921875 l 2
 117.366210938 -41.4921875 50.064453125 25.8095703125 50.064453125 108.465820312 c 2
 50.064453125 150.049804688 l 1
 133.232421875 150.049804688 l 1
 133.232421875 108.465820312 l 2
 133.232421875 71.6796875 163.236328125 41.67578125 200.0859375 41.67578125 c 2
 463.983398438 41.67578125 l 2
 500.76953125 41.67578125 530.7734375 71.6162109375 530.7734375 108.465820312 c 2
463.919921875 522.384765625 m 2
 546.576171875 522.384765625 613.877929688 455.083007812 613.877929688 372.426757812 c 2
 613.877929688 330.842773438 l 1
 530.709960938 330.842773438 l 1
 530.709960938 372.426757812 l 2
 530.709960938 409.212890625 500.76953125 439.216796875 463.919921875 439.216796875 c 2
 200.022460938 439.216796875 l 2
 163.172851562 439.216796875 133.168945312 409.276367188 133.168945312 372.426757812 c 2
 133.168945312 330.842773438 l 1
 50.0009765625 330.842773438 l 1
 50.0009765625 372.426757812 l 2
 50.0009765625 455.083007812 117.302734375 522.384765625 200.022460938 522.384765625 c 2
 463.919921875 522.384765625 l 2
EndSplineSet
EndChar

StartChar: unie087
Encoding: 392 57479 135
Width: 664
GlyphClass: 1
Flags: W
LayerCount: 2
Fore
SplineSet
373.618164062 609.19921875 m 1
 290.450195312 609.19921875 l 1
 290.450195312 773.231445312 l 1
 373.618164062 773.231445312 l 1
 373.618164062 609.19921875 l 1
613.97265625 330.84375 m 1
 530.8046875 330.84375 l 1
 530.8046875 372.427734375 l 2
 530.8046875 409.213867188 500.80078125 439.217773438 463.951171875 439.217773438 c 2
 373.5546875 439.217773438 l 1
 373.5546875 41.6767578125 l 1
 463.951171875 41.6767578125 l 2
 500.80078125 41.6767578125 530.8046875 71.6171875 530.8046875 108.466796875 c 2
 530.8046875 150.05078125 l 1
 613.97265625 150.05078125 l 1
 613.97265625 108.466796875 l 2
 613.97265625 25.810546875 546.670898438 -41.4912109375 463.951171875 -41.4912109375 c 2
 200.053710938 -41.4912109375 l 2
 117.333984375 -41.4912109375 50.0322265625 25.810546875 50.0322265625 108.466796875 c 2
 50.0322265625 150.05078125 l 1
 133.200195312 150.05078125 l 1
 133.200195312 108.466796875 l 2
 133.200195312 71.6806640625 163.204101562 41.6767578125 200.053710938 41.6767578125 c 2
 290.450195312 41.6767578125 l 1
 290.450195312 439.217773438 l 1
 200.053710938 439.217773438 l 2
 163.204101562 439.217773438 133.200195312 409.27734375 133.200195312 372.427734375 c 2
 133.200195312 330.84375 l 1
 50.0322265625 330.84375 l 1
 50.0322265625 372.427734375 l 2
 50.0322265625 455.083984375 117.333984375 522.385742188 200.053710938 522.385742188 c 2
 463.951171875 522.385742188 l 2
 546.670898438 522.385742188 613.97265625 455.083984375 613.97265625 372.427734375 c 2
 613.97265625 330.84375 l 1
EndSplineSet
EndChar

StartChar: unie088
Encoding: 393 57480 136
Width: 664
GlyphClass: 1
Flags: W
LayerCount: 2
Fore
SplineSet
326.436523438 609.19921875 m 1
 243.268554688 609.19921875 l 1
 243.268554688 773.231445312 l 1
 326.436523438 773.231445312 l 1
 326.436523438 609.19921875 l 1
420.671875 609.19921875 m 1
 337.50390625 609.19921875 l 1
 337.50390625 773.231445312 l 1
 420.671875 773.231445312 l 1
 420.671875 609.19921875 l 1
463.918945312 522.384765625 m 2
 546.575195312 522.384765625 613.876953125 455.083007812 613.876953125 372.426757812 c 2
 613.876953125 -131.825195312 l 2
 613.876953125 -214.481445312 546.575195312 -281.783203125 463.918945312 -281.783203125 c 2
 200.021484375 -281.783203125 l 2
 117.301757812 -281.783203125 50 -214.481445312 50 -131.825195312 c 2
 50 -90.2412109375 l 1
 133.16796875 -90.2412109375 l 1
 133.16796875 -131.825195312 l 2
 133.16796875 -168.611328125 163.171875 -198.615234375 200.021484375 -198.615234375 c 2
 463.918945312 -198.615234375 l 2
 500.705078125 -198.615234375 530.708984375 -168.674804688 530.708984375 -131.825195312 c 2
 530.708984375 -25.6904296875 l 1
 510.556640625 -35.798828125 487.909179688 -41.4287109375 463.918945312 -41.4287109375 c 2
 200.021484375 -41.4287109375 l 2
 117.301757812 -41.4287109375 50 25.873046875 50 108.529296875 c 2
 50 372.426757812 l 2
 50 455.083007812 117.301757812 522.384765625 200.021484375 522.384765625 c 2
 463.918945312 522.384765625 l 2
530.708984375 108.465820312 m 2
 530.708984375 372.426757812 l 2
 530.708984375 409.212890625 500.768554688 439.216796875 463.918945312 439.216796875 c 2
 200.021484375 439.216796875 l 2
 163.171875 439.216796875 133.16796875 409.276367188 133.16796875 372.426757812 c 2
 133.16796875 108.465820312 l 2
 133.16796875 71.6796875 163.171875 41.67578125 200.021484375 41.67578125 c 2
 463.918945312 41.67578125 l 2
 500.705078125 41.67578125 530.708984375 71.6162109375 530.708984375 108.465820312 c 2
EndSplineSet
EndChar

StartChar: unie089
Encoding: 394 57481 137
Width: 664
GlyphClass: 1
Flags: W
LayerCount: 2
Fore
SplineSet
326.436523438 609.19921875 m 1
 243.268554688 609.19921875 l 1
 243.268554688 773.231445312 l 1
 326.436523438 773.231445312 l 1
 326.436523438 609.19921875 l 1
420.671875 609.19921875 m 1
 337.50390625 609.19921875 l 1
 337.50390625 773.231445312 l 1
 420.671875 773.231445312 l 1
 420.671875 609.19921875 l 1
199.95703125 -41.4912109375 m 2
 175.966796875 -41.4912109375 153.319335938 -35.796875 133.166992188 -25.7529296875 c 1
 133.166992188 -131.887695312 l 2
 133.166992188 -168.673828125 163.107421875 -198.677734375 199.95703125 -198.677734375 c 2
 463.854492188 -198.677734375 l 2
 500.704101562 -198.677734375 530.708007812 -168.737304688 530.708007812 -131.887695312 c 2
 530.708007812 -90.3037109375 l 1
 613.875976562 -90.3037109375 l 1
 613.875976562 -131.887695312 l 2
 613.875976562 -214.543945312 546.57421875 -281.845703125 463.854492188 -281.845703125 c 2
 199.95703125 -281.845703125 l 2
 117.30078125 -281.845703125 49.9990234375 -214.543945312 49.9990234375 -131.887695312 c 2
 49.9990234375 372.427734375 l 2
 49.9990234375 455.083984375 117.30078125 522.385742188 199.95703125 522.385742188 c 2
 463.854492188 522.385742188 l 2
 546.57421875 522.385742188 613.875976562 455.083984375 613.875976562 372.427734375 c 2
 613.875976562 108.466796875 l 2
 613.875976562 25.810546875 546.57421875 -41.4912109375 463.854492188 -41.4912109375 c 2
 199.95703125 -41.4912109375 l 2
133.166992188 372.428710938 m 2
 133.166992188 108.53125 l 2
 133.166992188 71.7451171875 163.107421875 41.7412109375 199.95703125 41.7412109375 c 2
 463.854492188 41.7412109375 l 2
 500.704101562 41.7412109375 530.708007812 71.681640625 530.708007812 108.53125 c 2
 530.708007812 372.428710938 l 2
 530.708007812 409.21484375 500.704101562 439.21875 463.854492188 439.21875 c 2
 199.95703125 439.21875 l 2
 163.170898438 439.21875 133.166992188 409.278320312 133.166992188 372.428710938 c 2
EndSplineSet
EndChar

StartChar: unie08a
Encoding: 395 57482 138
Width: 664
GlyphClass: 1
Flags: W
LayerCount: 2
Fore
SplineSet
463.918945312 522.384765625 m 2
 546.575195312 522.384765625 613.876953125 455.083007812 613.876953125 372.426757812 c 2
 613.876953125 108.529296875 l 2
 613.876953125 25.873046875 546.575195312 -41.4287109375 463.918945312 -41.4287109375 c 2
 200.021484375 -41.4287109375 l 2
 117.301757812 -41.4287109375 50 25.873046875 50 108.529296875 c 2
 50 150.11328125 l 1
 133.16796875 150.11328125 l 1
 133.16796875 108.529296875 l 2
 133.16796875 71.7431640625 163.171875 41.7392578125 200.021484375 41.7392578125 c 2
 463.918945312 41.7392578125 l 2
 500.705078125 41.7392578125 530.708984375 71.6796875 530.708984375 108.529296875 c 2
 530.708984375 372.426757812 l 2
 530.708984375 409.212890625 500.768554688 439.216796875 463.918945312 439.216796875 c 2
 200.021484375 439.216796875 l 2
 163.171875 439.216796875 133.16796875 409.276367188 133.16796875 372.426757812 c 2
 133.16796875 330.842773438 l 1
 50 330.842773438 l 1
 50 372.426757812 l 2
 50 455.083007812 117.301757812 522.384765625 200.021484375 522.384765625 c 2
 463.918945312 522.384765625 l 2
326.436523438 609.19921875 m 1
 243.268554688 609.19921875 l 1
 243.268554688 773.231445312 l 1
 326.436523438 773.231445312 l 1
 326.436523438 609.19921875 l 1
420.607421875 609.19921875 m 1
 337.439453125 609.19921875 l 1
 337.439453125 773.231445312 l 1
 420.607421875 773.231445312 l 1
 420.607421875 609.19921875 l 1
EndSplineSet
EndChar

